<?xml version="1.0" encoding="utf-8"?>
<!-- Generator: Adobe Illustrator 17.0.0, SVG Export Plug-In . SVG Version: 6.00 Build 0)  -->
<!DOCTYPE svg PUBLIC "-//W3C//DTD SVG 1.1//EN" "http://www.w3.org/Graphics/SVG/1.1/DTD/svg11.dtd">
<svg version="1.1" id="Layer_1" xmlns="http://www.w3.org/2000/svg" xmlns:xlink="http://www.w3.org/1999/xlink" x="0px" y="0px"
	 width="3000px" height="2000px" viewBox="0 0 3000 2000" enable-background="new 0 0 3000 2000" xml:space="preserve">

<g>

	<rect fill="#0F0D0D" width="3000" height="2000"/>

	<g class="cave">


	<g class="background">
		<rect x="618.196" y="63.684" fill="#1A1012" width="1795.746" height="2689.354"/>
		<polygon fill="#30141B" points="2019.043,2632.389 946.975,2398.234 946.975,2753.038 2134.225,2753.038 	"/>
		<g>
			<polygon fill="#581E2C" points="1534.403,678.231 1486.289,838.611 1524.197,1054.395 1594.181,927.549 		"/>
			<polygon fill="#531A2B" points="1078.049,831.321 1088.62,909.324 1088.62,909.324 1088.62,909.324 1132.724,1234.458 
				1211.456,1194.363 1242.803,1224.981 1183.754,813.096 		"/>
			<polygon fill="#9F2756" points="1524.197,523.829 1429.427,645.791 1534.403,678.231 		"/>
			<polygon fill="#6F2338" points="1697.699,730.719 1786.273,880.966 1752.958,507.791 		"/>
			<polygon fill="#672034" points="1690.993,940.817 1786.273,880.966 1697.699,730.719 		"/>
			<polygon fill="#6C1B3C" points="1975.594,282.384 1997.537,523.829 2036.757,478.339 		"/>
			<polygon fill="#8D234F" points="1594.181,927.549 1623.341,771.179 1524.197,523.829 1524.197,606.425 1534.403,678.231 		"/>
			<polygon fill="#6F2338" points="1594.181,927.549 1690.993,940.817 1701.855,858.367 1697.699,730.719 		"/>
			<polygon fill="#9F2756" points="1697.699,730.719 1752.958,507.791 1623.341,771.179 		"/>
			<polygon fill="#271014" points="1242.803,1224.981 1318.619,1106.883 1228.223,1075.391 		"/>
			<polygon fill="#631E34" points="1285.085,959.625 1383.5,1013.571 1429.427,645.791 		"/>
			<polygon fill="#9F2756" points="1671.237,541.471 1524.197,523.829 1623.341,771.179 		"/>
			<path fill="#7A2840" d="M1204.312,677.502c-0.146-0.292-0.292-0.51-0.51-0.802l-20.047,136.396l59.049,411.885l-14.58-149.591
				L1204.312,677.502z"/>
			<polygon fill="#7A2840" points="1383.5,1013.571 1486.289,838.611 1429.427,645.791 1395.237,843.058 		"/>
			<polygon fill="#B62D70" points="1752.958,507.791 1671.237,541.471 1645.94,632.96 1623.341,771.179 		"/>
			<polygon fill="#B62D70" points="1594.181,927.549 1697.699,730.719 1623.341,771.179 1605.772,831.321 		"/>
			<polygon fill="#701C3D" points="1671.237,285.811 1660.52,422.935 1671.237,541.471 1752.958,507.791 		"/>
			<polygon fill="#631E34" points="1524.197,1054.395 1690.993,940.817 1647.982,927.549 1594.181,927.549 		"/>
			<polygon fill="#9F2756" points="1826.514,589.512 1752.958,507.791 1786.273,880.966 		"/>
			<polygon fill="#431822" points="1916.254,791.737 1939.363,714.827 1826.514,589.512 1826.514,589.512 		"/>
			<path fill="#FFFFFF" d="M1826.514,589.512L1826.514,589.512L1826.514,589.512z"/>
			<polygon fill="#3F171E" points="1786.273,880.966 1791.74,1300.068 1846.926,970.123 		"/>
			<path fill="#FFFFFF" d="M1826.514,589.512L1826.514,589.512L1826.514,589.512z"/>
			<polygon fill="#201012" points="1953.578,1025.235 1939.363,714.827 1916.254,791.737 1916.254,1259.755 1957.15,1078.963 		"/>
			<polygon fill="#401621" points="1957.15,1078.963 1916.254,1259.755 1977.198,1072.474 		"/>
			<polygon fill="#1C1011" points="1882.938,1263.618 1916.254,1259.755 1846.926,970.123 		"/>
			<polygon fill="#230F12" points="1791.74,1300.068 1882.938,1263.618 1846.926,970.123 		"/>
			<path fill="#FFFFFF" d="M2074.593,534.472L2074.593,534.472L2074.593,534.472z"/>
			<polygon fill="#992B52" points="1922.304,523.829 1826.514,589.512 1939.363,714.827 		"/>
			<polygon fill="#631E34" points="1996.881,890.151 1996.881,890.151 1997.537,886.069 2032.092,684.574 1997.537,742.092 		"/>
			<polygon fill="#30141B" points="1957.15,1078.963 1977.198,1072.474 1977.198,1013.863 1953.578,1025.235 		"/>
			<path fill="#561C2E" d="M2100.253,572.453l-25.661-37.981l0,0l0,0l-37.835-56.06l53.873,340.443 C2089.464,798.735,2100.253,572.453,2100.253,572.453z"/>
			<polygon fill="#401621" points="1997.537,742.092 1939.363,714.827 1953.578,1025.235 1977.198,1013.863 1996.881,890.151 1996.881,890.151 1998.12,781.385 		"/>
			<polygon fill="#451723" points="1997.537,742.092 1922.304,523.829 1939.363,714.827 		"/>
			<polygon fill="#A2285D" points="2032.092,684.574 2036.757,478.339 1997.537,742.092 		"/>
			<polygon fill="#8D234F" points="1997.537,523.829 1922.304,523.829 1997.537,742.092 		"/>
			<polygon fill="#B72E73" points="2036.757,478.339 1997.537,523.829 1988.716,610.216 1997.537,742.092 2017.147,632.96 		"/>
			<polygon fill="#4B1928" points="1128.277,620.349 1128.277,620.349 1122.373,645.791 1143.149,636.387 1169.174,535.347 1166.04,457.927 		"/>
			<polygon fill="#371520" points="889.967,893.286 849.143,819.657 911.91,1041.273 		"/>
			<polygon fill="#411720" points="989.84,645.791 940.997,669.483 889.967,893.286 946.319,975.663 		"/>
			<polygon fill="#431822" points="1042.839,570.193 989.84,645.791 996.11,714.681 		"/>
			<polygon fill="#481826" points="1015.574,478.339 940.997,669.483 989.84,645.791 		"/>
			<path fill="#FFFFFF" d="M1042.839,570.193L1042.839,570.193L1042.839,570.193z"/>
			<polygon fill="#4E1A28" points="1053.92,819.657 1053.92,998.991 1088.62,909.324 1078.049,831.321 		"/>
			<polygon fill="#31151A" points="996.11,714.681 965.783,1163.016 1013.168,899.847 		"/>
			<polygon fill="#271116" points="849.143,819.657 849.143,1004.823 911.91,1041.273 		"/>
			<polygon fill="#281017" points="889.967,893.286 911.91,1041.273 965.783,1163.016 946.319,975.663 		"/>
			<polygon fill="#261017" points="849.143,1004.823 894.341,1103.238 965.783,1163.016 911.91,1041.273 		"/>
			<polygon fill="#211012" points="894.341,791.737 889.967,893.286 940.997,669.483 		"/>
			<path fill="#FFFFFF" d="M2028.082,1259.755L2028.082,1259.755L2028.082,1259.755z"/>
			<polygon fill="#261017" points="2300.218,1090.481 2215.8,956.782 2198.304,976.246 		"/>
			<polygon fill="#1D0F11" points="2177.892,1157.33 2194.367,1103.238 2130.798,893.14 		"/>
			<polygon fill="#2D1319" points="946.319,329.405 921.314,623.556 894.341,791.737 940.997,669.483 		"/>
			<polygon fill="#221016" points="2215.8,223.773 2154.418,169.972 2255.822,365.782 		"/>
			<polygon fill="#421526" points="857.891,512.748 894.341,791.737 906.005,623.556 		"/>
			<polygon fill="#211010" points="946.319,329.405 906.005,623.556 894.341,791.737 921.314,623.556 		"/>
			<polygon fill="#531A2B" points="1752.958,1075.391 1786.273,880.966 1690.993,940.817 		"/>
			<polygon fill="#3D1324" points="889.603,302.869 857.891,329.405 857.891,512.748 906.005,623.556 		"/>
			<polygon fill="#251013" points="996.11,714.681 989.84,645.791 946.319,975.663 965.783,1163.016 		"/>
			<polygon fill="#8B244D" points="1386.562,302.869 1386.562,302.869 1253.301,377.81 1294.198,759.879 		"/>
			<polygon fill="#752042" points="1294.198,759.879 1285.085,555.541 1253.301,377.81 1207.811,638.865 		"/>
			<path fill="#FFFFFF" d="M1386.562,302.869L1386.562,302.869L1386.562,302.869z"/>
			<polygon fill="#5E1A31" points="1253.301,377.81 1169.174,535.347 1207.811,638.865 1234.566,531.338 		"/>
			<polygon fill="#741C40" points="1166.04,457.927 1160.208,314.46 1105.387,480.964 1149.856,527.547 1105.387,480.964 1128.277,620.349 		"/>
			<path fill="#FFFFFF" d="M1386.562,302.869L1386.562,302.869L1386.562,302.869z"/>
			<polygon fill="#9B2556" points="1105.387,480.964 1053.92,819.657 1078.049,831.321 1086.797,799.245 1122.373,645.791 1122.373,645.791 1122.373,645.791 1128.277,620.349 		"/>
			<path fill="#1F1013" d="M1916.254,1259.755l18.079,33.315c21.943-12.174,42.792-23.547,42.792-23.547v-196.976L1916.254,1259.755z "/>
			<polygon fill="#8D234F" points="1395.237,674.586 1395.237,674.586 1294.198,759.879 1207.811,638.865 1285.085,959.625 1429.427,645.791 		"/>
			<path fill="#B62D70" d="M1204.166,674.586l-34.992-139.239l-25.952,101.039l45.49,36.013c2.551,1.604,13.559,1.75,15.163,4.301 c0.146,0.292,0.365,0.51,0.51,0.802L1204.166,674.586z"/>
			<path fill="#9F2756" d="M1189.441,665.401l-46.292-28.941l40.532,176.71l20.12-136.396 C1202.198,674.222,1191.992,667.005,1189.441,665.401z"/>
			<polygon fill="#792240" points="1294.198,759.879 1395.237,674.586 1386.562,302.869 1386.562,302.869 1327.513,564.361 		"/>
			<polygon fill="#551A2D" points="1071.197,529.734 1071.197,529.734 1071.197,529.734 1060.553,544.897 1060.553,544.897 1060.553,544.897 1042.839,570.193 1053.92,819.657 1086.797,656.143 1105.387,480.964 		"/>
			<polygon fill="#7A2840" points="1122.373,645.791 1098.534,714.827 1086.797,799.245 1183.754,813.096 1166.04,714.681 1143.149,636.387 		"/>
			<path fill="#651E34" d="M1204.312,677.502l14.434,240.862l9.404,157.027l56.862-115.765l-78.732-277.53 C1205.843,680.491,1205.114,678.96,1204.312,677.502z"/>
			<polygon fill="#631E34" points="1042.839,570.193 996.11,714.681 1013.168,899.847 1053.92,819.657 		"/>
			<polygon fill="#992B52" points="1429.427,645.791 1386.562,302.869 1376.648,535.347 1383.5,684.574 		"/>
			<path fill="#B62D70" d="M1204.166,674.586l0.146,2.916c0.802,1.458,1.531,2.989,1.968,4.593l78.805,277.53l-77.274-320.76 L1204.166,674.586z"/>
			<polygon fill="#631E34" points="1826.514,589.512 1802.311,733.125 1786.273,880.966 1846.926,970.123 1916.254,791.737 		"/>
			<polygon fill="#201012" points="1053.92,819.657 1016.303,1384.851 1044.734,1318.585 1053.92,998.991 		"/>
			<polygon fill="#1C1012" points="906.005,1343.735 965.783,1355.472 965.783,1163.016 		"/>
			<polygon fill="#250F12" points="1013.168,899.847 965.783,1163.016 965.783,1355.472 995.599,1318.585 1053.92,819.657 		"/>
			<polygon fill="#170F10" points="995.599,1318.585 1016.303,1384.851 1053.92,819.657 		"/>
			<polygon fill="#100D0E" points="1053.92,1440.62 1100.284,1318.585 1093.942,1255.38 		"/>
			<polygon fill="#341420" points="940.852,669.483 1015.428,478.339 1001.577,223.773 996.11,178.064 978.031,223.773 946.173,329.405 		"/>
			<polygon fill="#39151E" points="1132.724,1234.458 1122.373,1102.218 1088.62,909.324 1053.92,998.991 1106.48,1255.38 1093.942,1255.38 1100.284,1318.585 1143.149,1423.998 1142.274,1318.585 		"/>
			<polygon fill="#39151E" points="1183.754,1069.413 1257.602,1384.851 1257.602,1318.585 1242.803,1224.981 		"/>
			<polygon fill="#221012" points="1242.803,1224.981 1257.602,1318.585 1376.648,1384.851 1318.619,1106.883 		"/>
			<polygon fill="#1D0F11" points="1132.724,1234.458 1142.274,1318.585 1197.095,1393.672 1183.754,1069.413 		"/>
			<polygon fill="#170F10" points="1376.648,1384.851 1381.095,1318.585 1318.619,1106.883 		"/>
			<polygon fill="#2C1219" points="1197.095,1393.672 1242.803,1323.615 1183.754,1069.413 		"/>
			<polygon fill="#100D0E" points="857.891,329.405 889.603,302.869 909.65,223.773 906.005,164.869 859.568,223.773 857.891,249.361 		"/>
			<polygon fill="#180F11" points="889.603,185.646 816.338,223.773 761.153,302.869 857.891,249.361 		"/>
			<polygon fill="#1D0F13" points="894.341,1103.238 849.143,1004.823 857.891,1370.198 906.005,1343.735 965.783,1163.016 		"/>
			<polygon fill="#240F17" points="857.891,249.361 797.676,282.676 816.338,401.284 857.891,329.405 		"/>
			<polygon fill="#221014" points="954.703,223.773 906.005,164.869 889.603,302.869 		"/>
			<polygon fill="#291019" points="906.005,623.556 946.319,329.405 965.127,223.773 965.127,190.02 954.703,223.773 889.603,302.869 		"/>
			<polygon fill="#1F1013" points="816.338,864.782 790.896,1023.777 816.338,1134.002 849.143,819.657 		"/>
			<polygon fill="#170F10" points="849.143,819.657 741.98,1456.293 816.338,1318.585 857.891,1370.198 849.143,1004.823 		"/>
			<polygon fill="#2C121A" points="889.967,893.286 894.341,791.737 857.891,512.748 781.201,799.245 816.338,864.782 849.143,819.657 		"/>
			<polygon fill="#1F1012" points="857.891,329.405 816.338,401.284 781.201,799.245 857.891,512.748 		"/>
			<polygon fill="#251013" points="1110.854,1255.38 1053.92,998.991 1044.734,1318.585 1053.92,1440.62 1093.942,1255.38 		"/>
			<polygon fill="#1F1013" points="2047.765,886.871 2097.993,1006.792 2050.9,1255.38 2096.754,1349.64 2110.022,1318.585 2090.849,820.24 		"/>
			<path fill="#170F10" d="M1934.333,1293.07L1934.333,1293.07L1934.333,1293.07c-17.715,9.842-36.158,20.266-44.761,25.588 l134.792,34.919l-47.239-84.054C1977.198,1269.45,1956.276,1280.823,1934.333,1293.07z"/>
			<polygon fill="#221014" points="2028.082,1259.755 2028.082,1259.755 2028.082,1259.755 1977.198,1269.45 2024.437,1353.504 2040.475,1318.585 2050.9,1255.38 		"/>
			<path fill="#36161C" d="M2090.849,820.24l50.52,498.344h0.656l-11.299-425.444C2130.798,893.14,2093.182,820.969,2090.849,820.24z "/>
			<polygon fill="#100D0E" points="2040.475,1318.585 2096.754,1349.64 2050.9,1255.38 		"/>
			<polygon fill="#180F10" points="2110.022,1318.585 2127.299,1416.198 2141.369,1318.585 2090.849,820.24 		"/>
			<polygon fill="#261017" points="2177.892,1157.33 2215.8,1134.731 2300.218,1090.481 2194.367,1103.238 		"/>
			<path fill="#170F10" d="M2198.304,976.246l-3.937,126.992l21.433,11.008l84.418-23.765l-84.418-98.925 C2206.323,983.172,2198.304,976.246,2198.304,976.246z"/>
			<path fill="#1C1012" d="M2144.285,1318.585l71.515,85.803v-188.082c-14.289-22.964-37.908-58.976-37.908-58.976L2144.285,1318.585 z"/>
			<polygon fill="#211014" points="2130.798,893.14 2142.098,1318.585 2144.285,1318.585 2177.892,1157.33 		"/>
			<path fill="#100D0E" d="M2215.8,1216.306l54.092,64.589l-54.092-146.165l-37.908,22.599 C2177.892,1157.33,2201.511,1193.343,2215.8,1216.306z"/>
			<polygon fill="#2C1219" points="1383.5,1013.571 1400.705,1384.851 1404.933,1318.585 1486.289,838.611 		"/>
			<polygon fill="#36151B" points="1486.289,838.611 1486.289,1318.585 1569.104,1384.851 1569.104,1318.585 1524.197,1054.395 		"/>
			<path fill="#100D0E" d="M1916.254,1259.755l-33.315,3.864l-14.361,101.696l20.995-46.656c8.602-5.322,27.046-15.673,44.761-25.588 L1916.254,1259.755z"/>
			<polygon fill="#40161F" points="1524.197,1054.395 1569.104,1384.851 1578.362,1318.585 1690.993,940.817 		"/>
			<polygon fill="#270F14" points="1318.619,1106.883 1381.095,1318.585 1400.705,1384.851 1383.5,1013.571 		"/>
			<polygon fill="#4E1926" points="1404.933,1318.585 1456.473,1245.831 1486.289,1318.585 1486.289,838.611 		"/>
			<polygon fill="#4E1926" points="1690.993,941.4 1578.362,1319.168 1569.104,1384.851 1752.958,1075.974 1736.628,1004.823 		"/>
			<polygon fill="#170F10" points="1791.74,1300.068 1786.856,1318.585 1868.577,1365.241 1882.938,1263.618 		"/>
			<polygon fill="#2B1316" points="1786.273,880.966 1752.958,1075.391 1746.251,1365.241 1786.856,1318.585 1791.74,1300.068 		"/>
			<polygon fill="#221014" points="1708.853,1318.585 1746.251,1365.241 1752.958,1075.391 		"/>
			<polygon fill="#270F15" points="1569.104,1384.851 1708.853,1318.585 1752.958,1075.391 		"/>
			<polygon fill="#180F11" points="978.104,223.773 972.199,183.532 965.127,223.773 946.319,329.405 		"/>
			<polygon fill="#4B182A" points="2100.253,572.453 2084.215,223.773 2083.559,223.773 2074.593,534.472 		"/>
			<polygon fill="#461527" points="2074.593,534.472 2041.058,223.773 2036.757,223.773 2036.757,478.339 		"/>
			<polygon fill="#36141F" points="2074.593,534.472 2083.559,223.773 2041.058,223.773 		"/>
			<polygon fill="#281017" points="2203.771,666.567 2130.798,472.143 2146.472,223.773 2096.754,223.773 2154.345,644.624 		"/>
			<polygon fill="#57172F" points="2154.345,644.624 2096.754,223.773 2084.215,223.773 2100.253,572.453 		"/>
			<polygon fill="#631E34" points="2036.757,478.339 2041.058,223.773 2002.713,223.773 1975.594,282.384 2006.212,401.94 		"/>
			<polygon fill="#641A39" points="1933.968,139.865 1922.304,523.829 1997.537,523.829 		"/>
			<polygon fill="#31141E" points="2203.771,666.567 2193.93,344.276 2164.697,223.773 2146.472,223.773 2130.798,472.143 		"/>
			<polygon fill="#441526" points="1826.514,589.512 1922.304,523.829 1932.51,187.687 1887.531,223.773 		"/>
			<polygon fill="#100D0E" points="1988.716,250.964 1956.349,222.971 1975.594,282.384 		"/>
			<path fill="#631D33" d="M2100.253,572.453l-9.404,94.114c0,0-0.875,140.989-0.219,152.215l0.219,1.458l59.559-101.112
				L2100.253,572.453z"/>
			<polygon fill="#31151B" points="2130.798,893.14 2194.367,1103.238 2150.481,719.055 		"/>
			<polygon fill="#281018" points="2193.93,344.276 2193.93,344.276 2215.8,434.381 2215.8,256.286 2182.922,223.773 
				2164.697,223.773 		"/>
			<polygon fill="#301517" points="2150.481,719.055 2194.367,1103.238 2154.345,644.624 		"/>
			<polygon fill="#2F141C" points="1826.514,589.512 1887.531,223.773 1850.425,151.529 1804.644,223.773 		"/>
			<path fill="#431722" d="M2090.849,820.24c2.333,0.802,39.876,72.9,39.876,72.9l19.683-174.085L2090.849,820.24z"/>
			<polygon fill="#250F15" points="2203.771,666.567 2215.8,689.458 2215.8,434.381 2193.93,344.276 		"/>
			<path fill="#100D0E" d="M2215.8,702.215l68.38,77.566l-80.409-113.214C2203.771,666.567,2209.895,684.355,2215.8,702.215z"/>
			<path fill="#250F15" d="M2154.345,644.624l43.886,331.622l17.569-19.464l68.38-177.001l-68.38-77.566
				c-5.541-16.767-11.956-35.502-12.029-35.721L2154.345,644.624z"/>
			<polygon fill="#211012" points="2194.367,1103.53 2198.304,976.246 2154.418,644.916 		"/>
			<polygon fill="#32141C" points="1386.562,302.869 1376.648,223.773 1357.111,164.869 1332.252,223.773 1253.301,377.81 		"/>
			<polygon fill="#451428" points="1386.562,302.869 1386.562,302.869 1404.933,501.886 1429.427,645.791 1482.134,353.899 
				1403.985,200.153 1376.648,223.773 		"/>
			<polygon fill="#421423" points="1605.772,223.773 1593.015,174.419 1526.895,223.773 1524.197,523.829 		"/>
			<polygon fill="#701C3D" points="1524.197,523.829 1526.895,223.773 1520.479,187.687 1505.608,223.773 1429.427,645.791 		"/>
			<polygon fill="#3B1420" points="1332.252,223.773 1285.085,153.862 1236.17,184.625 1204.75,223.773 1253.301,377.81 		"/>
			<polygon fill="#281017" points="1050.347,223.773 1037.371,178.064 1001.723,223.773 1015.574,478.339 		"/>
			<polygon fill="#441427" points="1160.208,314.46 1156.563,223.773 1135.713,194.175 1113.843,161.953 1105.387,223.773 
				1105.387,480.964 		"/>
			<polygon fill="#270F14" points="1160.208,314.46 1160.208,314.46 1166.04,457.927 1166.04,457.927 1166.04,457.927 
				1169.174,535.347 1253.301,377.81 1204.75,223.773 1166.04,178.064 1156.563,223.773 		"/>
			<polygon fill="#391421" points="1071.197,529.734 1092.994,223.773 1071.197,183.532 1060.553,223.773 1060.553,544.897 		"/>
			<polygon fill="#251013" points="1105.387,480.964 1111.656,178.064 1092.994,223.773 1071.197,529.734 		"/>
			<polygon fill="#55172E" points="989.84,645.791 1042.839,570.193 1042.839,570.193 1042.839,570.193 1060.553,544.897 
				1060.553,223.773 1060.553,158.09 1050.347,223.773 1015.574,478.339 		"/>
			<polygon fill="#381521" points="1752.958,507.791 1802.019,205.329 1750.552,210.505 1671.237,285.811 		"/>
			<polygon fill="#7A1F44" points="1671.237,541.471 1671.237,480.964 1661.031,428.038 1642.66,223.773 1623.341,200.153 
				1605.772,223.773 1524.197,523.829 1614.448,541.471 		"/>
			<polygon fill="#7A1F44" points="1804.644,223.773 1802.019,205.329 1795.458,225.158 1752.958,507.791 1826.514,589.512 		"/>
			<polygon fill="#441526" points="1671.237,285.811 1689.535,223.773 1671.237,174.419 1642.66,223.773 1660.52,422.935 
				1671.237,344.276 		"/>
			<polygon fill="#281018" points="1750.552,210.505 1729.265,200.153 1689.535,223.773 1671.237,285.811 		"/>
			<polygon fill="#431722" points="2154.345,644.624 2100.253,572.453 2150.481,719.055 		"/>
			<polyline fill="#31141C" points="1975.594,282.384 1997.537,523.829 1937.103,163.557 1975.594,282.384 1975.594,282.384 		"/>
			<polygon fill="#6A2236" points="2036.757,478.339 2028.082,632.96 2032.092,684.574 2047.765,886.871 2090.849,820.24 
				2090.63,818.782 2068.542,662.558 		"/>
			<polygon fill="#271014" points="1977.198,1073.276 1977.198,1270.325 2028.082,1260.557 2047.765,887.673 1977.198,1014.665 		"/>
			<polygon fill="#431723" points="2050.9,1255.38 2097.993,1006.792 2028.082,1259.755 		"/>
			<polygon fill="#30141B" points="2028.082,1259.755 2097.993,1006.792 2047.765,886.871 		"/>
			<polygon fill="#722239" points="1997.537,886.069 1996.881,890.151 2047.765,886.871 2050.9,810.69 2032.092,684.574 
				2008.326,781.385 		"/>
			<polygon fill="#621E33" points="1977.198,1013.863 2047.765,886.871 2028.082,880.966 1996.881,890.151 		"/>
			<polygon fill="#271014" points="1846.926,970.123 1916.254,1259.755 1916.254,791.737 		"/>
			<polygon fill="#942B4F" points="1429.427,645.791 1486.289,838.611 1534.403,678.231 1486.289,650.311 		"/>
			<polygon fill="#2C1219" points="1228.223,1075.391 1318.619,1106.883 1383.5,1013.571 1285.085,959.625 		"/>
			<polygon fill="#672034" points="1078.049,831.321 1183.754,1069.413 1183.754,813.096 1130.902,799.245 1086.797,799.245 
				1083.007,813.096 		"/>
			<polygon fill="#8D234F" points="1207.811,638.865 1203.802,586.086 1169.174,535.347 1183.754,632.96 1204.166,674.586 
				1208.176,661.537 		"/>
		</g>
		<path fill="#281018" d="M2215.8,434.381l-51.103-210.608l-10.352-53.8l61.455,86.314c0,0,43.084,110.079,40.022,109.496
			C2252.687,365.199,2215.8,434.381,2215.8,434.381z"/>
		<polygon fill="#31141E" points="2130.798,472.143 2150.263,139.865 2193.93,344.276 2203.771,666.567 	"/>
		<polygon fill="#250F15" points="2215.8,434.381 2234.025,499.116 2215.8,683.553 2203.771,418.124 	"/>
		<polygon fill="#57172F" points="2096.754,223.773 2083.559,122.223 2084.215,223.773 2090.849,253.078 	"/>
		<polygon fill="#100D0E" points="2096.754,223.773 2083.559,122.223 2146.982,196.071 2142.171,278.083 	"/>
		<polygon fill="#100D0E" points="2041.058,223.773 2076.925,169.972 2084.215,223.773 2070.875,250.964 	"/>
		<polygon fill="#31151B" points="1975.594,282.384 2025.239,163.557 2041.058,200.153 2040.767,237.915 	"/>
		<polygon fill="#221014" points="1482.134,353.899 1524.197,523.829 1526.895,223.773 1525.874,179.668 1494.819,222.971 	"/>
		<polygon fill="#251013" points="1526.895,223.773 1558.533,397.42 1581.132,314.46 1593.015,174.419 	"/>
		<polygon fill="#36161C" points="1581.132,314.46 1660.52,422.935 1642.66,223.773 1620.863,139.865 	"/>
		<polygon fill="#631E34" points="1253.301,377.81 1318.619,422.935 1386.562,302.869 1344.718,314.46 	"/>
		<g>
			<polyline fill="#581E2C" points="1545.922,2693.625 1508.014,2477.841 1438.03,2604.687 		"/>
			<polygon fill="#531A2B" points="1954.162,2700.915 1943.591,2622.912 1943.591,2622.912 1943.591,2622.912 1899.487,2297.778 
				1820.755,2337.873 1789.408,2307.255 1848.457,2719.14 		"/>
			<path fill="#6F2338" d="M1245.865,2651.27"/>
			<line fill="none" x1="1341.218" y1="2591.346" x2="1245.865" y2="2651.27"/>
			<path fill="#8D234F" d="M1438.03,2604.687"/>
			<polygon fill="#6F2338" points="1404.933,2750.851 1330.356,2673.869 1341.218,2591.346 1386.854,2613.799 		"/>
			<polygon fill="#271014" points="1789.408,2307.255 1713.592,2425.353 1803.988,2456.772 		"/>
			<polyline fill="#7A2840" points="1545.922,2693.625 1563.418,2753.038 1602.055,2753.038 1636.901,2689.178 1648.711,2518.665 
				1545.922,2693.625 		"/>
			<polygon fill="#631E34" points="1508.014,2477.841 1341.218,2591.346 1386.854,2613.799 1438.03,2604.687 		"/>
			<path fill="#9F2756" d="M1245.865,2651.27"/>
			<path fill="#431822" d="M1115.885,2740.499"/>
			<polygon fill="#3F171E" points="1245.865,2651.27 1240.398,2232.168 1185.285,2562.113 		"/>
			<polygon fill="#201012" points="1115.885,2740.499 1115.885,2272.481 1074.988,2453.2 1078.56,2507.001 		"/>
			<polygon fill="#401621" points="1074.988,2453.2 1115.885,2272.481 1055.013,2459.761 		"/>
			<polygon fill="#1C1011" points="1149.2,2268.618 1115.885,2272.481 1185.285,2562.113 		"/>
			<polygon fill="#230F12" points="1240.398,2232.168 1149.2,2268.618 1185.285,2562.113 		"/>
			<polyline fill="#631E34" points="1035.257,2642.084 1035.257,2642.084 1034.601,2646.167 		"/>
			<polygon fill="#30141B" points="1074.988,2453.2 1055.013,2459.761 1055.013,2518.373 1078.56,2507.001 		"/>
			<path fill="#561C2E" d="M941.508,2713.453"/>
			<polyline fill="#401621" points="1034.018,2753.038 1034.018,2644.125 1055.013,2518.373 1078.56,2507.001 1034.018,2753.038 		
				"/>
			<polygon fill="#371520" points="2142.244,2638.95 2183.068,2712.579 2120.228,2490.963 		"/>
			<line fill="none" x1="2142.244" y1="2638.95" x2="2085.892" y2="2556.573"/>
			<polygon fill="#4E1A28" points="1978.219,2712.579 1978.219,2533.245 1943.591,2622.912 1954.162,2700.915 		"/>
			<line fill="none" x1="2066.427" y1="2369.22" x2="2019.043" y2="2632.389"/>
			<polygon fill="#271116" points="2183.068,2712.579 2183.068,2527.34 2120.228,2490.963 		"/>
			<polygon fill="#281017" points="2142.244,2638.95 2120.228,2490.963 2066.427,2369.22 2085.892,2556.573 		"/>
			<polygon fill="#261017" points="2183.068,2527.34 2137.87,2428.998 2066.427,2369.22 2120.228,2490.963 		"/>
			<line fill="none" x1="2137.87" y1="2740.499" x2="2142.244" y2="2638.95"/>
			<path fill="#FFFFFF" d="M1004.129,2272.481L1004.129,2272.481L1004.129,2272.481z"/>
			<polygon fill="#431722" points="731.92,2441.755 816.338,2575.454 833.907,2555.99 		"/>
			<polygon fill="#1D0F11" points="854.246,2374.833 837.844,2428.998 901.413,2639.095 		"/>
			<path fill="#2D1319" d="M2137.87,2740.499"/>
			<path fill="#421526" d="M2137.87,2740.499"/>
			<path fill="#211010" d="M2137.87,2740.499"/>
			<polygon fill="#531A2B" points="1279.253,2456.772 1245.865,2651.27 1341.218,2591.346 		"/>
			<line fill="none" x1="2085.892" y1="2556.573" x2="2066.427" y2="2369.22"/>
			<path fill="#1F1013" d="M1115.885,2272.481l-18.079-33.315c-21.943,12.174-42.792,23.547-42.792,23.547v196.976L1115.885,2272.481
				z"/>
			<path fill="#8D234F" d="M1747.126,2572.611"/>
			<path fill="#9F2756" d="M1848.457,2719.14"/>
			<path fill="#551A2D" d="M1978.219,2712.579"/>
			<line fill="none" x1="1945.414" y1="2732.991" x2="1848.457" y2="2719.14"/>
			<polygon fill="#270F14" points="1747.126,2572.611 1803.988,2456.772 1813.392,2613.799 1758.79,2753.038 1736.191,2671.098 		"/>
			<line fill="none" x1="2019.043" y1="2632.389" x2="1978.219" y2="2712.579"/>
			<path fill="#B62D70" d="M1747.126,2572.611"/>
			<polygon fill="#201012" points="1978.219,2712.579 2015.835,2147.385 1987.404,2213.651 1978.219,2533.245 		"/>
			<polygon fill="#1C1012" points="2126.206,2188.5 2066.427,2176.764 2066.427,2369.22 		"/>
			<polygon fill="#250F12" points="2019.043,2632.389 2066.427,2369.22 2066.427,2176.764 2036.539,2213.651 1978.219,2712.579 		"/>
			<polygon fill="#170F10" points="2036.539,2213.651 2015.835,2147.385 1978.219,2712.579 		"/>
			<polygon fill="#100D0E" points="1978.219,2091.543 1931.927,2213.651 1938.196,2276.855 		"/>
			<polygon fill="#39151E" points="1899.487,2297.778 1909.766,2429.945 1943.591,2622.912 1978.219,2533.245 1925.731,2276.855 
				1938.196,2276.855 1931.927,2213.651 1888.989,2108.238 1889.864,2213.651 		"/>
			<polygon fill="#39151E" points="1848.457,2462.823 1774.536,2147.385 1774.536,2213.651 1789.408,2307.255 		"/>
			<polygon fill="#221012" points="1789.408,2307.255 1774.536,2213.651 1655.49,2147.385 1713.592,2425.353 		"/>
			<polygon fill="#1D0F11" points="1899.487,2297.778 1889.864,2213.651 1835.043,2138.564 1848.457,2462.823 		"/>
			<polygon fill="#170F10" points="1655.49,2147.385 1651.116,2213.651 1713.592,2425.353 		"/>
			<polygon fill="#2C1219" points="1835.043,2138.564 1789.408,2208.621 1848.457,2462.823 		"/>
			<polygon fill="#1D0F13" points="2137.87,2428.998 2183.068,2527.34 2174.32,2162.038 2126.206,2188.5 2066.427,2369.22 		"/>
			<polygon fill="#1F1013" points="2215.873,2667.453 2241.242,2508.459 2215.873,2398.234 2183.068,2712.579 		"/>
			<polygon fill="#170F10" points="2183.068,2712.579 2290.158,2075.943 2215.873,2213.651 2174.32,2162.038 2183.068,2527.34 		"/>
			<path fill="#1F1012" d="M2250.938,2732.991"/>
			<polygon fill="#251013" points="1921.357,2276.855 1978.219,2533.245 1987.404,2213.651 1978.219,2091.543 1938.196,2276.855 		
				"/>
			<polygon fill="#1F1013" points="984.446,2645.365 934.145,2525.371 981.311,2276.855 935.384,2182.596 922.189,2213.651 
				941.289,2711.995 		"/>
			<path fill="#170F10" d="M1097.805,2239.166L1097.805,2239.166L1097.805,2239.166c17.715-9.842,36.158-20.266,44.761-25.588
				l-134.792-34.919l47.239,84.054C1055.013,2262.713,1075.862,2251.34,1097.805,2239.166z"/>
			<polygon fill="#221014" points="1004.129,2272.481 1004.129,2272.481 1004.129,2272.481 1055.013,2262.713 1007.774,2178.659 
				991.736,2213.651 981.311,2276.855 		"/>
			<path fill="#36161C" d="M941.289,2711.995l-50.52-498.344h-0.656l11.299,425.445
				C901.413,2639.095,938.956,2711.194,941.289,2711.995z"/>
			<polygon fill="#100D0E" points="991.736,2213.651 935.384,2182.596 981.311,2276.855 		"/>
			<polygon fill="#180F10" points="922.189,2213.651 904.839,2116.038 890.769,2213.651 941.289,2711.995 		"/>
			<polygon fill="#261017" points="854.246,2374.833 816.338,2397.505 731.92,2441.755 837.844,2428.998 		"/>
			<path fill="#170F10" d="M833.907,2555.99l3.937-126.992l-21.433-11.008l-84.491,23.765l84.418,98.925
				C825.888,2549.064,833.907,2555.99,833.907,2555.99z"/>
			<path fill="#1C1012" d="M887.853,2213.651l-71.515-85.803v188.082c14.288,22.964,37.908,58.976,37.908,58.976L887.853,2213.651z"
				/>
			<polygon fill="#211014" points="901.413,2639.095 890.113,2213.651 887.853,2213.651 854.246,2374.833 		"/>
			<path fill="#100D0E" d="M816.338,2315.93l-54.092-64.589l54.092,146.164l37.908-22.599
				C854.246,2374.833,830.7,2338.893,816.338,2315.93z"/>
			<polygon fill="#2C1219" points="1648.711,2518.665 1631.433,2147.385 1627.278,2213.651 1545.922,2693.625 		"/>
			<polygon fill="#36151B" points="1545.922,2693.625 1545.922,2213.651 1463.034,2147.385 1463.034,2213.651 1508.014,2477.841 		
				"/>
			<path fill="#100D0E" d="M1115.885,2272.481l33.315-3.864l14.361-101.695l-20.995,46.656c-8.602,5.322-27.046,15.673-44.761,25.588
				L1115.885,2272.481z"/>
			<polygon fill="#40161F" points="1508.014,2477.841 1463.034,2147.385 1453.776,2213.651 1341.218,2591.346 		"/>
			<polygon fill="#270F14" points="1713.592,2425.353 1651.116,2213.651 1631.433,2147.385 1648.711,2518.665 		"/>
			<polygon fill="#4E1926" points="1627.278,2213.651 1575.665,2286.332 1545.922,2213.651 1545.922,2693.625 		"/>
			<polygon fill="#4E1926" points="1341.218,2590.763 1453.776,2213.068 1463.034,2147.385 1279.253,2456.189 1295.583,2527.34 		"/>
			<polygon fill="#170F10" points="1240.398,2232.168 1245.355,2213.651 1163.561,2166.922 1149.2,2268.618 		"/>
			<polygon fill="#2B1316" points="1245.865,2651.27 1279.253,2456.772 1285.96,2166.922 1245.355,2213.651 1240.398,2232.168 		"/>
			<polygon fill="#221014" points="1323.285,2213.651 1285.96,2166.922 1279.253,2456.772 		"/>
			<polygon fill="#270F15" points="1463.034,2147.385 1323.285,2213.651 1279.253,2456.772 		"/>
			<path fill="#631D33" d="M941.508,2713.453l-0.219-1.458"/>
			<path fill="#301517" d="M837.844,2428.998"/>
			<path fill="#431722" d="M946.975,2753.038h-92.729l47.093-113.943c-0.802-1.458,37.106,71.296,39.876,72.9L946.975,2753.038z"/>
			<path fill="#100D0E" d="M748.031,2752.382"/>
			<polyline fill="#6A2236" points="984.446,2645.365 981.311,2753.038 946.975,2753.038 941.508,2713.453 941.289,2711.995 
				984.446,2645.365 		"/>
			<polygon fill="#271014" points="1055.013,2458.959 1055.013,2261.911 1004.129,2271.679 984.446,2644.563 1055.013,2517.498 		"/>
			<polygon fill="#431723" points="981.311,2276.855 934.145,2525.371 1004.129,2272.481 		"/>
			<polygon fill="#30141B" points="1004.129,2272.481 934.145,2525.371 984.446,2645.365 		"/>
			<polygon fill="#722239" points="1034.018,2753.038 1034.601,2646.167 1035.257,2642.084 984.446,2645.365 981.311,2721.472 
				981.311,2753.038 		"/>
			<polygon fill="#621E33" points="1055.013,2518.373 984.446,2645.365 1004.129,2651.27 1035.257,2642.084 		"/>
			<polygon fill="#271014" points="1185.285,2562.113 1115.885,2272.481 1115.885,2740.499 		"/>
			<path fill="#942B4F" d="M1545.922,2693.625"/>
			<polygon fill="#2C1219" points="1803.988,2456.772 1713.592,2425.353 1648.711,2518.665 1747.126,2572.611 		"/>
			<polygon fill="#672034" points="1954.162,2700.915 1848.457,2462.823 1848.457,2719.14 1901.309,2732.991 1945.414,2732.991 
				1949.204,2719.14 		"/>
			<polygon fill="#31151B" points="837.844,2428.998 901.413,2639.095 833.907,2555.99 		"/>
			<polygon fill="#271014" points="748.031,2752.382 816.338,2575.454 833.907,2555.99 867.66,2597.542 854.246,2753.038 		"/>
			<polygon fill="#631E34" points="1115.885,2740.499 1185.285,2562.113 1245.865,2651.27 1168.3,2753.038 		"/>
			<polygon fill="#631E34" points="1648.711,2518.665 1747.126,2572.611 1736.191,2671.098 1682.318,2753.038 1651.116,2753.038 
				1636.901,2689.178 		"/>
			<polygon fill="#7A2840" points="1848.457,2719.14 1789.408,2307.255 1803.988,2456.772 1813.392,2613.799 1835.043,2753.038 
				1848.457,2753.038 		"/>
			<polygon fill="#9B2556" points="1945.414,2732.991 1954.162,2700.915 1978.219,2712.579 1973.116,2753.038 1939.582,2753.038 		
				"/>
			<polygon fill="#2C121A" points="2134.225,2753.038 2142.244,2638.95 2183.068,2712.579 2215.873,2667.453 2250.938,2732.991 		"/>
		</g>
		<path fill="#100D0E" d="M2413.942,1462.854V267.877V153.862v-41.553V68.787H618.196v1403.033v1.823v1278.812h129.835l68.38-177.001
			l-119.629,175.397l51.322-205.87l-16.038-103.226l-48.333,83.689l30.618-175.908l102.133,48.041l-84.564-85.147l7.071-135.667
			l23.328,74.577l54.092-123.566l119.046,54.821l-32.222-54.821l54.383-51.905v51.905l50.228,50.884l-12.32-50.884l48.041-30.472
			l120.139,69.692c0,0,39.22-53.654,42.063-58.757c2.843-5.103,21.943,39.147,21.943,39.147l24.64-47.166l33.753,66.776
			l75.014-58.757l-37.616,105.413l111.172-111.974l28.577,45.708l70.494-71.442l12.32,137.708l34.336-97.54l51.176,31.347v-55.769
			l24.057,55.769l103.299-55.769l15.746,46.948l29.452-46.948l31.055,36.231v-36.231l53.946,16.621l56.425-24.057l32.878,7.436
			l37.616,55.769l54.092-55.769l-3.572,85.147l66.412-68.526l36.45,53.8l120.868-86.168l23.693,197.049l-23.693,231.093
			l65.756-47.239l-104.976,276.145l15.09,19.392h147.914V1477.069v-5.249v-8.967H2413.942z M711.217,583.461l105.049-182.177
			l-83.179,66.12l28.066-164.535l-76.18,29.014l57.008-66.047l-65.756-125.971l84.928,60.288L883.771,97.947l22.234,66.922
			l72.171-53.8L965.2,190.02l60.799-81.867l9.113,206.307l25.442-156.298l32.44,65.683l18.662-40.241l2.187-21.578l29.306,204.193
			l17.059-51.759l-3.645-90.688l40.532,90.688l-31.128-136.396l45.198-38.127l25.005,44.761l17.059,193.185l31.784-223.949
			l74.65-55.987l-2.552,66.922l19.61,58.903l27.338-23.62l52.196-102.206l10.498,116.786l15.309,139.166l23.474-130.127
			l14.872-36.085l53.363-78.076l19.246,64.808l-11.883,140.041l24.64-90.688l17.569-23.62l37.689-92l10.206,66.266l18.371,49.353
			l22.453-119.993l17.204,96.374l-58.028,85.658l79.315-75.306l35.721-100.894l15.746,95.718l10.206,145.727l38.2-199.527
			l82.085-46.291l1.458,34.627l33.388-41.917l57.883,65.61l49.353-65.61l8.894,24.276l43.74-24.276l22.964,41.917l97.103-27.337
			L2215.8,190.02l87.99-15.819L2215.8,223.7l40.022,142.009c0,0,66.922-46.51,82.523-59.997
			c-13.195,22.162-59.632,139.385-59.632,139.385l-44.688,53.946l66.193-31.711l-21.505,156.225l-59.778,65.902l81.356-47.021
			l-16.038,137.417l57.299-27.265L2215.8,956.782l119.629-175.397l-51.322,205.87l16.038,103.226l48.333-83.689l-30.618,175.908
			l-102.133-48.041l84.418,85.074l-7.071,135.667l-23.328-74.577l-54.092,123.566l-119.046-54.821l32.222,54.821l-54.383,51.905
			v-51.905l-50.228-50.884l12.32,50.884l-47.823,30.545l-120.139-69.692c0,0-39.22,53.654-42.063,58.757
			c-2.843,5.103-21.943-39.147-21.943-39.147l-24.64,47.166l-33.753-66.776l-75.014,58.757l37.616-105.413l-111.1,111.974
			l-28.577-45.708l-70.494,71.442l-12.32-137.708l-34.336,97.54l-51.176-31.347v55.769l-24.057-55.769l-103.299,55.769
			l-15.746-46.948l-29.452,46.948l-31.055-36.231v36.231l-53.946-16.621l-56.425,24.057l-32.878-7.436l-37.616-55.769l-54.092,55.769
			l3.572-85.147l-66.412,68.526l-36.45-53.8l-120.868,86.168l-23.693-197.049l23.693-231.093l-65.756,47.239l104.976-276.145
			L711.217,583.461z"/>
		<polygon fill="#271014" points="1034.018,2753.038 1102.325,2753.038 1115.885,2740.499 1078.56,2507.001 	"/>
		<polygon fill="#2B1316" points="1245.865,2651.27 1330.356,2673.869 1341.218,2590.763 	"/>
		<polygon fill="#3F171E" points="1245.865,2651.27 1255.051,2753.038 1293.542,2753.038 1330.356,2673.869 	"/>
		<polygon fill="#3F171E" points="1386.854,2613.799 1504.514,2753.038 1545.922,2693.625 1438.03,2604.687 	"/>
	</g>
	

		<g class="rocks">

			<animateTransform
			    attributeName="transform"
			    attributeType="XML"
			    type="scale"
			    from="0.85"
			    to="1"
			    dur="3s"
			    begin="3s"
			    keySplines="0.230 1.0 0.320 1;"
			    values="0.85;1;"
			    calcMode="spline"/>

			<g class="rocks-content">

				<animateTransform
			    attributeName="transform"
			    attributeType="XML"
			    type="translate"
			    from="200 200"
			    to="0 0"
			    dur="3s"
			    begin="3s"
			    keySplines="0.230 1.0 0.320 1;"
			    values="250 170; 0 0;"
			    calcMode="spline"/>

				<polygon fill="#411422" points="810.4,1092.8 815.2,1090.6 814.4,1086.9 812.8,1085.1 811.1,1084.1 810.4,1089.5">
				  <animateTransform
				    attributeName="transform"
				    attributeType="XML"
				    type="translate"
				    from="0 15"
				    to="0 15"
				    dur="4.5s"
				    begin="0s"
				    keySplines="0.455 0.030 0.515 1; 0.455 0.030 0.515 1;"
				    values="0 15;0 -15;0 15"
				    calcMode="spline"
				    repeatCount="indefinite"/>
				</polygon>
				<polygon fill="#411422" points="867.9,1102.2 870.7,1103.9 873.6,1109.9 873.6,1112.4 866.1,1117.6 865.6,1108.5">
				  <animateTransform
				    attributeName="transform"
				    attributeType="XML"
				    type="translate"
				    from="0 15"
				    to="0 15"
				    dur="4.5s"
				    begin="0s"
				    keySplines="0.455 0.030 0.515 1; 0.455 0.030 0.515 1;"
				    values="0 15;0 -15;0 15"
				    calcMode="spline"
				    repeatCount="indefinite"/>
				</polygon>
				<polygon fill="#411422" points="984.9,853.8 989,858.5 991.1,858.5 996.2,852.8 995.2,850.8 989.1,849.3 987.6,853.3">
				  <animateTransform
				    attributeName="transform"
				    attributeType="XML"
				    type="translate"
				    from="0 15"
				    to="0 15"
				    dur="4.5s"
				    begin="0s"
				    keySplines="0.455 0.030 0.515 1; 0.455 0.030 0.515 1;"
				    values="0 15;0 -15;0 15"
				    calcMode="spline"
				    repeatCount="indefinite"/>
				</polygon>
				<path fill="#411422" d="M977.3,897.5c0,0,3.9-0.9,3.7-0.8s5.1-7.4,5.1-7.4l-2.2-3.7l-2.3-1.6c0,0-5.4,4.5-5.7,4.6 s-1.3,4.7-1.3,4.7L977.3,897.5z">
				  <animateTransform
				    attributeName="transform"
				    attributeType="XML"
				    type="translate"
				    from="0 15"
				    to="0 15"
				    dur="4.5s"
				    begin="0s"
				    keySplines="0.455 0.030 0.515 1; 0.455 0.030 0.515 1;"
				    values="0 15;0 -15;0 15"
				    calcMode="spline"
				    repeatCount="indefinite"/>
				</path>
				<g>
					<polygon fill="#411422" points="994.8,1060.3 996.6,1052 994.8,1047.2 984.3,1040.4 980.9,1041.8 980.9,1052"></polygon>
					<polygon fill="#D01B68" points="970.5,1049.8 970.5,1046.4 980.9,1041.8 986.7,1044.9 991.4,1054.4 991.4,1057.3 993.5,1056.7 994.8,1060.3 981.9,1062.2 978.6,1055.2 973.2,1053.4"></polygon>
					<animateTransform
					    attributeName="transform"
					    attributeType="XML"
					    type="translate"
					    from="0 25"
					    to="0 25"
					    dur="4.5s"
					    begin="0s"
					    keySplines="0.455 0.030 0.515 1; 0.455 0.030 0.515 1;"
					    values="0 25;0 -25;0 25"
					    calcMode="spline"
					    repeatCount="indefinite"/>
				</g>
				<polygon fill="#411422" points="967.3,1218.4 972.1,1218.4 973.8,1219.7 970.8,1226 967.3,1223">
				  <animateTransform
				    attributeName="transform"
				    attributeType="XML"
				    type="translate"
				    from="0 15"
				    to="0 15"
				    dur="4.5s"
				    begin="0s"
				    keySplines="0.455 0.030 0.515 1; 0.455 0.030 0.515 1;"
				    values="0 15;0 -15;0 15"
				    calcMode="spline"
				    repeatCount="indefinite"/>
				</polygon>
				<polygon fill="#411422" points="974.1,1268 978.8,1264.5 978.8,1256.5 974.1,1253.2 970.6,1260.6">
				  <animateTransform
				    attributeName="transform"
				    attributeType="XML"
				    type="translate"
				    from="0 15"
				    to="0 15"
				    dur="4.5s"
				    begin="0s"
				    keySplines="0.455 0.030 0.515 1; 0.455 0.030 0.515 1;"
				    values="0 15;0 -15;0 15"
				    calcMode="spline"
				    repeatCount="indefinite"/>
				</polygon>
				<polygon fill="#411422" points="1095.9,1414.5 1099.2,1416 1102.6,1421.5 1099.2,1426 1093.6,1423.2">
				  <animateTransform
				    attributeName="transform"
				    attributeType="XML"
				    type="translate"
				    from="0 15"
				    to="0 15"
				    dur="4.5s"
				    begin="0s"
				    keySplines="0.455 0.030 0.515 1; 0.455 0.030 0.515 1;"
				    values="0 15;0 -15;0 15"
				    calcMode="spline"
				    repeatCount="indefinite"/>
				</polygon>
				<polygon fill="#411422" points="1094.7,1441.6 1098.1,1440.2 1101.1,1444.2 1097.8,1448.7 1095.1,1445.8">
				  <animateTransform
				    attributeName="transform"
				    attributeType="XML"
				    type="translate"
				    from="0 15"
				    to="0 15"
				    dur="4.5s"
				    begin="0s"
				    keySplines="0.455 0.030 0.515 1; 0.455 0.030 0.515 1;"
				    values="0 15;0 -15;0 15"
				    calcMode="spline"
				    repeatCount="indefinite"/>
				</polygon>
				<polygon fill="#411422" points="1221.6,1342.2 1230.8,1340.7 1230.8,1335 1225.1,1330.9 1218.7,1330.9 1220.3,1337.7">
				  <animateTransform
				    attributeName="transform"
				    attributeType="XML"
				    type="translate"
				    from="0 15"
				    to="0 15"
				    dur="4.5s"
				    begin="0s"
				    keySplines="0.455 0.030 0.515 1; 0.455 0.030 0.515 1;"
				    values="0 15;0 -15;0 15"
				    calcMode="spline"
				    repeatCount="indefinite"/>
				</polygon>
				<polygon fill="#411422" points="1285.6,1365 1289.8,1363.2 1291.1,1354.6 1289.8,1353.2 1285.6,1354.6 1284,1359.8">
				  <animateTransform
				    attributeName="transform"
				    attributeType="XML"
				    type="translate"
				    from="0 15"
				    to="0 15"
				    dur="4.5s"
				    begin="0s"
				    keySplines="0.455 0.030 0.515 1; 0.455 0.030 0.515 1;"
				    values="0 15;0 -15;0 15"
				    calcMode="spline"
				    repeatCount="indefinite"/>
				</polygon>
				<polygon fill="#411422" points="1292.5,1404.6 1296.8,1401.7 1296.8,1393.2 1295.5,1390.6 1291.8,1390.6 1287.5,1397.6">
				  <animateTransform
				    attributeName="transform"
				    attributeType="XML"
				    type="translate"
				    from="0 15"
				    to="0 15"
				    dur="4.5s"
				    begin="0s"
				    keySplines="0.455 0.030 0.515 1; 0.455 0.030 0.515 1;"
				    values="0 15;0 -15;0 15"
				    calcMode="spline"
				    repeatCount="indefinite"/>
				</polygon>
				<polygon fill="#411422" points="1492.2,1441.2 1495.3,1438 1499.8,1438 1500.9,1441.3 1497.6,1444.5">
				  <animateTransform
				    attributeName="transform"
				    attributeType="XML"
				    type="translate"
				    from="0 15"
				    to="0 15"
				    dur="4.5s"
				    begin="0s"
				    keySplines="0.455 0.030 0.515 1; 0.455 0.030 0.515 1;"
				    values="0 15;0 -15;0 15"
				    calcMode="spline"
				    repeatCount="indefinite"/>
				</polygon>
				<polygon fill="#411422" points="1601.8,1370.2 1595.8,1366.5 1595.8,1360.8 1598.8,1357.5 1602.8,1348.5 1605.6,1348.5 1607.6,1351.5">
				  <animateTransform
				    attributeName="transform"
				    attributeType="XML"
				    type="translate"
				    from="0 15"
				    to="0 15"
				    dur="4.5s"
				    begin="0s"
				    keySplines="0.455 0.030 0.515 1; 0.455 0.030 0.515 1;"
				    values="0 15;0 -15;0 15"
				    calcMode="spline"
				    repeatCount="indefinite"/>
				</polygon>
				<polygon fill="#411422" points="1766.3,1360.8 1766.3,1357.5 1770.1,1356.7 1773.8,1362.2">
				  <animateTransform
				    attributeName="transform"
				    attributeType="XML"
				    type="translate"
				    from="0 15"
				    to="0 15"
				    dur="4.5s"
				    begin="0s"
				    keySplines="0.455 0.030 0.515 1; 0.455 0.030 0.515 1;"
				    values="0 15;0 -15;0 15"
				    calcMode="spline"
				    repeatCount="indefinite"/>
				</polygon>
				<polygon fill="#411422" points="1768.1,1444.2 1766.3,1440.5 1765.1,1436.7 1766.3,1434.2 1771.1,1436.7">
				  <animateTransform
				    attributeName="transform"
				    attributeType="XML"
				    type="translate"
				    from="0 15"
				    to="0 15"
				    dur="4.5s"
				    begin="0s"
				    keySplines="0.455 0.030 0.515 1; 0.455 0.030 0.515 1;"
				    values="0 15;0 -15;0 15"
				    calcMode="spline"
				    repeatCount="indefinite"/>
				</polygon>
				<polygon fill="#411422" points="1820,1348.4 1819.1,1341.7 1824.4,1341.5 1824.4,1346.2">
				  <animateTransform
				    attributeName="transform"
				    attributeType="XML"
				    type="translate"
				    from="0 15"
				    to="0 15"
				    dur="4.5s"
				    begin="0s"
				    keySplines="0.455 0.030 0.515 1; 0.455 0.030 0.515 1;"
				    values="0 15;0 -15;0 15"
				    calcMode="spline"
				    repeatCount="indefinite"/>
				</polygon>
				<g>
					<polygon fill="#411422" points="1874.1,1372.5 1872.8,1368.5 1875.3,1364.2 1874.1,1360.8 1883.8,1357.5 1884.8,1359.5 1880.6,1370.2"></polygon>
					<polygon fill="#D01B68" points="1876.6,1375 1874.1,1372.5 1880.1,1365.7 1878.6,1363 1883.8,1358.7 1883.8,1357.5 1887.1,1358.7 1884.6,1364.2 1885.1,1368.7"></polygon>
					 <animateTransform
					    attributeName="transform"
					    attributeType="XML"
					    type="translate"
					    from="0 25"
					    to="0 25"
					    dur="4.5s"
					    begin="0s"
					    keySplines="0.455 0.030 0.515 1; 0.455 0.030 0.515 1;"
					    values="0 25;0 -25;0 25"
					    calcMode="spline"
					    repeatCount="indefinite"/>
				</g>
				<polygon fill="#411422" points="2050.2,1340 2051.3,1330.6 2054.5,1330.6 2054.5,1337.5 2051.8,1341.7">
				  <animateTransform
				    attributeName="transform"
				    attributeType="XML"
				    type="translate"
				    from="0 15"
				    to="0 15"
				    dur="4.5s"
				    begin="0s"
				    keySplines="0.455 0.030 0.515 1; 0.455 0.030 0.515 1;"
				    values="0 15;0 -15;0 15"
				    calcMode="spline"
				    repeatCount="indefinite"/>
				</polygon>
				<polygon fill="#411422" points="2050.2,1258.1 2048.8,1254.2 2052.3,1251.7 2055.2,1251.7 2055.2,1255.8">
				  <animateTransform
				    attributeName="transform"
				    attributeType="XML"
				    type="translate"
				    from="0 15"
				    to="0 15"
				    dur="4.5s"
				    begin="0s"
				    keySplines="0.455 0.030 0.515 1; 0.455 0.030 0.515 1;"
				    values="0 15;0 -15;0 15"
				    calcMode="spline"
				    repeatCount="indefinite"/>
				</polygon>
				<polygon fill="#411422" points="1933.3,1069.3 1929.6,1064.4 1934.6,1056.4 1937.7,1059.2 1938.8,1062.8">
				  <animateTransform
				    attributeName="transform"
				    attributeType="XML"
				    type="translate"
				    from="0 15"
				    to="0 15"
				    dur="4.5s"
				    begin="0s"
				    keySplines="0.455 0.030 0.515 1; 0.455 0.030 0.515 1;"
				    values="0 15;0 -15;0 15"
				    calcMode="spline"
				    repeatCount="indefinite"/>
				</polygon>
				<g>
					<polygon fill="#411422" points="1933.3,1048.7 1929.6,1042.1 1927.5,1027.2 1925.3,1025.4 1925.3,1006.4 1927.5,996.9 1933.3,995.8 1936.3,1009.4"></polygon>
					<polygon fill="#D01B68" points="1933.3,1048.7 1937.7,1045.6 1937,1036.3 1937.7,1031.2 1940.7,1002.4 1933.3,995.8 1929.6,997.9 1931.7,1010.6 1929.6,1014.3 1931.7,1040.5"></polygon>
					<animateTransform
					    attributeName="transform"
					    attributeType="XML"
					    type="translate"
					    from="0 25"
					    to="0 25"
					    dur="4.5s"
					    begin="0s"
					    keySplines="0.455 0.030 0.515 1; 0.455 0.030 0.515 1;"
					    values="0 25;0 -25;0 25"
					    calcMode="spline"
					    repeatCount="indefinite"/>
				</g>
				<polygon fill="#411422" points="2142.8,1027.3 2141.6,1034.4 2144.1,1037.2 2151.1,1042.1 2154.4,1042.1 2151.9,1027.3">
				  <animateTransform
				    attributeName="transform"
				    attributeType="XML"
				    type="translate"
				    from="0 15"
				    to="0 15"
				    dur="4.5s"
				    begin="0s"
				    keySplines="0.455 0.030 0.515 1; 0.455 0.030 0.515 1;"
				    values="0 15;0 -15;0 15"
				    calcMode="spline"
				    repeatCount="indefinite"/>
				</polygon>
				<polygon fill="#411422" points="1927.5,958.8 1923.8,952.9 1923.8,938.2 1927.5,929.7 1929.6,933.7 1930.4,955.2">
				  <animateTransform
				    attributeName="transform"
				    attributeType="XML"
				    type="translate"
				    from="0 15"
				    to="0 15"
				    dur="4.5s"
				    begin="0s"
				    keySplines="0.455 0.030 0.515 1; 0.455 0.030 0.515 1;"
				    values="0 15;0 -15;0 15"
				    calcMode="spline"
				    repeatCount="indefinite"/>
				</polygon>
				<polygon fill="#411422" points="2152.3,892.1 2149.6,892.1 2145.8,886.4 2148,873.7 2144.6,872.4 2146.1,864.4 2150.5,861.1 2154.4,866.7">
				  <animateTransform
				    attributeName="transform"
				    attributeType="XML"
				    type="translate"
				    from="0 15"
				    to="0 15"
				    dur="4.5s"
				    begin="0s"
				    keySplines="0.455 0.030 0.515 1; 0.455 0.030 0.515 1;"
				    values="0 15;0 -15;0 15"
				    calcMode="spline"
				    repeatCount="indefinite"/>
				</polygon>
				<polygon fill="#411422" points="2305.5,959 2298.3,960.4 2298.3,964.4 2301.5,969.9 2307.2,966.9">
				  <animateTransform
				    attributeName="transform"
				    attributeType="XML"
				    type="translate"
				    from="0 15"
				    to="0 15"
				    dur="4.5s"
				    begin="0s"
				    keySplines="0.455 0.030 0.515 1; 0.455 0.030 0.515 1;"
				    values="0 15;0 -15;0 15"
				    calcMode="spline"
				    repeatCount="indefinite"/>
				</polygon>
				<polygon fill="#411422" points="1731.3,1009.4 1728,1011.6 1724.1,1009.4 1724.1,1002.9 1718.5,994 1722.9,986.3 1729,986.3 1731.3,997.9">
				  <animateTransform
				    attributeName="transform"
				    attributeType="XML"
				    type="translate"
				    from="0 15"
				    to="0 15"
				    dur="4.5s"
				    begin="0s"
				    keySplines="0.455 0.030 0.515 1; 0.455 0.030 0.515 1;"
				    values="0 15;0 -15;0 15"
				    calcMode="spline"
				    repeatCount="indefinite"/>
				</polygon>
				<polygon fill="#411422" points="1714.9,912.4 1715.8,904.9 1713.4,892.6 1717.4,890.9 1724.5,894.5 1722.9,901.3 1721,912.4 ">
				  <animateTransform
				    attributeName="transform"
				    attributeType="XML"
				    type="translate"
				    from="0 15"
				    to="0 15"
				    dur="4.5s"
				    begin="0s"
				    keySplines="0.455 0.030 0.515 1; 0.455 0.030 0.515 1;"
				    values="0 15;0 -15;0 15"
				    calcMode="spline"
				    repeatCount="indefinite"/>
				</polygon>
				<polygon fill="#411422" points="2059.2,742.4 2056.6,747 2056.6,752.7 2062.6,754.8 2065,747 2065,741">
				  <animateTransform
				    attributeName="transform"
				    attributeType="XML"
				    type="translate"
				    from="0 15"
				    to="0 15"
				    dur="4.5s"
				    begin="0s"
				    keySplines="0.455 0.030 0.515 1; 0.455 0.030 0.515 1;"
				    values="0 15;0 -15;0 15"
				    calcMode="spline"
				    repeatCount="indefinite"/>
				</polygon>
				<polygon fill="#411422" points="2065,781.5 2062.2,789.2 2063.9,791 2072.2,788.1 2069.3,781.5">
				  <animateTransform
				    attributeName="transform"
				    attributeType="XML"
				    type="translate"
				    from="0 15"
				    to="0 15"
				    dur="4.5s"
				    begin="0s"
				    keySplines="0.455 0.030 0.515 1; 0.455 0.030 0.515 1;"
				    values="0 15;0 -15;0 15"
				    calcMode="spline"
				    repeatCount="indefinite"/>
				</polygon>
				<polygon fill="#411422" points="1923.9,639.8 1921.2,635.6 1921.2,633.4 1925.3,631.4 1926.7,635.6">
				  <animateTransform
				    attributeName="transform"
				    attributeType="XML"
				    type="translate"
				    from="0 15"
				    to="0 15"
				    dur="4.5s"
				    begin="0s"
				    keySplines="0.455 0.030 0.515 1; 0.455 0.030 0.515 1;"
				    values="0 15;0 -15;0 15"
				    calcMode="spline"
				    repeatCount="indefinite"/>
				</polygon>
				<path fill="#411422" d="M1672.1,628.7c-1.4-1.1-3.5-1.7-3.5-1.7l1.8-3.3V620l1.3-1.3l3.6,5L1672.1,628.7z">
				  <animateTransform
				    attributeName="transform"
				    attributeType="XML"
				    type="translate"
				    from="0 15"
				    to="0 15"
				    dur="4.5s"
				    begin="0s"
				    keySplines="0.455 0.030 0.515 1; 0.455 0.030 0.515 1;"
				    values="0 15;0 -15;0 15"
				    calcMode="spline"
				    repeatCount="indefinite"/>
				</path>
				<polygon fill="#411422" points="1395.5,593.9 1402.2,593.9 1402.2,588.1 1398.1,584.6 1394.2,588.1">
				  <animateTransform
				    attributeName="transform"
				    attributeType="XML"
				    type="translate"
				    from="0 15"
				    to="0 15"
				    dur="4.5s"
				    begin="0s"
				    keySplines="0.455 0.030 0.515 1; 0.455 0.030 0.515 1;"
				    values="0 15;0 -15;0 15"
				    calcMode="spline"
				    repeatCount="indefinite"/>
				</polygon>
				<polygon fill="#411422" points="1255.2,628.8 1258.7,628.7 1264.2,618.7 1262.6,608.4 1259.7,606.4 1259.7,600 1254.2,596.7 1256.2,614.7">
				  <animateTransform
				    attributeName="transform"
				    attributeType="XML"
				    type="translate"
				    from="0 15"
				    to="0 15"
				    dur="4.5s"
				    begin="0s"
				    keySplines="0.455 0.030 0.515 1; 0.455 0.030 0.515 1;"
				    values="0 15;0 -15;0 15"
				    calcMode="spline"
				    repeatCount="indefinite"/>
				</polygon>
				<polygon fill="#411422" points="1255.8,646.9 1260,648.7 1261.9,652.3 1261.9,656 1255,657.7">
				  <animateTransform
				    attributeName="transform"
				    attributeType="XML"
				    type="translate"
				    from="0 15"
				    to="0 15"
				    dur="4.5s"
				    begin="0s"
				    keySplines="0.455 0.030 0.515 1; 0.455 0.030 0.515 1;"
				    values="0 15;0 -15;0 15"
				    calcMode="spline"
				    repeatCount="indefinite"/>
				</polygon>
				<polygon fill="#411422" points="1256.2,674 1259.2,674 1261.9,677 1260,680.7 1257.4,682.8">
				  <animateTransform
				    attributeName="transform"
				    attributeType="XML"
				    type="translate"
				    from="0 15"
				    to="0 15"
				    dur="4.5s"
				    begin="0s"
				    keySplines="0.455 0.030 0.515 1; 0.455 0.030 0.515 1;"
				    values="0 15;0 -15;0 15"
				    calcMode="spline"
				    repeatCount="indefinite"/>
				</polygon>
				<polygon fill="#411422" points="1138.9,1007.1 1141.3,1002.7 1147.6,1005.1 1150.6,1012.2 1142.2,1017.3">
				  <animateTransform
				    attributeName="transform"
				    attributeType="XML"
				    type="translate"
				    from="0 15"
				    to="0 15"
				    dur="4.5s"
				    begin="0s"
				    keySplines="0.455 0.030 0.515 1; 0.455 0.030 0.515 1;"
				    values="0 15;0 -15;0 15"
				    calcMode="spline"
				    repeatCount="indefinite"/>
				</polygon>
				<path fill="#D01B68" d="M1255.2,628.8c0,0,4-4.8,3.4-4.8s-1.7-24.6-1.7-24.8c0.1-0.2-2.7-2.6-2.7-2.6l-5.2,6.3l3,9.7l0.2,11.1 L1255.2,628.8z">
				  <animateTransform
				    attributeName="transform"
				    attributeType="XML"
				    type="translate"
				    from="0 15"
				    to="0 15"
				    dur="4.5s"
				    begin="0s"
				    keySplines="0.455 0.030 0.515 1; 0.455 0.030 0.515 1;"
				    values="0 15;0 -15;0 15"
				    calcMode="spline"
				    repeatCount="indefinite"/>
				</path>
				<polygon fill="#D01B68" points="1255.8,646.9 1258.7,649.6 1258.7,653.2 1260,655.2 1255,657.7 1252.5,652.3">
				  <animateTransform
				    attributeName="transform"
				    attributeType="XML"
				    type="translate"
				    from="0 15"
				    to="0 15"
				    dur="4.5s"
				    begin="0s"
				    keySplines="0.455 0.030 0.515 1; 0.455 0.030 0.515 1;"
				    values="0 15;0 -15;0 15"
				    calcMode="spline"
				    repeatCount="indefinite"/>
				</polygon>
				<polygon fill="#D01B68" points="1256.2,674 1258.7,678.6 1257.4,682.8 1253.9,679.4">
				  <animateTransform
				    attributeName="transform"
				    attributeType="XML"
				    type="translate"
				    from="0 15"
				    to="0 15"
				    dur="4.5s"
				    begin="0s"
				    keySplines="0.455 0.030 0.515 1; 0.455 0.030 0.515 1;"
				    values="0 15;0 -15;0 15"
				    calcMode="spline"
				    repeatCount="indefinite"/>
				</polygon>
				<polygon fill="#D01B68" points="1388.1,589.5 1390.7,586.4 1390.7,582.3 1398.1,584.6 1396.7,589.5 1398.1,592.5 1395.5,593.9 ">
				  <animateTransform
				    attributeName="transform"
				    attributeType="XML"
				    type="translate"
				    from="0 15"
				    to="0 15"
				    dur="4.5s"
				    begin="0s"
				    keySplines="0.455 0.030 0.515 1; 0.455 0.030 0.515 1;"
				    values="0 15;0 -15;0 15"
				    calcMode="spline"
				    repeatCount="indefinite"/>
				</polygon>
				<polygon fill="#D01B68" points="1138.9,1007.1 1142.7,1007.4 1145.6,1010.5 1143.5,1015.1 1142.2,1017.3 1138.5,1015.1 1138.9,1011.4 1137.1,1010">
				  <animateTransform
				    attributeName="transform"
				    attributeType="XML"
				    type="translate"
				    from="0 15"
				    to="0 15"
				    dur="4.5s"
				    begin="0s"
				    keySplines="0.455 0.030 0.515 1; 0.455 0.030 0.515 1;"
				    values="0 15;0 -15;0 15"
				    calcMode="spline"
				    repeatCount="indefinite"/>
				</polygon>
				<polygon fill="#D01B68" points="989.1,849.3 993.1,851.1 988.4,856.2 984.9,853.8">
				  <animateTransform
				    attributeName="transform"
				    attributeType="XML"
				    type="translate"
				    from="0 15"
				    to="0 15"
				    dur="4.5s"
				    begin="0s"
				    keySplines="0.455 0.030 0.515 1; 0.455 0.030 0.515 1;"
				    values="0 15;0 -15;0 15"
				    calcMode="spline"
				    repeatCount="indefinite"/>
				</polygon>
				<polygon fill="#D01B68" points="981.6,884.1 984.3,887.4 980,890.5 977.5,890 976.7,893.8 979.8,896.2 977.3,897.5 971.5,894.5 973.6,887.2">
				  <animateTransform
				    attributeName="transform"
				    attributeType="XML"
				    type="translate"
				    from="0 15"
				    to="0 15"
				    dur="4.5s"
				    begin="0s"
				    keySplines="0.455 0.030 0.515 1; 0.455 0.030 0.515 1;"
				    values="0 15;0 -15;0 15"
				    calcMode="spline"
				    repeatCount="indefinite"/>
				</polygon>
				<polygon fill="#D01B68" points="811.1,1084.1 812.1,1089 813.3,1090.8 810.4,1092.8 807.6,1089.7 809.6,1084.8">
				  <animateTransform
				    attributeName="transform"
				    attributeType="XML"
				    type="translate"
				    from="0 15"
				    to="0 15"
				    dur="4.5s"
				    begin="0s"
				    keySplines="0.455 0.030 0.515 1; 0.455 0.030 0.515 1;"
				    values="0 15;0 -15;0 15"
				    calcMode="spline"
				    repeatCount="indefinite"/>
				</polygon>
				<polygon fill="#D01B68" points="867.9,1102.2 867.9,1107 871.8,1111.2 866.1,1117.6 862.5,1114.9 861.6,1108.2 865.6,1103">
				  <animateTransform
				    attributeName="transform"
				    attributeType="XML"
				    type="translate"
				    from="0 15"
				    to="0 15"
				    dur="4.5s"
				    begin="0s"
				    keySplines="0.455 0.030 0.515 1; 0.455 0.030 0.515 1;"
				    values="0 15;0 -15;0 15"
				    calcMode="spline"
				    repeatCount="indefinite"/>
				</polygon>
				<polygon fill="#D01B68" points="967.3,1218.4 970.2,1219 969.7,1224.2 970.8,1226 968.5,1227.6 964.6,1224.2 965,1220.4">
				  <animateTransform
				    attributeName="transform"
				    attributeType="XML"
				    type="translate"
				    from="0 15"
				    to="0 15"
				    dur="4.5s"
				    begin="0s"
				    keySplines="0.455 0.030 0.515 1; 0.455 0.030 0.515 1;"
				    values="0 15;0 -15;0 15"
				    calcMode="spline"
				    repeatCount="indefinite"/>
				</polygon>
				<polygon fill="#D01B68" points="974.1,1253.2 977.5,1256 972,1260.6 974.3,1264.4 976.6,1265.2 974.1,1268 968.7,1267.2 967,1261.7 968.2,1256.7">
				  <animateTransform
				    attributeName="transform"
				    attributeType="XML"
				    type="translate"
				    from="0 15"
				    to="0 15"
				    dur="4.5s"
				    begin="0s"
				    keySplines="0.455 0.030 0.515 1; 0.455 0.030 0.515 1;"
				    values="0 15;0 -15;0 15"
				    calcMode="spline"
				    repeatCount="indefinite"/>
				</polygon>
				<polygon fill="#D01B68" points="1095.9,1414.5 1097.3,1416.8 1096.6,1421.4 1098.7,1422.7 1099.2,1426 1092.4,1426.3 1091,1421.4 1093.9,1415.2">
				  <animateTransform
				    attributeName="transform"
				    attributeType="XML"
				    type="translate"
				    from="0 15"
				    to="0 15"
				    dur="4.5s"
				    begin="0s"
				    keySplines="0.455 0.030 0.515 1; 0.455 0.030 0.515 1;"
				    values="0 15;0 -15;0 15"
				    calcMode="spline"
				    repeatCount="indefinite"/>
				</polygon>
				<polygon fill="#D01B68" points="1096.5,1441.6 1099.2,1444.7 1097.8,1448.7 1095.6,1450.1 1092.2,1445.8 1094.7,1441.6">
				  <animateTransform
				    attributeName="transform"
				    attributeType="XML"
				    type="translate"
				    from="0 15"
				    to="0 15"
				    dur="4.5s"
				    begin="0s"
				    keySplines="0.455 0.030 0.515 1; 0.455 0.030 0.515 1;"
				    values="0 15;0 -15;0 15"
				    calcMode="spline"
				    repeatCount="indefinite"/>
				</polygon>
				<g>
					<path fill="#411422" d="M1406.5,1005.1l3.7,4.9l4.4,14.4l5.5,4.3l-6.8,13.1l-6.1,1.9c0,0-12.1-20.6-12.1-19.3 S1406.5,1005.1,1406.5,1005.1z"></path>
					<polygon fill="#D01B68" points="1388.8,1018.9 1402.9,1005.7 1406.5,1005.1 1410.2,1026.2 1405.4,1036.1 1407.1,1043.7 1398.5,1042.7"></polygon>
					<animateTransform
		          attributeName="transform"
		          attributeType="XML"
		          type="translate"
		          from="0 35"
		          to="0 35"
		          dur="4.5s"
		          begin="0s"
		          keySplines="0.455 0.030 0.515 1; 0.455 0.030 0.515 1;"
		          values="0 35;0 -35;0 35"
		          calcMode="spline"
		          repeatCount="indefinite"/>
	    	</g>
				<path fill="#D01B68" d="M1446.7,996l3,2.1c0,0,0.4,4.5,0,4.6s-3.2-0.1-3.5,0s-1-4.4-1-4.4L1446.7,996z">
				  <animateTransform
				    attributeName="transform"
				    attributeType="XML"
				    type="translate"
				    from="0 15"
				    to="0 15"
				    dur="4.5s"
				    begin="0s"
				    keySplines="0.455 0.030 0.515 1; 0.455 0.030 0.515 1;"
				    values="0 15;0 -15;0 15"
				    calcMode="spline"
				    repeatCount="indefinite"/>
				</path>

				<g>
					<polygon fill="#411422" points="1180.1,1329.3 1185.8,1329.3 1193.3,1339 1195.3,1344.5 1195.3,1349.8 1183.1,1347.5"></polygon>
					<polygon fill="#D01B68" points="1168.8,1339 1168.8,1334.5 1180.1,1329.3 1185.1,1332.9 1189.4,1343.8 1188.4,1346.2 1191.5,1347.6 1193.9,1348 1195.3,1349.8 1181.3,1352 1176.8,1344.5 1171.7,1342.4"></polygon>
					<animateTransform
					    attributeName="transform"
					    attributeType="XML"
					    type="translate"
					    from="0 25"
					    to="0 25"
					    dur="4.5s"
					    begin="0s"
					    keySplines="0.455 0.030 0.515 1; 0.455 0.030 0.515 1;"
					    values="0 25;0 -25;0 25"
					    calcMode="spline"
					    repeatCount="indefinite"/>
				</g>

				<polygon fill="#D01B68" points="1218.7,1330.9 1222.7,1330.9 1227.4,1333.8 1227.4,1335.4 1223.8,1337.7 1226.1,1340.7 1221.6,1342.2 1216,1336.5 1217.9,1332.4">
				  <animateTransform
				    attributeName="transform"
				    attributeType="XML"
				    type="translate"
				    from="0 15"
				    to="0 15"
				    dur="4.5s"
				    begin="0s"
				    keySplines="0.455 0.030 0.515 1; 0.455 0.030 0.515 1;"
				    values="0 15;0 -15;0 15"
				    calcMode="spline"
				    repeatCount="indefinite"/>
				</polygon>
				<polygon fill="#D01B68" points="1285.6,1354.6 1287.9,1356.5 1285.6,1360.1 1287.9,1363.4 1285.6,1365 1281.6,1361.4 1281.6,1357.7">
				  <animateTransform
				    attributeName="transform"
				    attributeType="XML"
				    type="translate"
				    from="0 15"
				    to="0 15"
				    dur="4.5s"
				    begin="0s"
				    keySplines="0.455 0.030 0.515 1; 0.455 0.030 0.515 1;"
				    values="0 15;0 -15;0 15"
				    calcMode="spline"
				    repeatCount="indefinite"/>
				</polygon>
				<polygon fill="#D01B68" points="1291.8,1390.6 1295.5,1392.9 1292.4,1396.8 1289.6,1397.4 1290.5,1400.4 1293.4,1402.9 1292.5,1404.6 1287,1404.6 1284,1396.8">
				  <animateTransform
				    attributeName="transform"
				    attributeType="XML"
				    type="translate"
				    from="0 15"
				    to="0 15"
				    dur="4.5s"
				    begin="0s"
				    keySplines="0.455 0.030 0.515 1; 0.455 0.030 0.515 1;"
				    values="0 15;0 -15;0 15"
				    calcMode="spline"
				    repeatCount="indefinite"/>
				</polygon>
				<polygon fill="#D01B68" points="1671.6,618.7 1673.1,618.7 1675.6,624.7 1672.1,628.7 1670.7,627.6 1672.6,623">
				  <animateTransform
				    attributeName="transform"
				    attributeType="XML"
				    type="translate"
				    from="0 15"
				    to="0 15"
				    dur="4.5s"
				    begin="0s"
				    keySplines="0.455 0.030 0.515 1; 0.455 0.030 0.515 1;"
				    values="0 15;0 -15;0 15"
				    calcMode="spline"
				    repeatCount="indefinite"/>
				</polygon>
				<path fill="#D01B68" d="M1717.9,917.2c0.3,0.1,4-1.4,4-1.4l2.7-5.3l-1.4-2.5l2.2-1.1c0,0-0.6-12.2-0.9-12.3s-3.2-1.9-3.2-1.9 l-2.3,1.7l0.8,9.3l-1.4,2.9l1.1,2c0,0-1.6,3.3-1.7,3.4s-3,0.4-3,0.4L1717.9,917.2z">
				  <animateTransform
				    attributeName="transform"
				    attributeType="XML"
				    type="translate"
				    from="0 15"
				    to="0 15"
				    dur="4.5s"
				    begin="0s"
				    keySplines="0.455 0.030 0.515 1; 0.455 0.030 0.515 1;"
				    values="0 15;0 -15;0 15"
				    calcMode="spline"
				    repeatCount="indefinite"/>
				</path>
				<path fill="#D01B68" d="M1726.5,989.8c0,0,2.3-3.4,2.5-3.5s3.5,2.1,3.5,2.1l0.6,5.1l2,5l-3.9,10.8l-0.8-3.9v-4.2l-4.3-2.6 l1.5-5.8h-2.9l-0.7-2L1726.5,989.8z">
				  <animateTransform
				    attributeName="transform"
				    attributeType="XML"
				    type="translate"
				    from="0 15"
				    to="0 15"
				    dur="4.5s"
				    begin="0s"
				    keySplines="0.455 0.030 0.515 1; 0.455 0.030 0.515 1;"
				    values="0 15;0 -15;0 15"
				    calcMode="spline"
				    repeatCount="indefinite"/>
				</path>
				<path fill="#D01B68" d="M1492.8,1446.6l4.3,1.7l3.2-1.9l0.6-5.1l-3.3,0.5l-3.1-1c0,0-2.2,0.3-2.3,0.4L1492.8,1446.6z">
				  <animateTransform
				    attributeName="transform"
				    attributeType="XML"
				    type="translate"
				    from="0 15"
				    to="0 15"
				    dur="4.5s"
				    begin="0s"
				    keySplines="0.455 0.030 0.515 1; 0.455 0.030 0.515 1;"
				    values="0 15;0 -15;0 15"
				    calcMode="spline"
				    repeatCount="indefinite"/>
				</path>
				<polygon fill="#D01B68" points="1598.1,1366.5 1601.8,1370.2 1606.1,1370.2 1606.1,1359.7 1607.6,1354.7 1607.6,1351.5 1604.1,1351.5 1602.8,1356.5 1602.8,1360.8 1598.1,1363">
				  <animateTransform
				    attributeName="transform"
				    attributeType="XML"
				    type="translate"
				    from="0 15"
				    to="0 15"
				    dur="4.5s"
				    begin="0s"
				    keySplines="0.455 0.030 0.515 1; 0.455 0.030 0.515 1;"
				    values="0 15;0 -15;0 15"
				    calcMode="spline"
				    repeatCount="indefinite"/>
				</polygon>
				<polygon fill="#D01B68" points="1766.3,1360.8 1767.6,1358.7 1771.6,1358.7 1773.8,1362.2 1770.1,1364.2 1767.8,1364.2">
				  <animateTransform
				    attributeName="transform"
				    attributeType="XML"
				    type="translate"
				    from="0 15"
				    to="0 15"
				    dur="4.5s"
				    begin="0s"
				    keySplines="0.455 0.030 0.515 1; 0.455 0.030 0.515 1;"
				    values="0 15;0 -15;0 15"
				    calcMode="spline"
				    repeatCount="indefinite"/>
				</polygon>
				<polygon fill="#D01B68" points="1768.1,1436.7 1771.1,1436.7 1772.6,1438.7 1772.6,1442 1768.1,1444.2 1766.3,1438.5 1766.3,1436.7">
				  <animateTransform
				    attributeName="transform"
				    attributeType="XML"
				    type="translate"
				    from="0 15"
				    to="0 15"
				    dur="4.5s"
				    begin="0s"
				    keySplines="0.455 0.030 0.515 1; 0.455 0.030 0.515 1;"
				    values="0 15;0 -15;0 15"
				    calcMode="spline"
				    repeatCount="indefinite"/>
				</polygon>
				<path fill="#D01B68" d="M2052.6,1330.8l1.9-0.2l1.9,6.5c0,0-1.6,2.1-1.9,2.2s-2.6,2.3-2.7,2.4c-0.1,0-1.6-1.7-1.6-1.7l1.1-1.1 h1.5l0.3-3l-1.1-0.5L2052.6,1330.8z">
				  <animateTransform
				    attributeName="transform"
				    attributeType="XML"
				    type="translate"
				    from="0 15"
				    to="0 15"
				    dur="4.5s"
				    begin="0s"
				    keySplines="0.455 0.030 0.515 1; 0.455 0.030 0.515 1;"
				    values="0 15;0 -15;0 15"
				    calcMode="spline"
				    repeatCount="indefinite"/>
				</path>
				<path fill="#D01B68" d="M2051.9,1259.9c0,0,4.8-1.7,4.7-1.7s0-4.6,0-4.6l-1.4-1.9l-1.2,0.6l-1.2,3.8l-2.7,2L2051.9,1259.9z">
				  <animateTransform
				    attributeName="transform"
				    attributeType="XML"
				    type="translate"
				    from="0 15"
				    to="0 15"
				    dur="4.5s"
				    begin="0s"
				    keySplines="0.455 0.030 0.515 1; 0.455 0.030 0.515 1;"
				    values="0 15;0 -15;0 15"
				    calcMode="spline"
				    repeatCount="indefinite"/>
				</path>
				<polygon fill="#D01B68" points="1933.3,1069.3 1935.9,1069.3 1942,1061.9 1937.7,1056.4 1934.6,1056.4 1937.7,1062.8">
				  <animateTransform
				    attributeName="transform"
				    attributeType="XML"
				    type="translate"
				    from="0 15"
				    to="0 15"
				    dur="4.5s"
				    begin="0s"
				    keySplines="0.455 0.030 0.515 1; 0.455 0.030 0.515 1;"
				    values="0 15;0 -15;0 15"
				    calcMode="spline"
				    repeatCount="indefinite"/>
				</polygon>
				<polygon fill="#D01B68" points="1927.5,958.8 1930.6,960.6 1933.3,957.2 1932.2,943.7 1933.3,938.1 1930.4,937.1 1929.6,931.8 1927.5,929.7 1929.6,948.4">
				  <animateTransform
				    attributeName="transform"
				    attributeType="XML"
				    type="translate"
				    from="0 15"
				    to="0 15"
				    dur="4.5s"
				    begin="0s"
				    keySplines="0.455 0.030 0.515 1; 0.455 0.030 0.515 1;"
				    values="0 15;0 -15;0 15"
				    calcMode="spline"
				    repeatCount="indefinite"/>
				</polygon>
				<polygon fill="#D01B68" points="2142.8,1027.3 2144.1,1030.4 2147.5,1030.4 2147.5,1036 2154.4,1042.1 2161.1,1030.1 2159.5,1025.9 2156.5,1025.9 2155,1022.2">
				  <animateTransform
				    attributeName="transform"
				    attributeType="XML"
				    type="translate"
				    from="0 15"
				    to="0 15"
				    dur="4.5s"
				    begin="0s"
				    keySplines="0.455 0.030 0.515 1; 0.455 0.030 0.515 1;"
				    values="0 15;0 -15;0 15"
				    calcMode="spline"
				    repeatCount="indefinite"/>
				</polygon>
				<polygon fill="#D01B68" points="2301.5,961.1 2305.5,959 2312.9,965.1 2310.5,969.6 2310.5,972.5 2301.5,969.9 2304.7,965.8 ">
				  <animateTransform
				    attributeName="transform"
				    attributeType="XML"
				    type="translate"
				    from="0 15"
				    to="0 15"
				    dur="4.5s"
				    begin="0s"
				    keySplines="0.455 0.030 0.515 1; 0.455 0.030 0.515 1;"
				    values="0 15;0 -15;0 15"
				    calcMode="spline"
				    repeatCount="indefinite"/>
				</polygon>
				<polygon fill="#D01B68" points="2150.5,861.1 2156.3,865.6 2156.3,873.6 2158.1,876.8 2158.1,881.2 2159.7,883.9 2152.3,892.1 2150.5,884.2 2150.5,874.1 2151.8,865.6">
				  <animateTransform
				    attributeName="transform"
				    attributeType="XML"
				    type="translate"
				    from="0 15"
				    to="0 15"
				    dur="4.5s"
				    begin="0s"
				    keySplines="0.455 0.030 0.515 1; 0.455 0.030 0.515 1;"
				    values="0 15;0 -15;0 15"
				    calcMode="spline"
				    repeatCount="indefinite"/>
				</polygon>
				<polygon fill="#D01B68" points="2066.6,789.2 2069.3,783.6 2065,781.5 2069.3,781.5 2072.2,785.4 2072.2,788.1">
				  <animateTransform
				    attributeName="transform"
				    attributeType="XML"
				    type="translate"
				    from="0 15"
				    to="0 15"
				    dur="4.5s"
				    begin="0s"
				    keySplines="0.455 0.030 0.515 1; 0.455 0.030 0.515 1;"
				    values="0 15;0 -15;0 15"
				    calcMode="spline"
				    repeatCount="indefinite"/>
				</polygon>
				<polygon fill="#D01B68" points="2059.2,742.4 2062.6,742.4 2062.6,747.7 2059.2,752.2 2062.6,754.8 2068.6,748.6 2066.3,744.5 2067.4,739.2 2063.9,739.2">
				  <animateTransform
				    attributeName="transform"
				    attributeType="XML"
				    type="translate"
				    from="0 15"
				    to="0 15"
				    dur="4.5s"
				    begin="0s"
				    keySplines="0.455 0.030 0.515 1; 0.455 0.030 0.515 1;"
				    values="0 15;0 -15;0 15"
				    calcMode="spline"
				    repeatCount="indefinite"/>
				</polygon>
				<polygon fill="#D01B68" points="1925.3,631.4 1928.9,635.6 1929.5,638.1 1926.5,639.8 1923.9,639.8 1925.3,636.3 1923.9,633.3 ">
				  <animateTransform
				    attributeName="transform"
				    attributeType="XML"
				    type="translate"
				    from="0 15"
				    to="0 15"
				    dur="4.5s"
				    begin="0s"
				    keySplines="0.455 0.030 0.515 1; 0.455 0.030 0.515 1;"
				    values="0 15;0 -15;0 15"
				    calcMode="spline"
				    repeatCount="indefinite"/>
				</polygon>
				<path fill="#D01B68" d="M1820.4,1347l1.6-1.9l-0.8-2.4l3.2-1.2c0,0,2.6,4.7,2.4,4.7c-0.3,0.1-3.7,3.1-4,3.2s-2.8-1-2.8-1 L1820.4,1347z">
				  <animateTransform
				    attributeName="transform"
				    attributeType="XML"
				    type="translate"
				    from="0 15"
				    to="0 15"
				    dur="4.5s"
				    begin="0s"
				    keySplines="0.455 0.030 0.515 1; 0.455 0.030 0.515 1;"
				    values="0 15;0 -15;0 15"
				    calcMode="spline"
				    repeatCount="indefinite"/>
				</path>
			</g>
		</g>

		<g class="slabs">

			<g class="slab">

				<defs>
	      	<radialGradient id="grad1" cx="65%" cy="50%" r="50%" fx="65%" fy="50%">
			      <stop offset="50%" stop-color="white"></stop>
	          <stop offset="100%" stop-color="black"></stop>
			    </radialGradient>
	        <mask id="slab-mask">
	          <path d="M1051.1,754.7 1155.1,732.2 1161.1,724.2 1215.6,705.7 1222.1,711.2 1210.6,989.2 1159.6,995.2 1152.1,973.2 1104.1,975.7" fill="url(#grad1)"/>
	        </mask>
	      </defs>

				<!-- shape -->

				<path class="slab-shadow" fill="#411422" d="M1222.1,711.2l21.8,21.5l2.7,8.5l8.5,11.5l-6,105.8l-23,8.7v89.5l-8,28.5l-7.5,4c0,0-74.9-195.5-71.7-199 C1142.1,786.7,1222.1,711.2,1222.1,711.2z"/>
				<path class="slab-face" d="M1051.1,754.7 1155.1,732.2 1161.1,724.2 1215.6,705.7 1222.1,711.2 1210.6,989.2 1159.6,995.2 1152.1,973.2 1104.1,975.7 1051.1,754.7"/>

				<!-- image -->

	      <image class="slab-thumb" xlink:href="" x="1040" y="700" height="300px" width="200px" mask="url(#slab-mask)"/>

				<!-- animation -->

				<animateTransform 
					attributeName="transform"
	        attributeType="XML"
          type="translate"
          from="0 -30"
					to="0 -30"
          dur="5s"
          keySplines="
            0.455 0.030 0.515 1;  
            0.455 0.030 0.515 1;"
          values="0 -30;0 -5;0 -30"
          calcMode="spline"
          repeatCount="indefinite"/>

			</g>

			<g class="slab">

				<defs>
	      	<radialGradient id="grad1" cx="53%" cy="50%" r="50%" fx="50%" fy="50%">
			      <stop offset="50%" stop-color="white"></stop>
	          <stop offset="100%" stop-color="black"></stop>
			    </radialGradient>
	        <mask id="slab-mask">
	          <path d="M1280.6,750.7 1302.6,717.7 1315.6,666.7 1389.1,657.7 1410.1,681.7 1420.6,680.2 1452.6,704.2 1432.6,921.2 1413.1,927.2 1407.6,934.2 1348.6,942.7 1314.6,886.7 1303.6,883.7" fill="url(#grad1)"/>
	        </mask>
	      </defs>

	      <!-- shape -->

				<path fill="#411422" d="M1452.6,704.2 1466.1,722.7 1449.9,852.8 1445.3,860.7 1441.1,917.2 1430.3,921.9 1434.6,721.7 1452.6,704.2"/>
				<path class="slab-face" d="M1280.6,750.7 1302.6,717.7 1315.6,666.7 1389.1,657.7 1410.1,681.7 1420.6,680.2 1452.6,704.2 1432.6,921.2 1413.1,927.2 1407.6,934.2 1348.6,942.7 1314.6,886.7 1303.6,883.7 1280.6,750.7"/>


				<!-- image -->

	      <image class="slab-thumb" xlink:href="" x="1270" y="650" height="300px" width="200px" mask="url(#slab-mask)"/>

	      <!-- animation -->

				<animateTransform attributeName="transform"
	                          attributeType="XML"
	                          type="translate"
	                          from="0 10"
	        									to="0 10"
	                          dur="4.5s"
	                          begin="0.3s"
	                          keySplines="
									            0.455 0.030 0.515 1;  
									            0.455 0.030 0.515 1;"
	                          values="0 10;0 -20;0 10"
	                          calcMode="spline"
	                          repeatCount="indefinite"/>


			</g>

			<g class="slab">

				<defs>
	      	<radialGradient id="grad1" cx="53%" cy="50%" r="50%" fx="50%" fy="50%">
			      <stop offset="50%" stop-color="white"></stop>
	          <stop offset="100%" stop-color="black"></stop>
			    </radialGradient>
	        <mask id="slab-mask">
	          <path d="M1536.1,685.7 1540.1,682.2 1556.1,682.2 1568.6,668.2 1699.6,694.2 1671.1,890.2 1658.6,893.2 1647.6,946.7 1576.1,946.7 1556.6,875.2 1546.6,865.7" fill="url(#grad1)"/>
	        </mask>
	      </defs>

	      <!-- shape -->

				<path class="slab-shadow" fill="#411422" d="M1536.1,685.7l-18.5,20l12.5,158l6,6l18,64l22,13c0,0,26.5-56.6,21-54.1s-19-185.9-23-188.4 S1536.1,685.7,1536.1,685.7z"/>
				<path class="slab-face" d="M1536.1,685.7 1540.1,682.2 1556.1,682.2 1568.6,668.2 1699.6,694.2 1671.1,890.2 1658.6,893.2 1647.6,946.7 1576.1,946.7 1556.6,875.2 1546.6,865.7 1536.1,685.7"/>

				<!-- image -->

				<image class="slab-thumb" xlink:href="" x="1515" y="660" height="300px" width="200px" mask="url(#slab-mask)"/>

				<!-- animation -->

				<animateTransform attributeName="transform"
	                          attributeType="XML"
	                          type="translate"
	                          from="0 -5"
	        									to="0 -5"
	                          dur="4s"
	                          begin="0s"
	                          keySplines="
									            0.455 0.030 0.515 1;  
									            0.455 0.030 0.515 1;"
	                          values="0 -5;0 10;0 -5"
	                          calcMode="spline"
	                          repeatCount="indefinite"/>

	                          
			</g>

			<g class="slab">

				<defs>
	      	<radialGradient id="grad1" cx="50%" cy="50%" r="50%" fx="50%" fy="50%">
			      <stop offset="50%" stop-color="white"></stop>
	          <stop offset="100%" stop-color="black"></stop>
			    </radialGradient>
	        <mask id="slab-mask">
	          <path d="M1781.1,736.7 1824.6,732.2 1837.6,710.2 1929.1,725.7 1932.1,739.2 1945.6,747.7 1889.1,979.7 1844.6,977.2 1841.6,962.2 1792.1,952.7" fill="url(#grad1)"/>
	        </mask>
	      </defs>

	      <!-- shape -->

				<path fill="#411422" d="M1781.1,736.7l-32.5,24.5l11,76l14,7.8l4.5,97.8l14,10c0,0,39-41,37-43.5S1781.1,736.7,1781.1,736.7z"/>
				<path class="slab-face" d="M1781.1,736.7 1824.6,732.2 1837.6,710.2 1929.1,725.7 1932.1,739.2 1945.6,747.7 1889.1,979.7 1844.6,977.2 1841.6,962.2 1792.1,952.7 1781.1,736.7"/>

				<!-- image -->

				<image class="slab-thumb" xlink:href="" x="1760" y="695" height="300px" width="200px" mask="url(#slab-mask)"/>

				<!-- animation -->

				<animateTransform attributeName="transform"
	                          attributeType="XML"
	                          type="translate"
	                          from="0 10"
	        									to="0 10"
	                          dur="4s"
	                          begin="0.2s"
	                          keySplines="
									            0.455 0.030 0.515 1;  
									            0.455 0.030 0.515 1;"
	                          values="0 10;0 -10;0 10"
	                          calcMode="spline"
	                          repeatCount="indefinite"/>

	                          
			</g>

			<g class="slab">

				<defs>
	      	<radialGradient id="grad1" cx="50%" cy="50%" r="50%" fx="50%" fy="50%">
			      <stop offset="50%" stop-color="white"></stop>
	          <stop offset="100%" stop-color="black"></stop>
			    </radialGradient>
	        <mask id="slab-mask">
	          <path d="M1099.6,1062.7 1190.6,1055.2 1226.1,1062.7 1217.1,1285.7 1177.6,1295.2 1174.1,1289.2 1088.1,1267.7 1091.1,1170.7 1103.6,1154.2" fill="url(#grad1)"/>
	        </mask>
	      </defs>

	      <!-- shape -->

				<polygon fill="#411422" points="1099.6,1062.7 1119.6,1048.7 1205.1,1045.7 1244.1,1055.2 1239.1,1270.2 1217.1,1285.7"/>
				<path class="slab-face" fill="#D01B68" d="M1099.6,1062.7 1190.6,1055.2 1226.1,1062.7 1217.1,1285.7 1177.6,1295.2 1174.1,1289.2 1088.1,1267.7 1091.1,1170.7 1103.6,1154.2 1099.6,1062.7"/>

				<!-- image -->

				<image class="slab-thumb" xlink:href="" x="1065" y="1025" height="300px" width="200px" mask="url(#slab-mask)"/>

				<!-- animation -->

				<animateTransform attributeName="transform"
	                          attributeType="XML"
	                          type="translate"
	                          from="0 -5"
	        									to="0 -5"
	                          dur="4s"
	                          begin="0.3s"
	                          keySplines="
									            0.455 0.030 0.515 1;  
									            0.455 0.030 0.515 1;"
	                          values="0 -5;0 10;0 -5"
	                          calcMode="spline"
	                          repeatCount="indefinite"/>

	                          
			</g>

			<g class="slab">

				<defs>
	      	<radialGradient id="grad1" cx="50%" cy="50%" r="50%" fx="50%" fy="50%">
			      <stop offset="50%" stop-color="white"></stop>
	          <stop offset="100%" stop-color="black"></stop>
			    </radialGradient>
	        <mask id="slab-mask">
	          <path d="M1308.1,1091.7 1435.6,1094.7 1452.6,1099.2 1436.1,1326.2 1386.6,1337.7 1380.3,1327.2 1312.1,1329.7 1305.1,1256.7 1285.6,1137.7 1308.6,1106.2" fill="url(#grad1)"/>
	        </mask>
	      </defs>

	      <!-- shape -->

				<polygon fill="#411422" points="1436.1,1326.2 1445.3,1320.2 1452.6,1236.2 1458.6,1231.2 1468.6,1086.7 1322.6,1081.7 1308.1,1091.7"/>
				<path class="slab-face" d="M1308.1,1091.7 1435.6,1094.7 1452.6,1099.2 1436.1,1326.2 1386.6,1337.7 1380.3,1327.2 1312.1,1329.7 1305.1,1256.7 1285.6,1137.7 1308.6,1106.2 1308.1,1091.7"/>

				<!-- image -->

				<image class="slab-thumb" xlink:href="" x="1275" y="1060" height="300px" width="200px" mask="url(#slab-mask)"/>

				<!-- animation -->

				<animateTransform 
					attributeName="transform"
					type="translate"
	        from="0 10"
	        to="0 10"
	        dur="4s"
	        begin="0s"
	        keySplines="0.455 0.030 0.515 1; 0.455 0.030 0.515 1;"
	        values="0 10;0 -10;0 10"
	        calcMode="spline"
	        repeatCount="indefinite"/>
			</g>

			<g class="slab">

				<defs>
	      	<radialGradient id="grad1" cx="50%" cy="50%" r="50%" fx="50%" fy="50%">
			      <stop offset="50%" stop-color="white"></stop>
	          <stop offset="100%" stop-color="black"></stop>
			    </radialGradient>
	        <mask id="slab-mask">
	          <path d="M1542.6,1055.2 1681.6,1051.7 1693.6,1055.2 1688.6,1168.2 1682.1,1179.7 1670.1,1287.2 1614.1,1295.2 1604.6,1282.7 1565.6,1272.7 1551.1,1220.7 1557.1,1212.2" fill="url(#grad1)"/>
	        </mask>
	      </defs>

	      <!-- shape -->

				<polygon fill="#411422" points="1693.6,1055.2 1668.6,1039.7 1521.1,1048.7 1538.1,1214.7 1542.6,1219.2 1557.7,1274.7 1604.6,1282.7 1615.6,1259.9"/>
				<path class="slab-face" d="M1542.6,1055.2 1681.6,1051.7 1693.6,1055.2 1688.6,1168.2 1682.1,1179.7 1670.1,1287.2 1614.1,1295.2 1604.6,1282.7 1565.6,1272.7 1551.1,1220.7 1557.1,1212.2 1542.6,1055.2"/>

				<!-- image -->

				<image class="slab-thumb" xlink:href="" x="1520" y="1020" height="300px" width="200px" mask="url(#slab-mask)"/>

				<!-- animation -->

				<animateTransform attributeName="transform"
	                          attributeType="XML"
	                          type="translate"
	                          from="0 -30"
	        									to="0 -30"
	                          dur="5s"
	                          begin="0.4s"
	                          keySplines="
									            0.455 0.030 0.515 1;  
									            0.455 0.030 0.515 1;"
	                          values="0 -30;0 -5;0 -30"
	                          calcMode="spline"
	                          repeatCount="indefinite"/>
			</g>


			<g class="slab">

				<defs>
	      	<radialGradient id="grad1" cx="50%" cy="50%" r="50%" fx="50%" fy="50%">
			      <stop offset="50%" stop-color="white"></stop>
	          <stop offset="100%" stop-color="black"></stop>
			    </radialGradient>
	        <mask id="slab-mask">
	          <path d="M1781.1,1274.7 1795.6,1081.7 1847.6,1081.7 1857.1,1059.2 1897.6,1059.2 1915.1,1069.7 1929.6,1277.2 1914.1,1305.2 1825.6,1312.2 1807.6,1281.7" fill="url(#grad1)"/>
	        </mask>
	      </defs>

	      <!-- shape -->

				<polygon fill="#411422" points="1915.1,1069.7 1895.6,1048.7 1844.6,1051.7 1841.1,1059.2 1778.6,1069.3 1768.6,1158.7 1777.6,1168.2 1768.6,1259.9 1781.1,1274.7 1821.7,1266.7"/>
				<path class="slab-face" d="M1781.1,1274.7 1795.6,1081.7 1847.6,1081.7 1857.1,1059.2 1897.6,1059.2 1915.1,1069.7 1929.6,1277.2 1914.1,1305.2 1825.6,1312.2 1807.6,1281.7 1781.1,1274.7"/>

				<!-- image -->

				<image class="slab-thumb" xlink:href="" x="1755" y="1040" height="300px" width="200px" mask="url(#slab-mask)"/>

				<!-- animation -->

				<animateTransform attributeName="transform"
	                          attributeType="XML"
	                          type="translate"
	                          from="0 10"
	        									to="0 10"
	                          dur="4.5s"
	                          begin="0s"
	                          keySplines="
									            0.455 0.030 0.515 1;  
									            0.455 0.030 0.515 1;"
	                          values="0 10;0 -20;0 10"
	                          calcMode="spline"
	                          repeatCount="indefinite"/>

	  		</g>

	 	

		</g> <!-- end slabs -->

		<g class="controls">

			<g class="btn-controls btn-exit">
				<g>
					<animateTransform
				    attributeName="transform"
				    attributeType="XML"
				    type="translate"
				    from="0 15"
				    to="0 15"
				    dur="8s"
				    begin="0s"
				    keySplines="0.455 0.030 0.515 1; 0.455 0.030 0.515 1;"
				    values="0 15;0 -15;0 15"
				    calcMode="spline"
				    repeatCount="indefinite"/>
					<polygon fill="#431525" points="1.769,46.791 2.984,49.788 12.056,53.838 15.053,57.645 37.733,67.203 43.322,63.882 
						22.505,36.747 	"/>
					<polygon class="btn-face" fill="#D01D69" points="1.769,46.791 0.23,36.747 4.523,13.986 19.346,5.319 20.156,0.945 49.073,0.945 53.933,10.746 
						62.438,16.092 58.145,44.037 51.665,49.302 51.341,53.595 43.322,63.882 	"/>
					<polygon fill="#431525" points="19.103,16.335 23.882,23.382 23.882,24.759 27.527,29.052 28.256,29.619 27.689,30.591 
						21.776,36.018 21.857,36.99 17.159,40.878 18.941,42.66 21.695,40.392 22.019,39.339 23.396,39.42 26.879,37.476 27.284,36.018 
						28.256,36.099 29.633,35.127 31.091,34.641 32.549,35.613 37.814,39.501 39.11,39.825 39.515,40.797 40.811,42.174 42.431,43.227 
						42.917,43.794 44.942,42.579 44.699,41.931 36.356,31.563 35.789,30.591 36.761,28.971 40.001,25.407 40.487,23.868 41.621,23.463 
						42.836,22.41 43.322,21.033 46.643,17.388 45.914,16.335 39.677,20.952 37.976,21.519 32.954,25.893 31.901,25.893 25.988,20.223 
						25.016,20.061 20.885,15.687 	"/>
				</g>
			</g>

			<g class="btn-controls btn-next">
				<g>
					<animateTransform
				    attributeName="transform"
				    attributeType="XML"
				    type="translate"
				    from="0 15"
				    to="0 15"
				    dur="8s"
				    begin="0s"
				    keySplines="0.455 0.030 0.515 1; 0.455 0.030 0.515 1;"
				    values="0 15;0 -15;0 15"
				    calcMode="spline"
				    repeatCount="indefinite"/>
					<path fill="#431525" d="M1.365,34.074l4.131-10.692l21.627-7.614l1.782-3.483l52.731-4.86l6.156,8.262
						c0,0-57.591,18.306-58.563,18.387C28.257,34.074,1.365,34.074,1.365,34.074z"/>
					<polygon class="btn-face" fill="#D01D69" points="1.365,65.907 1.365,34.074 26.232,24.354 28.095,20.061 87.792,15.687 89.412,25.407 
						93.705,30.186 85.038,89.721 20.562,77.004 19.428,70.767 	"/>
					<polygon fill="#431525" points="44.943,60.399 46.563,60.399 49.317,58.779 49.803,57.564 51.018,57.564 54.905,56.187 
						62.52,52.542 65.598,51.084 65.598,50.355 59.685,46.629 58.145,45.981 57.255,46.872 55.878,46.467 56.04,44.199 54.5,44.199 
						46.887,39.096 45.753,39.582 44.943,50.841 44.052,51.732 44.7,52.461 44.943,53.919 44.052,54.729 44.052,55.539 44.7,55.944 
						44.78,59.346 	"/>
				</g>
			</g>

			<g class="btn-controls btn-prev">
				<g>
					<animateTransform
				    attributeName="transform"
				    attributeType="XML"
				    type="translate"
				    from="0 15"
				    to="0 15"
				    dur="6s"
				    begin="0s"
				    keySplines="0.455 0.030 0.515 1; 0.455 0.030 0.515 1;"
				    values="0 15;0 -15;0 15"
				    calcMode="spline"
				    repeatCount="indefinite"/>
					<path fill="#431525" d="M1.891,16.983l8.748-9.396h1.863l3.888-4.212l34.668,4.212l2.025,5.022l30.375,3.645l3.078,3.888
						l2.592,1.053l4.05,3.645c0,0-11.34,5.832-11.745,5.832S8.29,24.759,7.885,24.759S1.891,16.983,1.891,16.983z"/>
					<polygon class="btn-face" fill="#D01D69" points="1.891,16.983 93.178,24.921 93.178,46.953 88.237,49.788 87.67,68.985 15.094,89.802 
						10.153,45.576 5.455,42.255 	"/>
					<polygon fill="#431525" points="36.235,49.788 42.391,45.576 44.74,45.576 44.74,43.632 49.114,41.607 50.815,41.607 51.625,40.23 
						51.625,39.339 55.189,38.286 56.485,39.096 56.485,44.037 57.295,44.604 57.295,50.274 58.105,52.137 58.105,53.433 57.214,54.324 
						57.052,58.86 55.432,58.86 53.002,57.726 51.949,56.187 50.815,56.997 47.17,55.377 46.522,54.081 44.092,53.433 	"/>
				</g>
			</g>


		</g>

	</g>

</g>

</g>
</svg>
