<?xml version="1.0" encoding="utf-8"?>
<!-- Generator: Adobe Illustrator 17.1.0, SVG Export Plug-In . SVG Version: 6.00 Build 0)  -->
<!DOCTYPE svg PUBLIC "-//W3C//DTD SVG 1.1//EN" "http://www.w3.org/Graphics/SVG/1.1/DTD/svg11.dtd">
<svg version="1.1" id="Layer_1" xmlns="http://www.w3.org/2000/svg" xmlns:xlink="http://www.w3.org/1999/xlink" x="0px" y="0px"
	 width="3455.4px" height="909.7px" viewBox="0 0 3455.4 909.7" enable-background="new 0 0 3455.4 909.7" xml:space="preserve">
<g>

	



	<g transform="translate(1990 -155) scale(0.45)">

	  <g class="dialogue">

	  	<path class="dialogue-shape" fill="#FFF" d="M-13,336.4 -1.6,320.7 -0.9,312.5 32.3,311.2 34.5,311.9 35.2,311.2 37,311.7 37.3,312.8 38.7,313.2 39.2,340.7 38.2,341.6 -0.8,340.6 -2,338.9 -1.4,336 13,336.4">
	  		<animateTransform
	  			id="dialogueShakeAnimation"
	  			attributeName="transform"
	  			type="rotate"
	    		dur="0.5s"
					values="0 -13 336; -5 -13 336; 5 -13 336; 0 -13 336;"
					repeatCount="indefinite"
	  		/>
	  	</path>

	  	<g class="btn-home"> 
	  		<path d="M716,66.5l3.4-3.4c1-1,1-2.7,0-3.7c-1-1-2.7-1-3.7,0l-3.4,3.4l-3.4-3.4c-1-1-2.7-1-3.7,0c-1,1-1,2.7,0,3.7 l3.4,3.4l-3.4,3.4c-1,1-1,2.7,0,3.7c1,1,2.7,1,3.7,0l3.4-3.4l3.4,3.4c1,1,2.7,1,3.7,0c1-1,1-2.7,0-3.7L716,66.5z"/>
	  	</g>

		</g>

	</g>


	<g class="cliff">
		<path fill="#131C26" d="M0,909.7c0,0,305.5-22,317.4-26.5c11.9-5.1,70-52.5,70-52.5l33.9,5.1l24.3-21.5L668,560.1l64.9-30.5
			l180.1-135.5c2.8-0.6,5.6-1.7,8.5-2.8c38.4-17.5,76.8-35,115.8-52.5c14.1-6.8,28.8-12.4,41.8-19.8c32.8-18.6,65.5-38.4,98.3-58.2
			c4-2.3,7.3-6.2,10.2-10.2c8.5-10.2,19.8-16.4,31.6-21.5c2.3-0.6,4.5-0.6,6.8-0.6c9.6,2.3,18.1,0,27.1-2.8c4.5-1.7,9.6-2.3,14.1-4
			c15.2-5.1,30.5-9,44-19.2c9-6.8,19.2-13,31.6-13.6c7.9-0.6,15.8-1.7,23.7-2.3c21.5-2.3,42.9-4.5,62.7-13.6c2.8-1.1,6.2-2.3,9-3.4
			c7.3-2.3,14.7-5.1,20.3-11.9c1.7-2.3,5.1-3.4,7.9-4c48-19.8,95.4-39.5,142.9-59.3c4.5-2.3,9-2.8,14.1-1.1
			c5.6,1.7,10.2,1.1,15.2-1.1c4-1.7,7.3-2.8,11.3-4c51.4-16.9,100-40.7,151.9-54.2c44.6-11.9,88.7-24.8,133.8-33.3
			c4.5-0.6,9.6-1.7,13.6-0.6c19.8,5.6,39.5,11.3,58.7,17.5c2.3,0.6,5.1,2.3,5.6,4.5c2.8,6.8,5.6,14.1,7.9,19.8
			c-13.6,10.2-26,19.8-39,29.4c-7.3,5.6-15.8,9-24.3,13.6c-6.8,3.4-11.9,7.3-15.2,14.7c-4,7.9-10.2,14.1-18.6,18.1
			c-5.6,2.8-11.9,5.1-16.4,9c-9,7.3-18.1,15.8-26.5,24.3c-7.3,6.8-11.3,14.7-13.6,24.3c-1.7,7.9,0,16.4,7.3,20.3
			c8.5,4.5,10.7,11.9,14.1,19.2c-10.7,13.6-21.5,26.5-32.2,39.5c-2.8,3.4-4,6.2-4,10.7c0,4-0.6,7.9-2.3,11.3
			c-8.5,16.4-17.5,33.9-27.1,49.7c-4,6.2-5.1,11.9-2.3,18.6c0.6,2.3,1.1,4,1.7,5.6c0.6,4-0.6,6.8-2.3,10.2
			c-5.6,8.5-10.2,17.5-16.9,24.8c-0.6,1.1-1.7,2.8-1.7,4.5c0.6,5.6-2.3,10.2-6.8,13.6c-4,4-4.5,7.3-2.3,12.4
			c2.8,7.3,5.6,14.1,8.5,21.5c2.8,10.2,6.8,20.3,7.3,30.5c0.6,9.6,3.4,18.1,8.5,26c2.8,4,5.6,8.5,8.5,13.6
			c10.7,16.9,22.6,33.9,32.8,51.4c5.6,10.2,13,18.1,21.5,26c9.6,8.5,18.1,18.1,28.2,26.5c6.2,5.6,13,10.7,19.8,14.7
			c58.7,33.9,117.5,66.6,175.6,100c5.6,3.4,12.4,6.2,19.2,7.9c66.6,16.4,132.7,36.7,200.5,49.7c20.3,4,40.7,9.6,60.4,14.1
			c6.8,1.7,12.4,4,18.1,8.5c10.2,8.5,20.3,17.5,32.2,23.7c19.8,10.7,40.1,19.8,60.4,29.4c2.8,1.1,6.2,2.3,9.6,2.3
			c0.6,0,951,48,951,48H0z"/>
	</g>
</g>
</svg>
