<?xml version="1.0" encoding="utf-8"?>
<!-- Generator: Adobe Illustrator 17.0.0, SVG Export Plug-In . SVG Version: 6.00 Build 0)  -->
<!DOCTYPE svg PUBLIC "-//W3C//DTD SVG 1.1//EN" "http://www.w3.org/Graphics/SVG/1.1/DTD/svg11.dtd">
<svg version="1.1" id="Layer_1" xmlns="http://www.w3.org/2000/svg" xmlns:xlink="http://www.w3.org/1999/xlink" x="0px" y="0px"
	 width="3000px" height="1000px" viewBox="0 0 3000 1000" enable-background="new 0 0 3000 1000" xml:space="preserve">
<g id="right">
	<g>
		<path fill="#F9FAE8" d="M1511.5,1000H1229V884.7c21.5,0,114,0,141.2,0c29.8,0,109.6,0,141.2,0V1000H1511.5z"/>
		<path fill="#F9FAE8" d="M1911.5,1000H1629V884.7c41.8,0,59.5-67.7,141.2-67.7c92.2,0,109.6,67.7,141.2,67.7V1000H1911.5z"/>
		<path fill="#F9FAE8" d="M2511.5,1000H2229V884.7c21.5,0,114,0,141.2,0c29.8,0,109.6,0,141.2,0V1000H2511.5z"/>
	</g>
	<g>
		<path fill="#F9FAE8" d="M1378.5,1000H1096V884.7c21.5,0,114,0,141.2,0c29.8,0,109.6,0,141.2,0V1000H1378.5z"/>
		<path fill="#F9FAE8" d="M1778.5,1000H1496V884.7c41.8,0,59.5-67.7,141.2-67.7c92.2,0,109.6,67.7,141.2,67.7V1000H1778.5z"/>
		<path fill="#F9FAE8" d="M2378.5,1000H2096V884.7c21.5,0,114,0,141.2,0c29.8,0,109.6,0,141.2,0V1000H2378.5z"/>
	</g>
</g>
</svg>
