<?xml version="1.0" encoding="utf-8"?>
<!-- Generator: Adobe Illustrator 17.0.0, SVG Export Plug-In . SVG Version: 6.00 Build 0)  -->
<!DOCTYPE svg PUBLIC "-//W3C//DTD SVG 1.1//EN" "http://www.w3.org/Graphics/SVG/1.1/DTD/svg11.dtd">
<svg version="1.1" id="Layer_1" xmlns="http://www.w3.org/2000/svg" xmlns:xlink="http://www.w3.org/1999/xlink" x="0px" y="0px"
	 width="3000px" height="1000px" viewBox="0 0 3000 1000" enable-background="new 0 0 3000 1000" xml:space="preserve">
<g><path d="M 1563.87 984.273 c -60.66 0 -67.86 1.35576 -88.38 3.52498 c -16.02 1.89807 -32.4 4.33844 -87.12 4.33844 V 1000 H 1563.87 V 984.273 Z"><animate attributeName="d" from="M1475.5,989.56c-60.66,0-67.86,0.9-88.38,2.34c-16.02,1.26-32.4,2.88-87.12,2.88v5.22h175.5V989.56z" to="M1650,979.12c-60.66,0-67.86,1.8-88.38,4.68c-16.02,2.52-32.4,5.76-87.12,5.76V1000H1650V979.12z" dur="3s" repeatCount="indefinite"></animate></path><path d="M 1738.37 968.546 c -60.66 0 -67.86 2.71152 -88.38 7.04996 c -16.02 3.79613 -32.4 8.67688 -87.12 8.67688 V 1000 h 175.5 V 968.546 Z"><animate attributeName="d" from="M1650,979.12c-60.66,0-67.86,1.8-88.38,4.68c-16.02,2.52-32.4,5.76-87.12,5.76V1000H1650V979.12z" to="M1824.5,958.24c-60.66,0-67.86,3.6-88.38,9.36c-16.02,5.04-32.4,11.52-87.12,11.52V1000h175.5V958.24z" dur="3s" repeatCount="indefinite"></animate></path><path d="M 1912.87 937.093 c -60.66 0 -67.86 5.42305 -88.38 14.0999 c -16.02 7.59227 -32.4 17.3538 -87.12 17.3538 V 1000 H 1912.87 V 937.093 Z"><animate attributeName="d" from="M1824.5,958.24c-60.66,0-67.86,3.6-88.38,9.36c-16.02,5.04-32.4,11.52-87.12,11.52V1000h175.5V958.24z" to="M1999,916.48c-60.66,0-67.86,7.2-88.38,18.72c-16.02,10.08-32.4,23.04-87.12,23.04V1000H1999V916.48z" dur="3s" repeatCount="indefinite"></animate></path><path d="M 2087.37 874.185 c -60.66 0 -67.86 10.8461 -88.38 28.1999 c -16.02 15.1845 -32.4 34.7075 -87.12 34.7075 V 1000 h 175.5 V 874.185 Z"><animate attributeName="d" from="M1999,916.48c-60.66,0-67.86,7.2-88.38,18.72c-16.02,10.08-32.4,23.04-87.12,23.04V1000H1999V916.48z" to="M2173.5,832.96c-60.66,0-67.86,14.4-88.38,37.44c-16.02,20.16-32.4,46.08-87.12,46.08V1000h175.5V832.96z" dur="3s" repeatCount="indefinite"></animate></path><path d="M 2261.87 748.371 c -60.66 0 -67.86 21.6922 -88.38 56.3997 c -16.02 30.3691 -32.4 69.415 -87.12 69.415 V 1000 H 2261.87 V 748.371 Z"><animate attributeName="d" from="M2173.5,832.96c-60.66,0-67.86,14.4-88.38,37.44c-16.02,20.16-32.4,46.08-87.12,46.08V1000h175.5V832.96z" to="M2348,665.92c-60.66,0-67.86,28.8-88.38,74.88c-16.02,40.32-32.4,92.16-87.12,92.16V1000H2348V665.92z" dur="3s" repeatCount="indefinite"></animate></path><path d="M 2436.37 496.741 c -60.66 0 -67.86 43.3844 -88.38 112.799 c -16.02 60.7381 -32.4 138.83 -87.12 138.83 V 1000 h 175.5 V 496.741 Z"><animate attributeName="d" from="M2348,665.92c-60.66,0-67.86,28.8-88.38,74.88c-16.02,40.32-32.4,92.16-87.12,92.16V1000H2348V665.92z" to="M2522.5,331.84c-60.66,0-67.86,57.6-88.38,149.76c-16.02,80.64-32.4,184.32-87.12,184.32V1000h175.5V331.84z" dur="3s" repeatCount="indefinite"></animate></path><path d="M 2610.36 -6.51787 c -60.66 0 -67.86 86.7688 -88.38 225.599 c -16.02 121.476 -32.4 277.66 -87.12 277.66 V 1000 H 2610.36 V -6.51787 Z"><animate attributeName="d" from="M2522.5,331.84c-60.66,0-67.86,57.6-88.38,149.76c-16.02,80.64-32.4,184.32-87.12,184.32V1000h175.5V331.84z" to="M2696-336.32c-60.66,0-67.86,115.2-88.38,299.52c-16.02,161.28-32.4,368.64-87.12,368.64V1000H2696V-336.32z" dur="3s" repeatCount="indefinite"></animate></path><path d="M 2783.86 -1013.04 c -60.66 0 -67.86 173.538 -88.38 451.198 c -16.02 242.953 -32.4 555.32 -87.12 555.32 V 1000 h 175.5 V -1013.04 Z"><animate attributeName="d" from="M2696-336.32c-60.66,0-67.86,115.2-88.38,299.52c-16.02,161.28-32.4,368.64-87.12,368.64V1000H2696V-336.32z" to="M2869.5-1672.64c-60.66,0-67.86,230.4-88.38,599.04c-16.02,322.56-32.4,737.28-87.12,737.28V1000h175.5V-1672.64z" dur="3s" repeatCount="indefinite"></animate></path><path d="M 2957.61 -3026.07 c -60.66 0 -67.86 347.075 -88.38 902.395 c -16.02 485.905 -32.4 1110.64 -87.12 1110.64 V 1000 h 175.5 V -3026.07 Z"><animate attributeName="d" from="M2869.5-1672.64c-60.66,0-67.86,230.4-88.38,599.04c-16.02,322.56-32.4,737.28-87.12,737.28V1000h175.5V-1672.64z" to="M3043.5-4345.28c-60.66,0-67.86,460.8-88.38,1198.08c-16.02,645.12-32.4,1474.56-87.12,1474.56V1000h175.5V-4345.28z" dur="3s" repeatCount="indefinite"></animate></path><path d="M 1436.13 1000 h 175.5 v -7.86342 c -54.72 0 -71.1 -2.44037 -87.12 -4.33844 c -20.52 -2.16922 -27.72 -3.52498 -88.38 -3.52498 V 1000 Z"><animate attributeName="d" from="M1524.5,1000H1700v-5.22c-54.72,0-71.1-1.62-87.12-2.88c-20.52-1.44-27.72-2.34-88.38-2.34V1000z" to="M1350,1000h175.5v-10.44c-54.72,0-71.1-3.24-87.12-5.76c-20.52-2.88-27.72-4.68-88.38-4.68V1000z" dur="3s" repeatCount="indefinite"></animate></path><path d="M 1261.63 1000 H 1437.13 v -15.7268 c -54.72 0 -71.1 -4.88074 -87.12 -8.67688 c -20.52 -4.33844 -27.72 -7.04996 -88.38 -7.04996 V 1000 Z"><animate attributeName="d" from="M1350,1000h175.5v-10.44c-54.72,0-71.1-3.24-87.12-5.76c-20.52-2.88-27.72-4.68-88.38-4.68V1000z" to="M1175.5,1000H1351v-20.88c-54.72,0-71.1-6.48-87.12-11.52c-20.52-5.76-27.72-9.36-88.38-9.36V1000z" dur="3s" repeatCount="indefinite"></animate></path><path d="M 1087.13 1000 h 175.5 v -31.4537 c -54.72 0 -71.1 -9.76149 -87.12 -17.3538 c -20.52 -8.67688 -27.72 -14.0999 -88.38 -14.0999 V 1000 Z"><animate attributeName="d" from="M1175.5,1000H1351v-20.88c-54.72,0-71.1-6.48-87.12-11.52c-20.52-5.76-27.72-9.36-88.38-9.36V1000z" to="M1001,1000h175.5v-41.76c-54.72,0-71.1-12.96-87.12-23.04c-20.52-11.52-27.72-18.72-88.38-18.72V1000z" dur="3s" repeatCount="indefinite"></animate></path><path d="M 912.633 1000 H 1088.13 v -62.9074 c -54.72 0 -71.1 -19.523 -87.12 -34.7075 c -20.52 -17.3538 -27.72 -28.1999 -88.38 -28.1999 V 1000 Z"><animate attributeName="d" from="M1001,1000h175.5v-41.76c-54.72,0-71.1-12.96-87.12-23.04c-20.52-11.52-27.72-18.72-88.38-18.72V1000z" to="M826.5,1000H1002v-83.52c-54.72,0-71.1-25.92-87.12-46.08c-20.52-23.04-27.72-37.44-88.38-37.44V1000z" dur="3s" repeatCount="indefinite"></animate></path><path d="M 738.133 1000 h 175.5 V 874.185 c -54.72 0 -71.1 -39.046 -87.12 -69.415 c -20.52 -34.7075 -27.72 -56.3997 -88.38 -56.3997 V 1000 Z"><animate attributeName="d" from="M826.5,1000H1002v-83.52c-54.72,0-71.1-25.92-87.12-46.08c-20.52-23.04-27.72-37.44-88.38-37.44V1000z" to="M652,1000h175.5V832.96c-54.72,0-71.1-51.84-87.12-92.16c-20.52-46.08-27.72-74.88-88.38-74.88V1000z" dur="3s" repeatCount="indefinite"></animate></path><path d="M 563.633 1000 H 739.133 V 748.371 c -54.72 0 -71.1 -78.0919 -87.12 -138.83 c -20.52 -69.415 -27.72 -112.799 -88.38 -112.799 V 1000 Z"><animate attributeName="d" from="M652,1000h175.5V832.96c-54.72,0-71.1-51.84-87.12-92.16c-20.52-46.08-27.72-74.88-88.38-74.88V1000z" to="M477.5,1000H653V665.92c-54.72,0-71.1-103.68-87.12-184.32c-20.52-92.16-27.72-149.76-88.38-149.76V1000z" dur="3s" repeatCount="indefinite"></animate></path><path d="M 389.639 1000 h 175.5 V 496.741 c -54.72 0 -71.1 -156.184 -87.12 -277.66 C 457.499 80.2509 450.299 -6.51787 389.639 -6.51787 V 1000 Z"><animate attributeName="d" from="M477.5,1000H653V665.92c-54.72,0-71.1-103.68-87.12-184.32c-20.52-92.16-27.72-149.76-88.38-149.76V1000z" to="M304,1000h175.5V331.84c-54.72,0-71.1-207.36-87.12-368.64C371.86-221.12,364.66-336.32,304-336.32V1000z" dur="3s" repeatCount="indefinite"></animate></path><path d="M 216.139 1000 H 391.639 V -6.51787 c -54.72 0 -71.1 -312.368 -87.12 -555.32 c -20.52 -277.66 -27.72 -451.198 -88.38 -451.198 V 1000 Z"><animate attributeName="d" from="M304,1000h175.5V331.84c-54.72,0-71.1-207.36-87.12-368.64C371.86-221.12,364.66-336.32,304-336.32V1000z" to="M130.5,1000H306V-336.32c-54.72,0-71.1-414.72-87.12-737.28c-20.52-368.64-27.72-599.04-88.38-599.04V1000z" dur="3s" repeatCount="indefinite"></animate></path><path d="M 42.386 1000 H 217.886 v -2013.04 c -54.72 0 -71.1 -624.735 -87.12 -1110.64 C 110.246 -2679 103.046 -3026.07 42.386 -3026.07 V 1000 Z"><animate attributeName="d" from="M130.5,1000H306V-336.32c-54.72,0-71.1-414.72-87.12-737.28c-20.52-368.64-27.72-599.04-88.38-599.04V1000z" to="M-43.5,1000H132v-2672.64c-54.72,0-71.1-829.44-87.12-1474.56C24.36-3884.48,17.16-4345.28-43.5-4345.28V1000z" dur="3s" repeatCount="indefinite"></animate></path><rect x="0" y="997" width="3000" height="700"></rect></g>
</svg>
