<?xml version="1.0" encoding="utf-8"?>
<!-- Generator: Adobe Illustrator 17.0.0, SVG Export Plug-In . SVG Version: 6.00 Build 0)  -->
<!DOCTYPE svg PUBLIC "-//W3C//DTD SVG 1.1//EN" "http://www.w3.org/Graphics/SVG/1.1/DTD/svg11.dtd">
<svg version="1.1" id="Layer_1" xmlns="http://www.w3.org/2000/svg" xmlns:xlink="http://www.w3.org/1999/xlink" x="0px" y="0px"
	 width="3000px" height="1000px" viewBox="0 0 3000 1000" enable-background="new 0 0 3000 1000" xml:space="preserve">
<g>
	<rect y="996" width="3000" height="700"/>
	<g>
		<path fill="#F9FAE7" d="M2768.7,964c0,15.7,0,33,0,33h-2559.7c0,0,0-40.5,0-68c36.1,2.6,71.2-42.7,110.3-25.8
			c10.5,4.5,13.6,13.9,7.9,23.6c-11.6,20-6.4,36.3,5.1,43.5c19.6,12.3,43.9-0.1,62.2-11.7c48.7-31,78.4-4.9,123.2,8.8
			c8.2,2.5,15.8-0.3,21.4-7.2c1.5-1.9,36-46.1,66.1-31.8c19.4,9.2,5.3,33,34.3,48.3c51.2,26.9,109.5-0.6,160.4-27.3
			c37.3-19.5,80.7-28,96.7,10.5c2.5,6,5.9,9.9,10.4,11.8c16.1,6.7,39.4-15.1,66.1,0.9c3,1.8,4.8,1.8,7.2-0.7
			c17.5-17.8,46.7-21.2,49.4,3.3c1.1,10.4,7.6,16.7,18.2,17c58.9,2,72.1-58.6,128.6-62.1c2-0.1,4.6-1.5,5.7-3.2
			c11.2-16.5,27-26.6,45.7-31.8c37.6-10.5,30.3-22,57.7-28.3c16-3.7,33.6-1.6,39.7,9.3c2.5,4.5,1.6,9.8-2.8,15.5
			c-9.8,12.6-24.8,65.1,61.2,52.9c36.2-7.5,69,3,74.3,32.5c3.9,21.7,38.8,25,103.4,0.3c54.5-20.8,85.7-77.4,138.7-69.7
			c23.5,3.4,20.8-17.1,36.6-19.6c12.8-2,24.8,11.6,27,25.7c0.4,2.6,1.1,4.2,2.4,5c4.8,3,34-9.6,41.5-50.2c4.7-25.4,32.9-17.7,46.8-2
			c3.1,3.5,5.6,4.7,10,4.4c18.6-1.4,35.3,4.1,47.6,18.1c19.9,22.4,26.9,72.5,99.8,54.8c68-16.5,118.9-33.8,171.7,12.4
			c43.9,38.4,107.7,42,144.8,26c39.1-16.9,21.5-40.4,39.6-50.9c28.1-16.2,40.2,14.6,61.6,9.9c71.4-15.7,79.4,46.2,119.6,48.1
			c58.3,2.7,81.1-18.6,96.8-52.1C2672.7,879.7,2748.5,950.3,2768.7,964z"/>
		<path fill="#F9FAE7" d="M1747.801,823c1.4-16,22-19.6,29.5-9c2.7,3.9,5.6,5.2,10.3,5.3c14.3,0.3,20.4,16.9,13.2,27.4
			c-4.2,6.2-11,6-14.4-0.6c-3.5-6.9-9.3-8.7-16.4-9.2C1756.801,836,1746.901,833.4,1747.801,823z"/>
		<path fill="#F9FAE7" d="M1345.401,882.2c-2.4-0.2-3.2-1.5-5-3.2c-1-0.9-2.8-2.1-3.9-2.9c-4.8-3.7-0.5-9.2,6.1-9.5
			C1356.301,866.2,1354.901,883,1345.401,882.2z"/>
		<path fill="#F9FAE7" d="M1719.901,883.4c-1.9-2.9-5.3-3.4-5.3-7c0-2.1,1.7-4,4-4.2c4.2-0.3,7.4,4.4,6.6,9
			C1724.501,885,1721.501,885.8,1719.901,883.4z"/>
		<path fill="#F9FAE7" d="M1366.901,870.2c-0.5,6-10.5,4.9-10.3-0.8C1356.801,862.9,1367.401,864,1366.901,870.2z"/>
		<path fill="#F9FAE7" d="M1333.901,861.5c-0.2,5.7-10.4,4.8-10.5,0C1323.301,856.1,1334.101,855.4,1333.901,861.5z"/>
		<path fill="#F9FAE7" d="M1724.601,861.5c3.2-1.9,8,3.1,4.7,6.1C1726.101,870.5,1719.501,864.6,1724.601,861.5z"/>
	</g>
</g>
</svg>
