<?xml version="1.0" encoding="utf-8"?>
<!-- Generator: Adobe Illustrator 17.0.0, SVG Export Plug-In . SVG Version: 6.00 Build 0)  -->
<!DOCTYPE svg PUBLIC "-//W3C//DTD SVG 1.1//EN" "http://www.w3.org/Graphics/SVG/1.1/DTD/svg11.dtd">
<svg version="1.1" id="Layer_1" xmlns="http://www.w3.org/2000/svg" xmlns:xlink="http://www.w3.org/1999/xlink" x="0px" y="0px"
	 width="3000px" height="1000px" viewBox="0 0 3000 1000" enable-background="new 0 0 3000 1000" xml:space="preserve">
<g><path d="M 1400.43 995.908 h 4.56 c 63.84 0 35.4 -6.13809 126.48 -6.13809 h 3.12 v 10.2301 h -134.16 V 995.908 Z"><animate class="optional-animation" attributeName="d" from="M1300,998.08h4.56c63.84,0,35.4-2.88,126.48-2.88h3.12v4.8H1300V998.08z" to="M1433.16,995.2h4.56c63.84,0,35.4-7.2,126.48-7.2h3.12v12h-134.16V995.2z" dur="6s" repeatCount="indefinite"></animate></path><path d="M 1533.59 989.77 h 4.56 c 63.84 0 35.4 -15.3452 126.48 -15.3452 h 3.12 v 25.5754 h -134.16 V 989.77 Z"><animate class="optional-animation" attributeName="d" from="M1433.16,995.2h4.56c63.84,0,35.4-7.2,126.48-7.2h3.12v12h-134.16V995.2z" to="M1566.32,988h4.56c63.84,0,35.4-18,126.48-18h3.12v30h-134.16V988z" dur="6s" repeatCount="indefinite"></animate></path><path d="M 1666.75 974.425 h 4.56 c 63.84 0 35.4 -38.3631 126.48 -38.3631 h 3.12 v 63.9384 h -134.16 V 974.425 Z"><animate class="optional-animation" attributeName="d" from="M1566.32,988h4.56c63.84,0,35.4-18,126.48-18h3.12v30h-134.16V988z" to="M1699.48,970h4.56c63.84,0,35.4-45,126.48-45h3.12v75h-134.16V970z" dur="6s" repeatCount="indefinite"></animate></path><path d="M 1799.91 936.062 h 4.56 c 63.84 0 35.4 -95.9076 126.48 -95.9076 h 3.12 V 1000 h -134.16 V 936.062 Z"><animate class="optional-animation" attributeName="d" from="M1699.48,970h4.56c63.84,0,35.4-45,126.48-45h3.12v75h-134.16V970z" to="M1832.64,925h4.56c63.84,0,35.4-112.5,126.48-112.5h3.12V1000h-134.16V925z" dur="6s" repeatCount="indefinite"></animate></path><path d="M 1933.07 840.154 h 4.56 c 63.84 0 35.4 -239.769 126.48 -239.769 h 3.12 V 1000 H 1933.07 V 840.154 Z"><animate class="optional-animation" attributeName="d" from="M1832.64,925h4.56c63.84,0,35.4-112.5,126.48-112.5h3.12V1000h-134.16V925z" to="M1965.8,812.5h4.56c63.84,0,35.4-281.25,126.48-281.25h3.12V1000H1965.8V812.5z" dur="6s" repeatCount="indefinite"></animate></path><path d="M 2066.23 600.385 h 4.56 c 63.84 0 35.4 -599.423 126.48 -599.423 h 3.12 V 1000 h -134.16 V 600.385 Z"><animate class="optional-animation" attributeName="d" from="M1965.8,812.5h4.56c63.84,0,35.4-281.25,126.48-281.25h3.12V1000H1965.8V812.5z" to="M2098.96,531.25h4.56c63.84,0,35.4-703.125,126.48-703.125h3.12V1000h-134.16V531.25z" dur="6s" repeatCount="indefinite"></animate></path><path d="M 2199.39 0.962107 h 4.56 c 63.84 0 35.4 -1498.56 126.48 -1498.56 h 3.12 V 1000 h -134.16 V 0.962107 Z"><animate class="optional-animation" attributeName="d" from="M2098.96,531.25h4.56c63.84,0,35.4-703.125,126.48-703.125h3.12V1000h-134.16V531.25z" to="M2232.12-171.875h4.56c63.84,0,35.4-1757.813,126.48-1757.813h3.12V1000h-134.16V-171.875z" dur="6s" repeatCount="indefinite"></animate></path><path d="M 2332.68 -1497.59 h 4.56 c 63.84 0 35.4 -3746.39 126.48 -3746.39 h 3.12 V 1000 h -134.16 V -1497.59 Z"><animate class="optional-animation" attributeName="d" from="M2232.12-171.875h4.56c63.84,0,35.4-1757.813,126.48-1757.813h3.12V1000h-134.16V-171.875z" to="M2365.453-1929.687h4.56c63.84,0,35.4-4394.531,126.48-4394.531h3.12V1000h-134.16V-1929.687z" dur="6s" repeatCount="indefinite"></animate></path><path d="M 2465.88 -5243.99 h 4.56 c 63.84 0 35.4 -9365.98 126.48 -9365.98 h 3.12 V 1000 h -134.16 V -5243.99 Z"><animate class="optional-animation" attributeName="d" from="M2365.453-1929.687h4.56c63.84,0,35.4-4394.531,126.48-4394.531h3.12V1000h-134.16V-1929.687z" to="M2498.613-6324.218h4.56c63.84,0,35.4-10986.328,126.48-10986.328h3.12V1000h-134.16V-6324.218z" dur="6s" repeatCount="indefinite"></animate></path><path d="M 1599.57 1000 h -134.16 v -10.2301 h 3.12 c 91.08 0 62.64 6.13809 126.48 6.13809 h 4.56 V 1000 Z"><animate class="optional-animation" attributeName="d" from="M1700,1000h-134.16v-4.8h3.12c91.08,0,62.64,2.88,126.48,2.88h4.56V1000z" to="M1566.84,1000h-134.16v-12h3.12c91.08,0,62.64,7.2,126.48,7.2h4.56V1000z" dur="6s" repeatCount="indefinite"></animate></path><path d="M 1466.41 1000 h -134.16 v -25.5754 h 3.12 c 91.08 0 62.64 15.3452 126.48 15.3452 h 4.56 V 1000 Z"><animate class="optional-animation" attributeName="d" from="M1566.84,1000h-134.16v-12h3.12c91.08,0,62.64,7.2,126.48,7.2h4.56V1000z" to="M1433.68,1000h-134.16v-30h3.12c91.08,0,62.64,18,126.48,18h4.56V1000z" dur="6s" repeatCount="indefinite"></animate></path><path d="M 1333.25 1000 h -134.16 v -63.9384 h 3.12 c 91.08 0 62.64 38.3631 126.48 38.3631 h 4.56 V 1000 Z"><animate class="optional-animation" attributeName="d" from="M1433.68,1000h-134.16v-30h3.12c91.08,0,62.64,18,126.48,18h4.56V1000z" to="M1300.52,1000h-134.16v-75h3.12c91.08,0,62.64,45,126.48,45h4.56V1000z" dur="6s" repeatCount="indefinite"></animate></path><path d="M 1200.09 1000 H 1065.93 V 840.154 h 3.12 c 91.08 0 62.64 95.9076 126.48 95.9076 h 4.56 V 1000 Z"><animate class="optional-animation" attributeName="d" from="M1300.52,1000h-134.16v-75h3.12c91.08,0,62.64,45,126.48,45h4.56V1000z" to="M1167.36,1000H1033.2V812.5h3.12c91.08,0,62.64,112.5,126.48,112.5h4.56V1000z" dur="6s" repeatCount="indefinite"></animate></path><path d="M 1066.93 1000 H 932.772 V 600.385 h 3.12 c 91.08 0 62.64 239.769 126.48 239.769 h 4.56 V 1000 Z"><animate class="optional-animation" attributeName="d" from="M1167.36,1000H1033.2V812.5h3.12c91.08,0,62.64,112.5,126.48,112.5h4.56V1000z" to="M1034.2,1000H900.04V531.25h3.12c91.08,0,62.64,281.25,126.48,281.25h4.56V1000z" dur="6s" repeatCount="indefinite"></animate></path><path d="M 933.772 1000 H 799.612 V 0.962107 H 802.732 c 91.08 0 62.64 599.423 126.48 599.423 h 4.56 V 1000 Z"><animate class="optional-animation" attributeName="d" from="M1034.2,1000H900.04V531.25h3.12c91.08,0,62.64,281.25,126.48,281.25h4.56V1000z" to="M901.04,1000H766.88V-171.875H770c91.08,0,62.64,703.125,126.48,703.125h4.56V1000z" dur="6s" repeatCount="indefinite"></animate></path><path d="M 800.612 1000 H 666.452 v -2497.6 h 3.12 c 91.08 0 62.64 1498.56 126.48 1498.56 h 4.56 V 1000 Z"><animate class="optional-animation" attributeName="d" from="M901.04,1000H766.88V-171.875H770c91.08,0,62.64,703.125,126.48,703.125h4.56V1000z" to="M767.88,1000H633.72v-2929.688h3.12c91.08,0,62.64,1757.813,126.48,1757.813h4.56V1000z" dur="6s" repeatCount="indefinite"></animate></path><path d="M 667.322 1000 h -134.16 v -6243.99 h 3.12 c 91.08 0 62.64 3746.39 126.48 3746.39 h 4.56 V 1000 Z"><animate class="optional-animation" attributeName="d" from="M767.88,1000H633.72v-2929.688h3.12c91.08,0,62.64,1757.813,126.48,1757.813h4.56V1000z" to="M634.547,1000h-134.16v-7324.219h3.12c91.08,0,62.64,4394.531,126.48,4394.531h4.56V1000z" dur="6s" repeatCount="indefinite"></animate></path><path d="M 534.119 1000 h -134.16 v -15610 h 3.12 c 91.08 0 62.64 9365.98 126.48 9365.98 h 4.56 V 1000 Z"><animate class="optional-animation" attributeName="d" from="M634.547,1000h-134.16v-7324.219h3.12c91.08,0,62.64,4394.531,126.48,4394.531h4.56V1000z" to="M501.387,1000h-134.16v-18310.547h3.12c91.08,0,62.64,10986.328,126.48,10986.328h4.56V1000z" dur="6s" repeatCount="indefinite"></animate></path><rect x="0" y="997" width="3000" height="700"></rect></g>
</svg>
