<?xml version="1.0" encoding="utf-8"?>
<!-- Generator: Adobe Illustrator 17.0.0, SVG Export Plug-In . SVG Version: 6.00 Build 0)  -->
<!DOCTYPE svg PUBLIC "-//W3C//DTD SVG 1.1//EN" "http://www.w3.org/Graphics/SVG/1.1/DTD/svg11.dtd">
<svg version="1.1" id="Layer_1" xmlns="http://www.w3.org/2000/svg" xmlns:xlink="http://www.w3.org/1999/xlink" x="0px" y="0px"
	 width="3000px" height="1000px" viewBox="0 0 3000 1000" enable-background="new 0 0 3000 1000" xml:space="preserve">
<g><path d="M 1387.68 996.501 h 6.80717 c 95.3004 0 52.8451 -5.2489 188.809 -5.2489 h 4.65754 v 8.74816 h -200.274 V 996.501 Z"><animate class="optional-animation" attributeName="d" from="M1300,998.4h3.8c53.2,0,29.5-2.4,105.4-2.4h2.6v4H1300V998.4z" to="M1410.8,996h7.6c106.4,0,59-6,210.8-6h5.2v10h-223.6V996z" dur="1s" repeatCount="indefinite"></animate></path><path d="M 1586.96 991.252 h 13.6143 c 190.601 0 105.69 -13.1222 377.619 -13.1222 h 9.31507 v 21.8704 h -400.548 V 991.252 Z"><animate class="optional-animation" attributeName="d" from="M1410.8,996h7.6c106.4,0,59-6,210.8-6h5.2v10h-223.6V996z" to="M1633.4,990h15.2c212.8,0,118-15,421.6-15h10.4v25h-447.2V990z" dur="1s" repeatCount="indefinite"></animate></path><path d="M 1986.51 978.13 h 27.2287 c 381.201 0 211.381 -32.8056 755.238 -32.8056 h 18.6301 v 54.676 h -801.096 V 978.13 Z"><animate class="optional-animation" attributeName="d" from="M1633.4,990h15.2c212.8,0,118-15,421.6-15h10.4v25h-447.2V990z" to="M2079.6,975h30.4c425.6,0,236-37.5,843.2-37.5h20.8v62.5h-894.4V975z" dur="1s" repeatCount="indefinite"></animate></path><path d="M 2786.6 945.324 h 54.4574 c 762.403 0 422.761 -82.014 1510.48 -82.014 h 37.2603 V 1000 H 2786.6 V 945.324 Z"><animate class="optional-animation" attributeName="d" from="M2079.6,975h30.4c425.6,0,236-37.5,843.2-37.5h20.8v62.5h-894.4V975z" to="M2973,937.5h60.8c851.2,0,472-93.75,1686.4-93.75h41.6V1000H2973V937.5z" dur="1s" repeatCount="indefinite"></animate></path><path d="M 1612.32 1000 h -200.274 v -8.74816 h 4.65754 c 135.964 0 93.509 5.2489 188.809 5.2489 h 6.80717 V 1000 Z"><animate class="optional-animation" attributeName="d" from="M1700,1000h-111.8v-4h2.6c75.9,0,52.2,2.4,105.4,2.4h3.8V1000z" to="M1589.2,1000h-223.6v-10h5.2c151.8,0,104.4,6,210.8,6h7.6V1000z" dur="1s" repeatCount="indefinite"></animate></path><path d="M 1413.04 1000 H 1012.5 v -21.8704 h 9.31507 c 271.928 0 187.018 13.1222 377.619 13.1222 h 13.6143 V 1000 Z"><animate class="optional-animation" attributeName="d" from="M1589.2,1000h-223.6v-10h5.2c151.8,0,104.4,6,210.8,6h7.6V1000z" to="M1366.6,1000H919.4v-25h10.4c303.6,0,208.8,15,421.6,15h15.2V1000z" dur="1s" repeatCount="indefinite"></animate></path><path d="M 1013.5 1000 H 212.399 v -54.676 h 18.6301 C 774.886 945.324 605.065 978.13 986.266 978.13 h 27.2287 V 1000 Z"><animate class="optional-animation" attributeName="d" from="M1366.6,1000H919.4v-25h10.4c303.6,0,208.8,15,421.6,15h15.2V1000z" to="M920.4,1000H26v-62.5h20.8C654,937.5,464.4,975,890,975h30.4V1000z" dur="1s" repeatCount="indefinite"></animate></path><path d="M 213.399 1000 h -1602.19 V 863.31 h 37.2603 c 1087.71 0 748.072 82.014 1510.48 82.014 H 213.399 V 1000 Z"><animate class="optional-animation" attributeName="d" from="M920.4,1000H26v-62.5h20.8C654,937.5,464.4,975,890,975h30.4V1000z" to="M27,1000h-1788.8V843.75h41.6c1214.4,0,835.2,93.75,1686.4,93.75H27V1000z" dur="1s" repeatCount="indefinite"></animate></path><rect x="0" y="997" width="3000" height="700"></rect></g>
</svg>
