<?xml version="1.0" encoding="utf-8"?>
<!-- Generator: Adobe Illustrator 17.0.0, SVG Export Plug-In . SVG Version: 6.00 Build 0)  -->
<!DOCTYPE svg PUBLIC "-//W3C//DTD SVG 1.1//EN" "http://www.w3.org/Graphics/SVG/1.1/DTD/svg11.dtd">
<svg version="1.1" id="Layer_1" xmlns="http://www.w3.org/2000/svg" xmlns:xlink="http://www.w3.org/1999/xlink" x="0px" y="0px"
	 width="3000px" height="1000px" viewBox="0 0 3000 1000" enable-background="new 0 0 3000 1000" xml:space="preserve">
<g><path d="M1300,997.6h5.7c79.8,0,44.25-3.6,158.1-3.6h3.9v6H1300V997.6z"><animate class="optional-animation" attributeName="d"from="M1300,997.6h5.7c79.8,0,44.25-3.6,158.1-3.6h3.9v6H1300V997.6z"to="M1466.7,994h5.7c79.8,0,44.25-9,158.1-9h3.9v15h-167.7V994z"dur="5s"repeatCount="indefinite" /></path><path d="M1466.7,994h5.7c79.8,0,44.25-9,158.1-9h3.9v15h-167.7V994z"><animate class="optional-animation" attributeName="d"from="M1466.7,994h5.7c79.8,0,44.25-9,158.1-9h3.9v15h-167.7V994z"to="M1633.4,985h5.7c79.8,0,44.25-22.5,158.1-22.5h3.9v37.5h-167.7V985z"dur="5s"repeatCount="indefinite" /></path><path d="M1633.4,985h5.7c79.8,0,44.25-22.5,158.1-22.5h3.9v37.5h-167.7V985z"><animate class="optional-animation" attributeName="d"from="M1633.4,985h5.7c79.8,0,44.25-22.5,158.1-22.5h3.9v37.5h-167.7V985z"to="M1800.1,962.5h5.7c79.8,0,44.25-56.25,158.1-56.25h3.9V1000h-167.7V962.5z"dur="5s"repeatCount="indefinite" /></path><path d="M1800.1,962.5h5.7c79.8,0,44.25-56.25,158.1-56.25h3.9V1000h-167.7V962.5z"><animate class="optional-animation" attributeName="d"from="M1800.1,962.5h5.7c79.8,0,44.25-56.25,158.1-56.25h3.9V1000h-167.7V962.5z"to="M1966.8,906.25h5.7c79.8,0,44.25-140.625,158.1-140.625h3.9V1000h-167.7V906.25z"dur="5s"repeatCount="indefinite" /></path><path d="M1966.8,906.25h5.7c79.8,0,44.25-140.625,158.1-140.625h3.9V1000h-167.7V906.25z"><animate class="optional-animation" attributeName="d"from="M1966.8,906.25h5.7c79.8,0,44.25-140.625,158.1-140.625h3.9V1000h-167.7V906.25z"to="M2133.5,765.625h5.7c79.8,0,44.25-351.562,158.1-351.562h3.9V1000h-167.7V765.625z"dur="5s"repeatCount="indefinite" /></path><path d="M2133.5,765.625h5.7c79.8,0,44.25-351.562,158.1-351.562h3.9V1000h-167.7V765.625z"><animate class="optional-animation" attributeName="d"from="M2133.5,765.625h5.7c79.8,0,44.25-351.562,158.1-351.562h3.9V1000h-167.7V765.625z"to="M2300.2,414.063h5.7c79.8,0,44.25-878.906,158.1-878.906h3.9V1000h-167.7V414.063z"dur="5s"repeatCount="indefinite" /></path><path d="M2300.2,414.063h5.7c79.8,0,44.25-878.906,158.1-878.906h3.9V1000h-167.7V414.063z"><animate class="optional-animation" attributeName="d"from="M2300.2,414.063h5.7c79.8,0,44.25-878.906,158.1-878.906h3.9V1000h-167.7V414.063z"to="M2466.9-464.844h5.7c79.8,0,44.25-2197.266,158.1-2197.266h3.9V1000h-167.7V-464.844z"dur="5s"repeatCount="indefinite" /></path><path d="M2466.9-464.844h5.7c79.8,0,44.25-2197.266,158.1-2197.266h3.9V1000h-167.7V-464.844z"><animate class="optional-animation" attributeName="d"from="M2466.9-464.844h5.7c79.8,0,44.25-2197.266,158.1-2197.266h3.9V1000h-167.7V-464.844z"to="M2633.6-2662.109h5.7c79.8,0,44.25-5493.164,158.1-5493.164h3.9V1000h-167.7V-2662.109z"dur="5s"repeatCount="indefinite" /></path><path d="M2633.6-2662.109h5.7c79.8,0,44.25-5493.164,158.1-5493.164h3.9V1000h-167.7V-2662.109z"><animate class="optional-animation" attributeName="d"from="M2633.6-2662.109h5.7c79.8,0,44.25-5493.164,158.1-5493.164h3.9V1000h-167.7V-2662.109z"to="M2799.6-8155.273h5.7c79.8,0,44.25-13732.91,158.1-13732.91h3.9V1000h-167.7V-8155.273z"dur="5s"repeatCount="indefinite" /></path><path d="M1700,1000h-167.7v-6h3.9c113.85,0,78.3,3.6,158.1,3.6h5.7V1000z"><animate class="optional-animation" attributeName="d"from="M1700,1000h-167.7v-6h3.9c113.85,0,78.3,3.6,158.1,3.6h5.7V1000z"to="M1533.3,1000h-167.7v-15h3.9c113.85,0,78.3,9,158.1,9h5.7V1000z"dur="5s"repeatCount="indefinite" /></path><path d="M1533.3,1000h-167.7v-15h3.9c113.85,0,78.3,9,158.1,9h5.7V1000z"><animate class="optional-animation" attributeName="d"from="M1533.3,1000h-167.7v-15h3.9c113.85,0,78.3,9,158.1,9h5.7V1000z"to="M1366.6,1000h-167.7v-37.5h3.9c113.85,0,78.3,22.5,158.1,22.5h5.7V1000z"dur="5s"repeatCount="indefinite" /></path><path d="M1366.6,1000h-167.7v-37.5h3.9c113.85,0,78.3,22.5,158.1,22.5h5.7V1000z"><animate class="optional-animation" attributeName="d"from="M1366.6,1000h-167.7v-37.5h3.9c113.85,0,78.3,22.5,158.1,22.5h5.7V1000z"to="M1199.9,1000h-167.7v-93.75h3.9c113.85,0,78.3,56.25,158.1,56.25h5.7V1000z"dur="5s"repeatCount="indefinite" /></path><path d="M1199.9,1000h-167.7v-93.75h3.9c113.85,0,78.3,56.25,158.1,56.25h5.7V1000z"><animate class="optional-animation" attributeName="d"from="M1199.9,1000h-167.7v-93.75h3.9c113.85,0,78.3,56.25,158.1,56.25h5.7V1000z"to="M1033.2,1000H865.5V765.625h3.9c113.85,0,78.3,140.625,158.1,140.625h5.7V1000z"dur="5s"repeatCount="indefinite" /></path><path d="M1033.2,1000H865.5V765.625h3.9c113.85,0,78.3,140.625,158.1,140.625h5.7V1000z"><animate class="optional-animation" attributeName="d"from="M1033.2,1000H865.5V765.625h3.9c113.85,0,78.3,140.625,158.1,140.625h5.7V1000z"to="M866.5,1000H698.8V414.062h3.9c113.85,0,78.3,351.562,158.1,351.562h5.7V1000z"dur="5s"repeatCount="indefinite" /></path><path d="M866.5,1000H698.8V414.062h3.9c113.85,0,78.3,351.562,158.1,351.562h5.7V1000z"><animate class="optional-animation" attributeName="d"from="M866.5,1000H698.8V414.062h3.9c113.85,0,78.3,351.562,158.1,351.562h5.7V1000z"to="M699.8,1000H532.1V-464.844h3.9c113.85,0,78.3,878.906,158.1,878.906h5.7V1000z"dur="5s"repeatCount="indefinite" /></path><path d="M699.8,1000H532.1V-464.844h3.9c113.85,0,78.3,878.906,158.1,878.906h5.7V1000z"><animate class="optional-animation" attributeName="d"from="M699.8,1000H532.1V-464.844h3.9c113.85,0,78.3,878.906,158.1,878.906h5.7V1000z"to="M533.1,1000H365.4v-3662.109h3.9c113.85,0,78.3,2197.266,158.1,2197.266h5.7V1000z"dur="5s"repeatCount="indefinite" /></path><path d="M533.1,1000H365.4v-3662.109h3.9c113.85,0,78.3,2197.266,158.1,2197.266h5.7V1000z"><animate class="optional-animation" attributeName="d"from="M533.1,1000H365.4v-3662.109h3.9c113.85,0,78.3,2197.266,158.1,2197.266h5.7V1000z"to="M366.4,1000H198.7v-9155.273h3.9c113.85,0,78.3,5493.164,158.1,5493.164h5.7V1000z"dur="5s"repeatCount="indefinite" /></path><path d="M366.4,1000H198.7v-9155.273h3.9c113.85,0,78.3,5493.164,158.1,5493.164h5.7V1000z"><animate class="optional-animation" attributeName="d"from="M366.4,1000H198.7v-9155.273h3.9c113.85,0,78.3,5493.164,158.1,5493.164h5.7V1000z"to="M200.4,1000H32.7v-22888.184h3.9c113.85,0,78.3,13732.91,158.1,13732.91h5.7L200.4,1000z"dur="5s"repeatCount="indefinite" /></path><rect x="0" y="997" width="3000" height="700"/></g>
</svg>
