<?xml version="1.0" encoding="utf-8"?>
<!-- Generator: Adobe Illustrator 17.0.0, SVG Export Plug-In . SVG Version: 6.00 Build 0)  -->
<!DOCTYPE svg PUBLIC "-//W3C//DTD SVG 1.1//EN" "http://www.w3.org/Graphics/SVG/1.1/DTD/svg11.dtd">
<svg version="1.1" id="Layer_1" xmlns="http://www.w3.org/2000/svg" xmlns:xlink="http://www.w3.org/1999/xlink" x="0px" y="0px"
	 width="3000px" height="1000px" viewBox="0 0 3000 1000" enable-background="new 0 0 3000 1000" xml:space="preserve">
<g><path d="M 1353.29 999.793 v -1.44948 c 17.352 -0.828272 32.6863 -2.48482 46.8099 -3.10602 c 16.5449 -0.828272 20.782 0.414136 23.2032 1.24241 c 2.62297 1.03534 6.25478 0.621204 11.5007 0.207068 c 16.5449 -1.24241 22.5979 1.44948 15.7378 3.31309 H 1353.29 V 999.793 Z"><animate class="optional-animation" attributeName="d" from="M1350,999.8v-1.4c17.2-0.8,32.4-2.4,46.4-3c16.4-0.8,20.6,0.4,23,1.2c2.6,1,6.2,0.6,11.4,0.2c16.4-1.2,22.4,1.4,15.6,3.2
    H1350V999.8z" to="M1443.156,999.6v-2.8c21.5-1.6,40.5-4.8,58-6c20.5-1.6,25.75,0.8,28.75,2.4c3.25,2,7.75,1.2,14.25,0.4
    c20.5-2.4,28,2.8,19.5,6.4h-120.5V999.6z" dur="2s" repeatCount="indefinite"></animate></path><path d="M 1447.34 999.586 v -2.89895 c 21.69 -1.65654 40.8578 -4.96963 58.5124 -6.21204 c 20.6811 -1.65654 25.9775 0.828272 29.004 2.48482 c 3.2787 2.07068 7.81849 1.24241 14.3759 0.414136 c 20.6811 -2.48482 28.2474 2.89895 19.6723 6.62617 h -121.565 V 999.586 Z"><animate class="optional-animation" attributeName="d" from="M1443.156,999.6v-2.8c21.5-1.6,40.5-4.8,58-6c20.5-1.6,25.75,0.8,28.75,2.4c3.25,2,7.75,1.2,14.25,0.4
    c20.5-2.4,28,2.8,19.5,6.4h-120.5V999.6z" to="M1561.413,999.2v-5.6c26.875-3.2,50.625-9.6,72.5-12c25.625-3.2,32.188,1.6,35.938,4.8c4.062,4,9.688,2.4,17.812,0.8
    c25.625-4.8,35,5.6,24.375,12.8h-150.625V999.2z" dur="2s" repeatCount="indefinite"></animate></path><path d="M 1566.53 999.172 v -5.7979 c 27.1124 -3.31309 51.0723 -9.93926 73.1405 -12.4241 c 25.8514 -3.31309 32.4723 1.65654 36.2555 4.96963 c 4.0979 4.14136 9.77356 2.48482 17.9694 0.828272 c 25.8514 -4.96963 35.3092 5.7979 24.5904 13.2523 h -151.956 V 999.172 Z"><animate class="optional-animation" attributeName="d" from="M1561.413,999.2v-5.6c26.875-3.2,50.625-9.6,72.5-12c25.625-3.2,32.188,1.6,35.938,4.8c4.062,4,9.688,2.4,17.812,0.8
    c25.625-4.8,35,5.6,24.375,12.8h-150.625V999.2z" to="M1706.297,998.4v-11.2c33.594-6.4,63.281-19.2,90.625-24c32.031-6.4,40.234,3.2,44.922,9.6c5.078,8,12.109,4.8,22.266,1.6
    c32.031-9.6,43.75,11.2,30.469,25.6h-188.281V998.4z" dur="2s" repeatCount="indefinite"></animate></path><path d="M 1712.82 998.344 v -11.5958 c 33.8908 -6.62617 63.8401 -19.8785 91.4257 -24.8482 c 32.314 -6.62617 40.5895 3.31309 45.3189 9.93926 c 5.12288 8.28272 12.216 4.96963 22.4627 1.65654 c 32.314 -9.93926 44.1365 11.5958 30.7382 26.5047 h -189.944 V 998.344 Z"><animate class="optional-animation" attributeName="d" from="M1706.297,998.4v-11.2c33.594-6.4,63.281-19.2,90.625-24c32.031-6.4,40.234,3.2,44.922,9.6c5.078,8,12.109,4.8,22.266,1.6
    c32.031-9.6,43.75,11.2,30.469,25.6h-188.281V998.4z" to="M1890.839,996.8v-22.4c41.992-12.8,79.102-38.4,113.281-48c40.039-12.8,50.293,6.4,56.152,19.2
    c6.348,16,15.137,9.6,27.832,3.2c40.039-19.2,54.688,22.4,38.086,51.2h-235.352V996.8z" dur="2s" repeatCount="indefinite"></animate></path><path d="M 1898.81 996.687 v -23.1916 c 42.363 -13.2523 79.8008 -39.757 114.282 -49.6963 c 40.3927 -13.2523 50.7373 6.62617 56.6481 19.8785 c 6.40408 16.5654 15.2707 9.93926 28.0779 3.31309 c 40.3927 -19.8785 55.1711 23.1916 38.4225 53.0094 h -237.431 V 996.687 Z"><animate class="optional-animation" attributeName="d" from="M1890.839,996.8v-22.4c41.992-12.8,79.102-38.4,113.281-48c40.039-12.8,50.293,6.4,56.152,19.2
    c6.348,16,15.137,9.6,27.832,3.2c40.039-19.2,54.688,22.4,38.086,51.2h-235.352V996.8z" to="M2116.328,993.6v-44.8c52.49-25.6,98.877-76.8,141.602-96c50.049-25.6,62.866,12.8,70.19,38.4
    c7.935,32,18.921,19.2,34.79,6.4c50.049-38.4,68.359,44.8,47.607,102.4h-294.189V993.6z" dur="2s" repeatCount="indefinite"></animate></path><path d="M 2126.01 993.374 v -46.3832 c 52.9538 -26.5047 99.7506 -79.5141 142.853 -99.3926 c 50.4912 -26.5047 63.4214 13.2523 70.8101 39.757 c 8.00508 33.1309 19.0882 19.8785 35.0974 6.62617 c 50.4912 -39.757 68.963 46.3832 48.0276 106.019 h -296.788 V 993.374 Z"><animate class="optional-animation" attributeName="d" from="M2116.328,993.6v-44.8c52.49-25.6,98.877-76.8,141.602-96c50.049-25.6,62.866,12.8,70.19,38.4
    c7.935,32,18.921,19.2,34.79,6.4c50.049-38.4,68.359,44.8,47.607,102.4h-294.189V993.6z" to="M2390.262,987.2v-89.6c65.613-51.2,123.596-153.6,177.002-192c62.561-51.2,78.583,25.6,87.738,76.8
    c9.918,64,23.651,38.4,43.488,12.8c62.561-76.8,85.449,89.6,59.509,204.8h-367.737V987.2z" dur="2s" repeatCount="indefinite"></animate></path><path d="M 2402.48 986.748 v -92.7664 c 66.1927 -53.0094 124.688 -159.028 178.566 -198.785 c 63.1137 -53.0094 79.2773 26.5047 88.5132 79.5141 c 10.0056 66.2617 23.86 39.757 43.8722 13.2523 c 63.1137 -79.5141 86.204 92.7664 60.0348 212.038 h -370.986 V 986.748 Z"><animate class="optional-animation" attributeName="d" from="M2390.262,987.2v-89.6c65.613-51.2,123.596-153.6,177.002-192c62.561-51.2,78.583,25.6,87.738,76.8
    c9.918,64,23.651,38.4,43.488,12.8c62.561-76.8,85.449,89.6,59.509,204.8h-367.737V987.2z" to="M2735.981,974.4V795.2c82.016-102.4,154.495-307.2,221.252-384c78.201-102.4,98.229,51.2,109.673,153.6
    c12.398,128,29.564,76.8,54.359,25.6c78.201-153.6,106.812,179.2,74.387,409.6h-459.671V974.4z" dur="2s" repeatCount="indefinite"></animate></path><path d="M 2751.35 973.495 V 787.962 c 82.7406 -106.019 155.86 -318.056 223.207 -397.57 c 78.8919 -106.019 99.0968 53.0094 110.642 159.028 c 12.5075 132.523 29.8252 79.5141 54.8393 26.5047 c 78.8919 -159.028 107.756 185.533 75.0442 424.075 h -463.732 V 973.495 Z"><animate class="optional-animation" attributeName="d" from="M2735.981,974.4V795.2c82.016-102.4,154.495-307.2,221.252-384c78.201-102.4,98.229,51.2,109.673,153.6
    c12.398,128,29.564,76.8,54.359,25.6c78.201-153.6,106.812,179.2,74.387,409.6h-459.671V974.4z" to="M3170.879,948.8V590.4c102.52-204.8,193.119-614.4,276.565-768c97.752-204.8,122.786,102.4,137.091,307.2
    c15.497,256,36.955,153.6,67.949,51.2c97.752-307.2,133.514,358.4,92.983,819.2h-574.589V948.8z" dur="2s" repeatCount="indefinite"></animate></path><path d="M 1646.71 1000 h -97.2517 c -6.86008 -1.86361 -0.807068 -4.55549 15.7378 -3.31309 c 5.24594 0.414136 8.87775 0.828272 11.5007 -0.207068 c 2.4212 -0.828272 6.65831 -2.07068 23.2032 -1.24241 c 14.1237 0.621204 29.458 2.27775 46.8099 3.10602 v 1.44948 V 1000 Z"><animate class="optional-animation" attributeName="d" from="M1650,1000h-96.4c-6.8-1.8-0.8-4.4,15.6-3.2c5.2,0.4,8.8,0.8,11.4-0.2c2.4-0.8,6.6-2,23-1.2c14,0.6,29.2,2.2,46.4,3v1.4
    V1000z" to="M1556.844,1000h-120.5c-8.5-3.6-1-8.8,19.5-6.4c6.5,0.8,11,1.6,14.25-0.4c3-1.6,8.25-4,28.75-2.4c17.5,1.2,36.5,4.4,58,6
    v2.8V1000z" dur="2s" repeatCount="indefinite"></animate></path><path d="M 1552.66 1000 h -121.565 c -8.5751 -3.72722 -1.00883 -9.11099 19.6723 -6.62617 c 6.55743 0.828272 11.0972 1.65654 14.3759 -0.414136 c 3.0265 -1.65654 8.32287 -4.14136 29.004 -2.48482 c 17.6546 1.24241 36.8225 4.55549 58.5124 6.21204 v 2.89895 V 1000 Z"><animate class="optional-animation" attributeName="d" from="M1556.844,1000h-120.5c-8.5-3.6-1-8.8,19.5-6.4c6.5,0.8,11,1.6,14.25-0.4c3-1.6,8.25-4,28.75-2.4c17.5,1.2,36.5,4.4,58,6
    v2.8V1000z" to="M1438.587,1000h-150.625c-10.625-7.2-1.25-17.6,24.375-12.8c8.125,1.6,13.75,3.2,17.812-0.8c3.75-3.2,10.312-8,35.938-4.8
    c21.875,2.4,45.625,8.8,72.5,12v5.6V1000z" dur="2s" repeatCount="indefinite"></animate></path><path d="M 1433.47 1000 h -151.956 c -10.7189 -7.45445 -1.26103 -18.222 24.5904 -13.2523 c 8.19677 1.65654 13.8715 3.31309 17.9694 -0.828272 c 3.78315 -3.31309 10.4031 -8.28272 36.2555 -4.96963 c 22.0683 2.48482 46.0281 9.11099 73.1405 12.4241 v 5.7979 V 1000 Z"><animate class="optional-animation" attributeName="d" from="M1438.587,1000h-150.625c-10.625-7.2-1.25-17.6,24.375-12.8c8.125,1.6,13.75,3.2,17.812-0.8c3.75-3.2,10.312-8,35.938-4.8
    c21.875,2.4,45.625,8.8,72.5,12v5.6V1000z" to="M1293.703,1000h-188.281c-13.281-14.4-1.562-35.2,30.469-25.6c10.156,3.2,17.188,6.4,22.266-1.6
    c4.688-6.4,12.891-16,44.922-9.6c27.344,4.8,57.031,17.6,90.625,24v11.2V1000z" dur="2s" repeatCount="indefinite"></animate></path><path d="M 1287.18 1000 h -189.944 c -13.3984 -14.9089 -1.57582 -36.444 30.7382 -26.5047 c 10.2457 3.31309 17.3398 6.62617 22.4627 -1.65654 c 4.72938 -6.62617 13.0049 -16.5654 45.3189 -9.93926 c 27.5856 4.96963 57.5349 18.222 91.4257 24.8482 v 11.5958 V 1000 Z"><animate class="optional-animation" attributeName="d" from="M1293.703,1000h-188.281c-13.281-14.4-1.562-35.2,30.469-25.6c10.156,3.2,17.188,6.4,22.266-1.6
    c4.688-6.4,12.891-16,44.922-9.6c27.344,4.8,57.031,17.6,90.625,24v11.2V1000z" to="M1109.161,1000H873.81c-16.602-28.8-1.953-70.4,38.086-51.2c12.695,6.4,21.484,12.8,27.832-3.2
    c5.859-12.8,16.113-32,56.152-19.2c34.18,9.6,71.289,35.2,113.281,48v22.4V1000z" dur="2s" repeatCount="indefinite"></animate></path><path d="M 1101.19 1000 H 863.762 c -16.7487 -29.8178 -1.97025 -72.8879 38.4225 -53.0094 c 12.8072 6.62617 21.6738 13.2523 28.0779 -3.31309 c 5.91077 -13.2523 16.2554 -33.1309 56.6481 -19.8785 c 34.482 9.93926 71.9188 36.444 114.282 49.6963 v 23.1916 V 1000 Z"><animate class="optional-animation" attributeName="d" from="M1109.161,1000H873.81c-16.602-28.8-1.953-70.4,38.086-51.2c12.695,6.4,21.484,12.8,27.832-3.2
    c5.859-12.8,16.113-32,56.152-19.2c34.18,9.6,71.289,35.2,113.281,48v22.4V1000z" to="M883.672,1000H589.482c-20.752-57.6-2.441-140.8,47.607-102.4c15.869,12.8,26.855,25.6,34.79-6.4
    c7.324-25.6,20.142-64,70.19-38.4c42.725,19.2,89.111,70.4,141.602,96v44.8V1000z" dur="2s" repeatCount="indefinite"></animate></path><path d="M 873.991 1000 H 577.202 c -20.9353 -59.6356 -2.46259 -145.776 48.0276 -106.019 c 16.0092 13.2523 27.0923 26.5047 35.0974 -6.62617 c 7.38871 -26.5047 20.3199 -66.2617 70.8101 -39.757 c 43.1025 19.8785 89.8983 72.8879 142.853 99.3926 v 46.3832 V 1000 Z"><animate class="optional-animation" attributeName="d" from="M883.672,1000H589.482c-20.752-57.6-2.441-140.8,47.607-102.4c15.869,12.8,26.855,25.6,34.79-6.4
    c7.324-25.6,20.142-64,70.19-38.4c42.725,19.2,89.111,70.4,141.602,96v44.8V1000z" to="M609.738,1000H242.001c-25.94-115.2-3.052-281.6,59.509-204.8c19.836,25.6,33.569,51.2,43.488-12.8
    c9.155-51.2,25.177-128,87.738-76.8c53.406,38.4,111.389,140.8,177.002,192v89.6V1000z" dur="2s" repeatCount="indefinite"></animate></path><path d="M 597.52 1000 H 226.535 c -26.1692 -119.271 -3.07896 -291.552 60.0348 -212.038 c 20.0113 26.5047 33.8656 53.0094 43.8722 -13.2523 c 9.23589 -53.0094 25.3994 -132.523 88.5132 -79.5141 c 53.8778 39.757 112.373 145.776 178.566 198.785 v 92.7664 V 1000 Z"><animate class="optional-animation" attributeName="d" from="M609.738,1000H242.001c-25.94-115.2-3.052-281.6,59.509-204.8c19.836,25.6,33.569,51.2,43.488-12.8
    c9.155-51.2,25.177-128,87.738-76.8c53.406,38.4,111.389,140.8,177.002,192v89.6V1000z" to="M264.019,1000h-459.671c-32.425-230.4-3.815-563.2,74.387-409.6c24.796,51.2,41.962,102.4,54.359-25.6
    c11.444-102.4,31.471-256,109.673-153.6c66.757,76.8,139.236,281.6,221.252,384v179.2V1000z" dur="2s" repeatCount="indefinite"></animate></path><path d="M 248.65 1000 h -463.732 c -32.7115 -238.542 -3.84868 -583.103 75.0442 -424.075 c 25.015 53.0094 42.3327 106.019 54.8393 -26.5047 c 11.5451 -106.019 31.7491 -265.047 110.642 -159.028 c 67.3468 79.5141 140.466 291.552 223.207 397.57 v 185.533 V 1000 Z"><animate class="optional-animation" attributeName="d" from="M264.019,1000h-459.671c-32.425-230.4-3.815-563.2,74.387-409.6c24.796,51.2,41.962,102.4,54.359-25.6
    c11.444-102.4,31.471-256,109.673-153.6c66.757,76.8,139.236,281.6,221.252,384v179.2V1000z" to="M-170.879,1000h-574.589c-40.531-460.8-4.768-1126.4,92.983-819.2c30.994,102.4,52.452,204.8,67.949-51.2
    c14.305-204.8,39.339-512,137.091-307.2c83.447,153.6,174.046,563.2,276.566,768v358.4V1000z" dur="2s" repeatCount="indefinite"></animate></path><rect x="0" y="997" width="3000" height="700"></rect></g>
</svg>
