<?xml version="1.0" encoding="utf-8"?>
<!-- Generator: Adobe Illustrator 17.0.0, SVG Export Plug-In . SVG Version: 6.00 Build 0)  -->
<!DOCTYPE svg PUBLIC "-//W3C//DTD SVG 1.1//EN" "http://www.w3.org/Graphics/SVG/1.1/DTD/svg11.dtd">
<svg version="1.1" id="Layer_1" xmlns="http://www.w3.org/2000/svg" xmlns:xlink="http://www.w3.org/1999/xlink" x="0px" y="0px"
	 width="3000px" height="1000px" viewBox="0 0 3000 1000" enable-background="new 0 0 3000 1000" xml:space="preserve">
<g><path d="M 1389.01 995.678 h 5.7 c 79.8 0 44.25 -6.4835 158.1 -6.4835 h 3.9 v 10.8058 h -167.7 V 995.678 Z"><animate attributeName="d" from="M1300,997.6h5.7c79.8,0,44.25-3.6,158.1-3.6h3.9v6H1300V997.6z" to="M1466.7,994h5.7c79.8,0,44.25-9,158.1-9h3.9v15h-167.7V994z" dur="5s" repeatCount="indefinite"></animate></path><path d="M 1555.71 989.194 h 5.7 c 79.8 0 44.25 -16.2088 158.1 -16.2088 h 3.9 v 27.0146 h -167.7 V 989.194 Z"><animate attributeName="d" from="M1466.7,994h5.7c79.8,0,44.25-9,158.1-9h3.9v15h-167.7V994z" to="M1633.4,985h5.7c79.8,0,44.25-22.5,158.1-22.5h3.9v37.5h-167.7V985z" dur="5s" repeatCount="indefinite"></animate></path><path d="M 1722.41 972.985 h 5.7 c 79.8 0 44.25 -40.5219 158.1 -40.5219 h 3.9 V 1000 h -167.7 V 972.985 Z"><animate attributeName="d" from="M1633.4,985h5.7c79.8,0,44.25-22.5,158.1-22.5h3.9v37.5h-167.7V985z" to="M1800.1,962.5h5.7c79.8,0,44.25-56.25,158.1-56.25h3.9V1000h-167.7V962.5z" dur="5s" repeatCount="indefinite"></animate></path><path d="M 1889.11 932.464 h 5.7 c 79.8 0 44.25 -101.305 158.1 -101.305 h 3.9 V 1000 h -167.7 V 932.464 Z"><animate attributeName="d" from="M1800.1,962.5h5.7c79.8,0,44.25-56.25,158.1-56.25h3.9V1000h-167.7V962.5z" to="M1966.8,906.25h5.7c79.8,0,44.25-140.625,158.1-140.625h3.9V1000h-167.7V906.25z" dur="5s" repeatCount="indefinite"></animate></path><path d="M 2055.81 831.159 h 5.7 c 79.8 0 44.25 -253.262 158.1 -253.262 h 3.9 V 1000 h -167.7 V 831.159 Z"><animate attributeName="d" from="M1966.8,906.25h5.7c79.8,0,44.25-140.625,158.1-140.625h3.9V1000h-167.7V906.25z" to="M2133.5,765.625h5.7c79.8,0,44.25-351.562,158.1-351.562h3.9V1000h-167.7V765.625z" dur="5s" repeatCount="indefinite"></animate></path><path d="M 2222.51 577.897 h 5.7 c 79.8 0 44.25 -633.154 158.1 -633.154 h 3.9 V 1000 h -167.7 V 577.897 Z"><animate attributeName="d" from="M2133.5,765.625h5.7c79.8,0,44.25-351.562,158.1-351.562h3.9V1000h-167.7V765.625z" to="M2300.2,414.063h5.7c79.8,0,44.25-878.906,158.1-878.906h3.9V1000h-167.7V414.063z" dur="5s" repeatCount="indefinite"></animate></path><path d="M 2389.21 -55.2573 h 5.7 c 79.8 0 44.25 -1582.89 158.1 -1582.89 h 3.9 V 1000 h -167.7 V -55.2573 Z"><animate attributeName="d" from="M2300.2,414.063h5.7c79.8,0,44.25-878.906,158.1-878.906h3.9V1000h-167.7V414.063z" to="M2466.9-464.844h5.7c79.8,0,44.25-2197.266,158.1-2197.266h3.9V1000h-167.7V-464.844z" dur="5s" repeatCount="indefinite"></animate></path><path d="M 2555.91 -1638.14 h 5.7 c 79.8 0 44.25 -3957.22 158.1 -3957.22 h 3.9 V 1000 h -167.7 V -1638.14 Z"><animate attributeName="d" from="M2466.9-464.844h5.7c79.8,0,44.25-2197.266,158.1-2197.266h3.9V1000h-167.7V-464.844z" to="M2633.6-2662.109h5.7c79.8,0,44.25-5493.164,158.1-5493.164h3.9V1000h-167.7V-2662.109z" dur="5s" repeatCount="indefinite"></animate></path><path d="M 2722.24 -5595.36 h 5.7 c 79.8 0 44.25 -9893.04 158.1 -9893.04 h 3.9 V 1000 h -167.7 V -5595.36 Z"><animate attributeName="d" from="M2633.6-2662.109h5.7c79.8,0,44.25-5493.164,158.1-5493.164h3.9V1000h-167.7V-2662.109z" to="M2799.6-8155.273h5.7c79.8,0,44.25-13732.91,158.1-13732.91h3.9V1000h-167.7V-8155.273z" dur="5s" repeatCount="indefinite"></animate></path><path d="M 1610.99 1000 h -167.7 v -10.8058 h 3.9 c 113.85 0 78.3 6.4835 158.1 6.4835 h 5.7 V 1000 Z"><animate attributeName="d" from="M1700,1000h-167.7v-6h3.9c113.85,0,78.3,3.6,158.1,3.6h5.7V1000z" to="M1533.3,1000h-167.7v-15h3.9c113.85,0,78.3,9,158.1,9h5.7V1000z" dur="5s" repeatCount="indefinite"></animate></path><path d="M 1444.29 1000 h -167.7 v -27.0146 h 3.9 c 113.85 0 78.3 16.2088 158.1 16.2088 h 5.7 V 1000 Z"><animate attributeName="d" from="M1533.3,1000h-167.7v-15h3.9c113.85,0,78.3,9,158.1,9h5.7V1000z" to="M1366.6,1000h-167.7v-37.5h3.9c113.85,0,78.3,22.5,158.1,22.5h5.7V1000z" dur="5s" repeatCount="indefinite"></animate></path><path d="M 1277.59 1000 h -167.7 v -67.5365 h 3.9 c 113.85 0 78.3 40.5219 158.1 40.5219 h 5.7 V 1000 Z"><animate attributeName="d" from="M1366.6,1000h-167.7v-37.5h3.9c113.85,0,78.3,22.5,158.1,22.5h5.7V1000z" to="M1199.9,1000h-167.7v-93.75h3.9c113.85,0,78.3,56.25,158.1,56.25h5.7V1000z" dur="5s" repeatCount="indefinite"></animate></path><path d="M 1110.89 1000 H 943.185 V 831.159 h 3.9 c 113.85 0 78.3 101.305 158.1 101.305 h 5.7 V 1000 Z"><animate attributeName="d" from="M1199.9,1000h-167.7v-93.75h3.9c113.85,0,78.3,56.25,158.1,56.25h5.7V1000z" to="M1033.2,1000H865.5V765.625h3.9c113.85,0,78.3,140.625,158.1,140.625h5.7V1000z" dur="5s" repeatCount="indefinite"></animate></path><path d="M 944.185 1000 H 776.485 V 577.897 h 3.9 c 113.85 0 78.3 253.262 158.1 253.262 h 5.7 V 1000 Z"><animate attributeName="d" from="M1033.2,1000H865.5V765.625h3.9c113.85,0,78.3,140.625,158.1,140.625h5.7V1000z" to="M866.5,1000H698.8V414.062h3.9c113.85,0,78.3,351.562,158.1,351.562h5.7V1000z" dur="5s" repeatCount="indefinite"></animate></path><path d="M 777.485 1000 H 609.785 V -55.2577 h 3.9 c 113.85 0 78.3 633.154 158.1 633.154 h 5.7 V 1000 Z"><animate attributeName="d" from="M866.5,1000H698.8V414.062h3.9c113.85,0,78.3,351.562,158.1,351.562h5.7V1000z" to="M699.8,1000H532.1V-464.844h3.9c113.85,0,78.3,878.906,158.1,878.906h5.7V1000z" dur="5s" repeatCount="indefinite"></animate></path><path d="M 610.785 1000 H 443.085 v -2638.14 h 3.9 c 113.85 0 78.3 1582.89 158.1 1582.89 h 5.7 V 1000 Z"><animate attributeName="d" from="M699.8,1000H532.1V-464.844h3.9c113.85,0,78.3,878.906,158.1,878.906h5.7V1000z" to="M533.1,1000H365.4v-3662.109h3.9c113.85,0,78.3,2197.266,158.1,2197.266h5.7V1000z" dur="5s" repeatCount="indefinite"></animate></path><path d="M 444.085 1000 H 276.385 v -6595.36 h 3.9 c 113.85 0 78.3 3957.22 158.1 3957.22 h 5.7 V 1000 Z"><animate attributeName="d" from="M533.1,1000H365.4v-3662.109h3.9c113.85,0,78.3,2197.266,158.1,2197.266h5.7V1000z" to="M366.4,1000H198.7v-9155.273h3.9c113.85,0,78.3,5493.164,158.1,5493.164h5.7V1000z" dur="5s" repeatCount="indefinite"></animate></path><path d="M 200.4 1000 H 32.7 v -22888.2 h 3.9 c 113.85 0 78.3 13732.9 158.1 13732.9 h 5.7 L 200.4 1000 Z"><animate attributeName="d" from="M366.4,1000H198.7v-9155.273h3.9c113.85,0,78.3,5493.164,158.1,5493.164h5.7V1000z" to="M200.4,1000H32.7v-22888.184h3.9c113.85,0,78.3,13732.91,158.1,13732.91h5.7L200.4,1000z" dur="5s" repeatCount="indefinite"></animate></path><rect x="0" y="997" width="3000" height="700"></rect></g>
</svg>
