<?xml version="1.0" encoding="utf-8"?>
<!-- Generator: Adobe Illustrator 17.0.0, SVG Export Plug-In . SVG Version: 6.00 Build 0)  -->
<!DOCTYPE svg PUBLIC "-//W3C//DTD SVG 1.1//EN" "http://www.w3.org/Graphics/SVG/1.1/DTD/svg11.dtd">
<svg version="1.1" id="Layer_1" xmlns="http://www.w3.org/2000/svg" xmlns:xlink="http://www.w3.org/1999/xlink" x="0px" y="0px"
	 width="3000px" height="1000px" viewBox="0 0 3000 1000" enable-background="new 0 0 3000 1000" xml:space="preserve">
<g>
	<path d="M1300,998.4h3.8c53.2,0,29.5-2.4,105.4-2.4h2.6v4H1300V998.4z"/>
	<path d="M1410.8,996h7.6c106.4,0,59-6,210.8-6h5.2v10h-223.6V996z"/>
	<path d="M1633.4,990h15.2c212.8,0,118-15,421.6-15h10.4v25h-447.2V990z"/>
	<path d="M2079.6,975h30.4c425.6,0,236-37.5,843.2-37.5h20.8v62.5h-894.4V975z"/>
	<path d="M2973,937.5h60.8c851.2,0,472-93.75,1686.4-93.75h41.6V1000H2973V937.5z"/>
</g>
<g>
	<path d="M1700,1000h-111.8v-4h2.6c75.9,0,52.2,2.4,105.4,2.4h3.8V1000z"/>
	<path d="M1589.2,1000h-223.6v-10h5.2c151.8,0,104.4,6,210.8,6h7.6V1000z"/>
	<path d="M1366.6,1000H919.4v-25h10.4c303.6,0,208.8,15,421.6,15h15.2V1000z"/>
	<path d="M920.4,1000H26v-62.5h20.8C654,937.5,464.4,975,890,975h30.4V1000z"/>
	<path d="M27,1000h-1788.8V843.75h41.6c1214.4,0,835.2,93.75,1686.4,93.75H27V1000z"/>
</g>
</svg>
