<?xml version="1.0" encoding="utf-8"?>
<!-- Generator: Adobe Illustrator 17.0.0, SVG Export Plug-In . SVG Version: 6.00 Build 0)  -->
<!DOCTYPE svg PUBLIC "-//W3C//DTD SVG 1.1//EN" "http://www.w3.org/Graphics/SVG/1.1/DTD/svg11.dtd">
<svg version="1.1" id="Layer_1" xmlns="http://www.w3.org/2000/svg" xmlns:xlink="http://www.w3.org/1999/xlink" x="0px" y="0px"
	 width="3000px" height="1000px" viewBox="0 0 3000 1000" enable-background="new 0 0 3000 1000" xml:space="preserve">
<g>
	<path d="M1300,998.08h4.56c63.84,0,35.4-2.88,126.48-2.88h3.12v4.8H1300V998.08z"/>
	<path d="M1433.16,995.2h4.56c63.84,0,35.4-7.2,126.48-7.2h3.12v12h-134.16V995.2z"/>
	<path d="M1566.32,988h4.56c63.84,0,35.4-18,126.48-18h3.12v30h-134.16V988z"/>
	<path d="M1699.48,970h4.56c63.84,0,35.4-45,126.48-45h3.12v75h-134.16V970z"/>
	<path d="M1832.64,925h4.56c63.84,0,35.4-112.5,126.48-112.5h3.12V1000h-134.16V925z"/>
	<path d="M1965.8,812.5h4.56c63.84,0,35.4-281.25,126.48-281.25h3.12V1000H1965.8V812.5z"/>
	<path d="M2098.96,531.25h4.56c63.84,0,35.4-703.125,126.48-703.125h3.12V1000h-134.16V531.25z"/>
	<path d="M2232.12-171.875h4.56c63.84,0,35.4-1757.813,126.48-1757.813h3.12V1000h-134.16V-171.875z"/>
	<path d="M2365.453-1929.687h4.56c63.84,0,35.4-4394.531,126.48-4394.531h3.12V1000h-134.16V-1929.687z"/>
	<path d="M2498.613-6324.218h4.56c63.84,0,35.4-10986.328,126.48-10986.328h3.12V1000h-134.16V-6324.218z"/>
</g>
<g>
	<path d="M1700,1000h-134.16v-4.8h3.12c91.08,0,62.64,2.88,126.48,2.88h4.56V1000z"/>
	<path d="M1566.84,1000h-134.16v-12h3.12c91.08,0,62.64,7.2,126.48,7.2h4.56V1000z"/>
	<path d="M1433.68,1000h-134.16v-30h3.12c91.08,0,62.64,18,126.48,18h4.56V1000z"/>
	<path d="M1300.52,1000h-134.16v-75h3.12c91.08,0,62.64,45,126.48,45h4.56V1000z"/>
	<path d="M1167.36,1000H1033.2V812.5h3.12c91.08,0,62.64,112.5,126.48,112.5h4.56V1000z"/>
	<path d="M1034.2,1000H900.04V531.25h3.12c91.08,0,62.64,281.25,126.48,281.25h4.56V1000z"/>
	<path d="M901.04,1000H766.88V-171.875H770c91.08,0,62.64,703.125,126.48,703.125h4.56V1000z"/>
	<path d="M767.88,1000H633.72v-2929.688h3.12c91.08,0,62.64,1757.813,126.48,1757.813h4.56V1000z"/>
	<path d="M634.547,1000h-134.16v-7324.219h3.12c91.08,0,62.64,4394.531,126.48,4394.531h4.56V1000z"/>
	<path d="M501.387,1000h-134.16v-18310.547h3.12c91.08,0,62.64,10986.328,126.48,10986.328h4.56V1000z"/>
</g>
</svg>
