<?xml version="1.0" encoding="utf-8"?>
<!-- Generator: Adobe Illustrator 17.0.0, SVG Export Plug-In . SVG Version: 6.00 Build 0)  -->
<!DOCTYPE svg PUBLIC "-//W3C//DTD SVG 1.1//EN" "http://www.w3.org/Graphics/SVG/1.1/DTD/svg11.dtd">
<svg version="1.1" id="Layer_1" xmlns="http://www.w3.org/2000/svg" xmlns:xlink="http://www.w3.org/1999/xlink" x="0px" y="0px"
	 width="612px" height="792px" viewBox="0 0 612 792" enable-background="new 0 0 612 792" xml:space="preserve">
<g>

	<g class="fairy" transform="translate(310,40)">
		


		<g class="fairy-body">
			<animateTransform attributeName="transform"
	                          attributeType="XML"
	                          type="translate"
	                          from="0 -5"
	        									to="0 -5"
	                          dur="4s"
	                          begin="0.3s"
	                          keySplines="
									            0.455 0.030 0.515 1;  
									            0.455 0.030 0.515 1;"
	                          values="0 -5;0 10;0 -5"
	                          calcMode="spline"
	                          repeatCount="indefinite"/>


			<circle cx="10" cy="10.2" r="3.6"/>
			<path d="M9.7,7.1c1.9-1.3,8.8-7.9,9.7-7S19,3.4,16.2,5.1c-2.6,1.6-6.2,2.4-6.2,2.4L9.7,7.1z">
				<animateTransform
					attributeName="transform"
					type="rotate"
					values="-20,9,7.5; 30,9,7.5; 0,9,7.5"
					dur="0.2s"
					repeatCount="indefinite"
					/>
			</path>
			<path d="M10,7.3C8.1,6,1.2-0.5,0.3,0.3S1,4.9,3.9,6s5.8,1.7,5.8,1.7L10,7.3z">
				<animateTransform
					attributeName="transform"
					type="rotate"
					values="20,9,7.5; -30,9,7.5; 0,9,7.5"
					dur="0.2s"
					repeatCount="indefinite"
					/>
			</path>
		</g>


		<g class="fairy-particles" transform="translate(-260,-155)">

		</g>


	</g>


	<g>
		<g>
			<path fill="#294A58" d="M462.447,791.656l-6.491-54.523l-25.619-69.604l-3.245-45.168l-1.871-2.864l0.496-8.476l-13.096-52.346
				l-0.496-17.143l-35.966-84.495l0.382-66.931c0,0-16.456-79.837-16.952-80.638c-0.496-0.802-5.613-119.201-5.613-119.201
				l13.096,25.543l17.143,46.924l-4.047,18.632l-4.734,51.277l5.803,27.223l5.918,1.756l4.925-10.462l-0.496-11.912l6.3-9.774
				l1.756,20.694l-4.353,21.801l4.734,4.544c0,0-0.878,4.544-1.489,7.483c-0.611,2.94-1.756,6.491-0.878,7.674
				c0.878,1.184,5.727,6.491,5.727,6.491c4.429,6.987,6.987,7.407,9.469,6.72c2.482-0.687,11.149-10.729,12.6-13.707
				c1.489-2.94,11.225-27.223,10.538-40.014c-0.687-12.829-5.422-48.108-5.422-48.108l-21.801-36.387l-31.652-104.311v-1.565
				l4.925-17.334l-7.178-19.816l-11.34-23.558l-31.156-16.265l-20.503,6.414l-37.57-1.565l-4.925-1.871l-8.858-14.776
				c0.305-0.573,0.687-1.375,1.184-2.482c2.367-5.04,5.613-14.967,5.04-28.903c-0.802-16.876-10.538-28.407-18.327-34.516
				c-6.491-5.231-14.28-6.911-23.176-5.536c-1.68,0.305-3.245,0.573-4.925,1.069C209.65,4.325,200.792,12,198.616,16.047
				s-6.033,15.272-4.544,32.53c1.069,13.02,5.727,24.932,10.729,32.034c1.565,2.253,3.436,3.742,5.04,4.849
				c6.605,4.734,23.176,3.742,23.176,3.742l11.149,11.531l-24.169,27.414l-7.789,6.033l-11.836,7.789l-2.482,32.416l15.769,23.252
				l-5.536,57.653l-10.347,25.047l-8.285,7.98l-9.163,17.334c0,0-8.858,9.774-17.334,25.238
				c-8.476,15.463-13.516,36.692-13.516,36.692l3.245,22.489l10.538,16.952l3.551,0.305l1.68-5.231l2.558-1.68l5.918-0.496
				l3.551-10.347l2.749-26.918l8.362-11.454l4.62,5.918l-0.687,14.089l4.734,5.231l11.645-12.829l-3.742-9.469l-3.245-16.647
				l5.803-30.774l-1.375-6.491l19.014-41.388l7.903,32.53l1.489,15.883l-36.768,119.888l-30.545,67.619v24.932l4.734,8.591
				l2.94,61.433l-7.674,9.851l5.727,23.94l1.985,28.292l-7.903,15.769v2.253l-5.727,7.903l-1.756,12.142l3.665,20.198
				c0,0,104.807,17.258,105.494,16.571c0.687-0.687,3.742-29.667,3.742-29.667s-9.965-23.176-9.965-23.749
				c0-0.573-0.802-2.558-0.802-3.169c0-0.611-8.858-48.49-8.858-48.49s1.68-7.598,2.749-9.774c1.069-2.176,1.184-6.414,0.573-9.354
				c-0.611-2.94-1.871-6.491-1.871-9.278s0.191-24.741,0.573-26.116c0.382-1.375,0.802-1.756,1.756-3.245
				c0.993-1.489,0-1.756,0.305-3.36c0.305-1.565-1.184,0-1.565-0.687c-0.382-0.687,0.878-0.878,1.68-2.482
				c0.802-1.565-0.573,0.191-0.382-1.184c0.191-1.375,0.191-1.298,0.802-2.253c0.573-0.993,0-0.878-0.191-1.871
				c-0.191-0.993-1.565-1.184-1.375-2.367s0.573-1.298-0.115-2.367c-0.687-1.069-0.993-2.176-0.993-3.055s0-1.756,0.496-3.245
				c0.496-1.489,0.687-1.756,0.687-2.749s2.176-4.62,3.169-4.544c0.993,0.076,0,0.878,1.298,2.062
				c0.305,0.305,0.496,0.496,0.496,0.496l0,0l0,0l0,0l0,0l0,0l0,0l0,0l0,0c0,0,0.115,0.115,0.305,0.305
				c0.878,0.878,0.802,1.069,0.802,2.253s0,2.749-0.573,3.551c-0.573,0.802-0.305,0.993-0.115,2.253
				c0.191,1.26,0.802,1.489,1.565,2.367c0.802,0.878,1.298,4.734,1.298,10.347c0,5.613,0.115,40.51,0,42.19
				s-0.305,4.047,1.375,3.742c1.68-0.305,1.489-1.375,2.253-2.253c0.802-0.878-0.802-1.565-0.802-3.856
				c0-2.291,0.496-4.925,0.878-5.422c0.382-0.496,0.878-0.993,0.993-1.871c0.115-0.878-2.482-1.756-2.062-3.551
				c0.382-1.756-0.115-2.94-0.382-5.422c-0.267-2.482,1.298-11.225,0.802-11.912c-0.496-0.687-0.993-1.565-1.298-2.558
				c-0.305-0.993,0.115-0.993,0.382-1.871c0.305-0.878-0.802-19.816-0.802-20.312c0-0.496,0.382-4.429,0.993-5.727
				c0.611-1.298,0.115-3.742,0.115-4.544c0-0.802-2.558,0.878-2.749,0.115c-0.191-0.802-2.176-3.856-1.68-4.734
				c0.496-0.878,2.176-1.069,2.062-1.68c-0.115-0.611-2.367-4.544-2.367-4.544s1.184-10.538,1.184-11.645s-0.878-4.734-0.878-4.734
				l4.124-40.319l-15.883-29.972l22.87-91.1l46.619-1.985l6.911,69.909l3.436,47.803l-9.354,11.454v4.429l-0.993,2.062
				c0,0-0.115,24.169-0.382,25.734c-0.305,1.565-1.375,4.353-1.375,8.285c0,3.933,0,27.299,0,29.59c0,2.253-0.305,7.598-0.115,8.362
				c0.191,0.802,0.191,6.796,0.382,8.362c0.191,1.565,0,6.109-0.191,7.903c-0.305,1.756,0.878,3.933,0.878,5.231
				c0,1.298,0,4.544,0,7.407s0,7.102-0.305,7.674c-0.305,0.573-0.382,0.802-0.305,2.253c0.115,1.565-0.573,3.856-0.687,5.422
				c0,1.565,0.573,2.482,1.184,2.482c0.573,0,0.993-0.573,0.993-1.565c0-0.993,0-11.912,0-12.142c0-0.191,0.191-1.069,0.573-1.489
				c0.382-0.382-0.305-1.565-0.496-2.253c-0.191-0.687-0.115-3.856-0.115-4.734c0-0.878,0.305-0.878,0.993-1.375
				c0.687-0.496-0.687-3.436-0.687-4.238c0-0.802-0.115-5.231,0-6.224c0.115-0.993,0.802-2.062,0.305-3.36
				c-0.496-1.298,0.305-4.544,0.802-6.033c0.496-1.489,0.802-5.231,0.802-7.789c0-2.558-0.305-5.307,0.115-4.925
				c0.42,0.382,0.802,2.367,1.489,3.742c0.687,1.374,0.305,5.231,0.382,6.911c0.076,1.68,0,4.238,0.382,5.307
				c0.382,1.069,0.802,0.993,0.496,2.367c-0.305,1.375-0.382,4.047-0.115,5.804c0.267,1.756,0.573,7.98,0.573,11.722
				c0,3.742,0.496,14.585,0.573,16.38c0.115,1.756-0.573,7.407-0.573,8.973c0,1.565,0.878,3.856,0.878,5.04s0,21.801,0,27.719
				c0,5.918-0.993,8.782-0.115,9.774c0.878,0.993,1.489,0.802,1.565-1.985c0.115-2.749-0.802-3.36-0.802-5.04s0-8.973,0-9.66
				c0-0.687,0.573-1.756,0.573-2.94s-0.802-2.864-0.802-6.414s0-26.421,0-26.421s0.115-2.253,0.802-2.749
				c0.687-0.496,0.382-2.482,0.382-5.918s0.802-4.353,0.802-4.353l10.347,81.631l-2.749,8.171c9.354,26.116,9.163,76.4,9.163,76.4
				L462.447,791.656z M203.541,55.564c-3.054,0-4.544-3.245-4.544-7.483c0-2.558,1.565-7.293,5.04-6.911
				c3.436,0.382,4.734,7.483,4.734,9.354C208.696,53.579,206.405,55.564,203.541,55.564z M240.92,42.545
				c-3.436-0.382-7.674-5.116-7.674-8.782c0-3.665,2.749-4.849,2.864-4.849c5.307-0.382,10.462,5.307,10.462,8.591
				C246.571,40.788,244.357,42.927,240.92,42.545z"/>
			<polygon fill="#2A6569" points="264.364,536.951 263.867,536.454 263.982,536.34 263.867,536.454 263.982,536.34 263.982,536.34 
				263.982,536.225 264.096,536.225 			"/>
		</g>
		<path fill="#284C5A" d="M263.982,536.34L263.982,536.34L263.982,536.34z"/>
		<g>
			<g>
				<path fill="#2A6569" d="M229.199,21.545c1.985,0.687,2.253,1.489,5.727,1.756c2.176,0.191,6.605-0.305,8.782,2.367
					c0.496,0.573,0.802,1.375,0.573,2.367c-0.993,3.36-16.151,1.184-17.563-4.734C226.412,22.232,227.328,20.934,229.199,21.545z"/>
				<path fill="#2A6569" d="M202.472,41.17c2.673-3.245,2.94-7.293,1.375-7.674s-3.36,2.367-5.422,4.353
					c-0.993,0.993-2.94,2.558-0.993,4.62C198.31,43.537,200.22,43.805,202.472,41.17z"/>
				<g>
					<g>
						<g>
							<polygon fill="#2A6569" points="168.071,370.902 163.909,365.022 160.969,395.872 166.887,407.403 170.629,402.477 
								171.126,400.492 168.758,393.581 							"/>
						</g>
						<polygon fill="#2A6569" points="224.274,244.828 205.908,293.318 203.656,295.189 200.907,303.092 171.698,354.369 
							174.676,359.295 173.569,394.192 177.044,399.995 182.351,391.214 185.52,364.525 195.371,342.037 198.921,344.098 
							201.67,358.875 198.73,371.016 201.67,375.063 212.132,363.724 211.75,353.186 207.207,338.104 214.385,307.521 
							213.697,299.923 228.512,258.84 225.839,245.63 						"/>
						<path fill="#2A6569" d="M252.26,80.306l15.769,9.469l6.3-1.184l-13.783-16.647C257.262,76.259,252.26,80.306,252.26,80.306z"
							/>
						<path fill="#2A6569" d="M258.866,23.722c10.729,23.863,4.353,42.495,3.856,43.755c2.367-5.536,5.536-14.891,4.925-27.109
							c-0.802-16.876-11.149-28.903-18.823-35.012c-5.04-4.009-11.072-5.498-17.678-5.307
							C235.384,0.355,249.511,2.913,258.866,23.722z"/>
						<path fill="#2A6569" d="M400.517,265.255l-1.489,45.855l8.858,28.903l-1.298,35.776l-5.231,14.776l4.238,4.238l8.667-12.6
							l5.231-13.096v14.28l-10.843,16.647c0,0-0.305,2.749,1.069,5.116l0,0c0.993,0.305,1.985,0.191,2.864-0.115
							c2.482-0.802,11.34-10.156,12.829-13.096c1.489-2.94,11.645-28.101,10.843-40.93c-0.802-12.829-5.727-48.299-5.727-48.299
							l-21.992-35.967l-31.957-105.761l-3.742,12.218L400.517,265.255z"/>
						<path fill="#2A6569" d="M259.056,334.744l4.925,11.149l-18.518,72.468l-7.674,10.347l6.414,16.571l-24.436,27.605
							l21.496-7.674l-1.756,47.115l4.238,6.224l-26.612,45.855l8.171,6.72l4.429,64.373l-14.089,82.815
							c27.299,4.429,56.012,8.858,56.279,8.591c0.687-0.687,6.3-29.972,6.3-29.972s-10.729-23.558-10.729-24.169
							c0-0.573,0.115-2.062,0.115-2.749s-8.973-48.223-8.973-48.223s1.871-7.789,2.94-9.965c1.069-2.176-0.115-6.987-0.802-9.965
							s-0.993-6.033-0.993-8.782c0-2.749-0.382-23.749,0-25.123c0.382-1.375,0.878-1.375,1.871-2.864
							c0.993-1.489,0.382-1.985,0.573-3.551c0.191-1.565-0.993-0.496-1.375-1.069s-0.115-1.375,0.573-2.94
							c0.687-1.565,0,0,0.305-1.374c0.305-1.375,0.305-0.993,0.878-1.985c0.573-0.993,0.496-0.878,0.305-1.871
							c-0.191-0.993-0.878-1.871-0.802-3.054c0.115-1.184-0.305-0.878-0.993-1.985c-0.687-1.069-0.496-2.482-0.496-3.36
							c0-0.878,0.496-1.375,0.993-2.864c0.496-1.489-0.382-1.375-0.382-2.367c0-0.993-0.115-5.231,0.878-5.04
							c0.993,0.191,0,0.878,1.298,2.062c0.305,0.305,0.496,0.496,0.496,0.496l0,0l0,0l0,0l0,0l0,0l0,0l0,0l0,0
							c0,0,0.115,0.115,0.305,0.305c0.878,0.878,0.802,1.069,0.802,2.253s0,2.749-0.573,3.551c-0.573,0.802-0.305,0.993-0.115,2.253
							c0.191,1.298,0.802,1.489,1.565,2.367c0.764,0.878,1.298,4.734,1.298,10.347c0,5.613,0.115,40.51,0,42.19
							c-0.115,1.68-0.305,4.047,1.375,3.742c1.68-0.305,1.489-1.375,2.253-2.253c0.802-0.878-0.802-1.565-0.802-3.856
							c0-2.291,0.496-4.925,0.878-5.422c0.382-0.496,0.878-0.993,0.993-1.871c0.115-0.878-2.482-1.756-2.062-3.551
							c0.382-1.756-0.115-2.94-0.382-5.422c-0.305-2.482,1.298-11.225,0.802-11.912c-0.496-0.687-0.993-1.565-1.298-2.558
							c-0.305-0.993,0.115-0.993,0.382-1.871c0.305-0.878-0.802-19.816-0.802-20.312s0.382-4.429,0.993-5.727
							c0.611-1.298,0.115-3.742,0.115-4.544s-0.802-1.375-0.878-2.062c-0.076-0.687,0-1.756,0.496-2.558
							c0.496-0.802,0.305-1.756,0.115-2.367c-0.191-0.573-0.993-4.849-0.993-4.849s-0.115-10.462-0.115-11.645
							c0-1.184-1.069-4.925-1.069-4.925l4.429-40.014l-14.394-29.361l20.121-88.122l45.741-4.734v-14.891L259.056,334.744z"/>
						<path fill="#2A6569" d="M456.72,735.988l-25.123-69.986l-3.933-44.863l-1.756-2.482l0.802-8.362l-13.096-52.232l-0.802-17.067
							l-35.89-84.495l0.305-66.435c0,0-16.265-79.378-16.761-80.142c-0.496-0.802-6.491-119.583-6.491-119.583l-7.98,150.815
							l7.98,4.925l9.965,44.175l-1.985,49.788l-4.925,2.482l5.422,46.123l-5.231,6.414l14.089,78.882l-6.224,11.645l6.224,31.347
							l22.489,18.747l-14.28,19.014l16.761,51.048c0,0-0.115,34.783,0.191,59.83L462.523,792L456.72,735.988z"/>
					</g>
				</g>
			</g>
		</g>
		<g>
			<path fill="none" d="M204.038,41.17c-3.436-0.382-5.04,4.353-5.04,6.911c0,4.238,1.489,7.483,4.544,7.483
				c2.864,0,5.116-2.062,5.231-5.04C208.772,48.768,207.512,41.552,204.038,41.17z"/>
			<path fill="none" d="M236.186,28.952c-0.115,0-2.864,1.069-2.864,4.849s4.238,8.362,7.674,8.782s5.803-1.756,5.727-5.04
				C246.648,34.259,241.417,28.456,236.186,28.952z"/>
			<polygon fill="#2A6569" points="383.259,341.922 381.083,359.867 387.497,362.349 392.919,351.2 391.468,339.364 
				387.994,333.064 			"/>
		</g>
		<path fill="none" d="M236.186,28.952c-0.115,0-2.864,1.069-2.864,4.849s4.238,8.362,7.674,8.782s5.803-1.756,5.727-5.04
			C246.648,34.259,241.417,28.456,236.186,28.952z"/>
		<path fill="none" d="M204.038,41.17c-3.436-0.382-5.04,4.353-5.04,6.911c0,4.238,1.489,7.483,4.544,7.483
			c2.864,0,5.116-2.062,5.231-5.04C208.772,48.768,207.512,41.552,204.038,41.17z"/>
		<path fill="none" d="M263.982,536.34L263.982,536.34L263.982,536.34z"/>
		<g>
			<path fill="#5CB68D" d="M410.979,405.341L410.979,405.341c-0.382,0-0.802-0.115-1.298-0.191l0,0l0,0l1.184-1.375l0,0
				c0,0,0.993-0.191,1.756-0.878c0.687-0.687,9.774-9.545,10.729-11.034c0.496-0.687,3.054-8.285,5.727-17.334
				c1.489-5.04,5.04-17.334,5.116-21.496c0.191-6.911-5.307-48.414-5.422-48.986l-21.687-36.196
				c-0.305-0.993-28.903-97.705-30.087-101.065c-1.184-3.36-0.496-5.613-0.496-5.727v-0.115v0.115l31.958,105.761l21.992,35.967
				c0.115,0.382,4.925,35.585,5.727,48.299c0.382,6.796-2.253,16.876-4.62,24.169c-2.673,8.285-5.536,15.272-6.224,16.761
				c-0.687,1.375-3.169,4.353-6.033,7.407c-2.482,2.482-5.422,5.307-6.796,5.727C412.048,405.226,411.475,405.341,410.979,405.341z
				 M409.795,405.112c0.382,0.115,0.802,0.191,1.184,0.191l0,0c0.496,0,0.993-0.115,1.565-0.305
				c1.298-0.382,4.353-3.169,6.796-5.727c2.94-3.054,5.307-6.033,6.033-7.407c0.802-1.489,3.665-8.476,6.223-16.761
				c2.253-7.293,5.04-17.334,4.62-24.169c-0.687-12.6-5.613-47.726-5.613-48.299l-21.878-35.967l-31.843-105.685
				c-0.115,0.382-0.496,2.558,0.496,5.613c1.184,3.36,29.781,99.882,30.087,101.065l21.687,36.196
				c0.115,0.382,5.613,42.19,5.422,49.101c-0.191,4.238-3.665,16.456-5.116,21.572c-2.482,8.362-5.231,16.647-5.727,17.449
				c-0.993,1.489-10.042,10.347-10.843,11.034c-0.687,0.573-1.68,0.802-1.756,0.878L409.795,405.112z"/>
			<path fill="#5CB68D" d="M462.447,791.771L462.447,791.771l-2.062-0.802l0,0c-1.184-10.156-5.422-53.835-5.422-54.408
				l-26.116-69.986l-2.749-44.061l-1.68-2.749v-8.858L411.59,557.95v-14.776l-36.463-85.487v-66.053l-17.067-81.822l-4.238-119.468
				l0,0l0,0h0.115c0.115,1.184,6.033,118.705,6.491,119.468c0.496,0.687,16.074,76.897,16.761,80.142l-0.191,66.435l35.966,84.571
				l0.802,17.067l13.096,52.232l-0.802,8.362l1.756,2.482l3.933,44.863l25.123,69.986L462.447,791.771z M460.461,790.893
				l1.985,0.802l-5.613-55.706l-25.123-69.986l-3.933-44.863l-1.756-2.482l0,0l0.687-8.362l-13.02-52.232l-0.802-17.067
				l-35.967-84.495l0.305-66.435c-0.191-0.802-16.265-79.378-16.761-80.066s-5.422-97.514-6.414-116.528l4.047,116.414
				l17.067,81.822v66.053l36.463,85.487v14.776l12.829,52.957v8.858l1.68,2.749l2.749,44.061l26.116,69.986
				C455.04,736.943,459.278,780.737,460.461,790.893z"/>
			<path fill="#5CB68D" d="M270.282,601.591L270.282,601.591c0.191-0.496-0.496-2.253-0.878-3.245
				c-0.115-0.191-0.115-0.382-0.191-0.496c-0.191-0.382-0.115-1.069,0-1.68c0-0.382,0.115-0.802,0-0.993
				c-0.115-0.305,0-0.802,0-1.298c0-0.496,0.115-1.069,0-1.489s0.382-0.878,0.802-1.375c0.496-0.496,0.878-1.069,0.687-1.375
				c-0.115-0.191-0.305-0.496-0.496-0.802c-0.496-0.687-0.993-1.68-1.375-1.871c-0.382-0.305-0.115-1.069,0.115-1.871
				c0.115-0.305,0.191-0.573,0.305-0.878c0.115-0.573,0-1.069-0.305-1.756c-0.115-0.382-0.305-0.802-0.496-1.375
				c-0.305-1.375-0.191-2.482,0.115-4.124c0.115-0.382,0.115-0.802,0.191-1.184c0.305-2.367,0.305-2.94,0.115-3.665
				c-0.115-0.382,0-0.687,0.115-0.993c0.115-0.191,0.191-0.496,0.191-0.802c0.115-0.802-0.115-1.68-0.573-3.169
				c-0.458-1.489-0.496-1.756-0.305-2.367c0.191-0.687,0.496-2.749,0.305-4.849c0-0.573-0.115-1.985-0.191-3.665
				c-0.191-4.353-0.573-10.843-0.878-11.645c-0.191-0.687-0.115-0.802,0-0.993c0.115-0.115,0.191-0.305,0.115-0.687
				c-0.115-0.878,0.115-2.94,0.802-4.353c0.687-1.413,0.573-3.665,0.305-4.124c-0.382-0.573-0.573-1.298-0.573-1.756
				c0-0.458-0.191-1.069-0.573-1.565c-0.191-0.305,0-0.878,0.191-1.68c0.115-0.496,0.305-1.069,0.382-1.565
				c0.191-1.298-0.496-4.353-1.184-5.422c-0.573-0.878-0.191-5.307,0-8.285c0-0.496,0.115-0.878,0.115-1.298
				c0.191-2.482-1.489-7.178-1.489-7.178l0,0l0,0l3.551-39.632l-14.089-29.858l0,0l20.389-89.611l0,0l47.421-4.925v1.489l0,0
				l-45.741,4.62l-20.121,88.045l14.394,29.285l0,0l-4.429,40.014c0,0.191,1.069,3.856,1.069,4.925s0.115,11.454,0.115,11.645
				c0,0,0.878,4.238,0.993,4.849c0,0.115,0,0.115,0,0.191c0.115,0.573,0.305,1.375-0.191,2.176
				c-0.496,0.802-0.573,1.756-0.496,2.558c0.115,0.305,0.191,0.573,0.382,0.878c0.191,0.382,0.496,0.687,0.496,1.184
				c0,0.191,0,0.496,0.115,0.878c0.115,1.069,0.305,2.749-0.191,3.665c-0.573,1.184-0.993,5.116-0.993,5.613
				c0,0.115,0,1.069,0.115,2.673c0.305,5.536,0.802,16.952,0.573,17.64c-0.115,0.305-0.191,0.496-0.305,0.687
				c-0.191,0.305-0.305,0.496-0.115,1.184c0.305,1.069,0.802,1.985,1.184,2.558c0.305,0.382,0,2.864-0.305,5.536
				c-0.305,2.558-0.573,5.231-0.382,6.414c0.115,0.802,0.191,1.489,0.305,2.062c0.191,1.298,0.305,2.176,0.115,3.436
				c-0.191,1.069,0.573,1.871,1.298,2.482c0.496,0.382,0.878,0.802,0.802,1.069c-0.115,0.687-0.496,1.184-0.802,1.565
				c-0.115,0.115-0.115,0.191-0.191,0.191c-0.382,0.496-0.878,3.245-0.878,5.422c0,1.069,0.382,1.756,0.573,2.367
				c0.305,0.573,0.496,0.993,0.115,1.489C270.473,601.209,270.396,601.4,270.282,601.591
				C270.282,601.515,270.282,601.591,270.282,601.591L270.282,601.591L270.282,601.591z M265.662,505.986
				c0.115,0.191,1.68,4.849,1.489,7.178c0,0.382-0.115,0.802-0.115,1.298c-0.191,2.749-0.573,7.293,0,8.285
				c0.687,1.069,1.298,4.124,1.184,5.422c-0.115,0.496-0.191,1.069-0.382,1.68c-0.191,0.802-0.382,1.375-0.191,1.68
				c0.305,0.382,0.573,1.069,0.573,1.565c0,0.496,0.191,1.069,0.573,1.68c0.382,0.573,0.305,2.94-0.305,4.238
				c-0.687,1.375-0.802,3.436-0.687,4.353c0,0.382-0.115,0.573-0.115,0.687c-0.115,0.191-0.191,0.305,0,0.993
				c0.305,0.802,0.573,7.407,0.878,11.645c0.115,1.68,0.191,3.055,0.191,3.665c0.191,2.062-0.115,4.238-0.305,4.849
				c-0.191,0.573-0.191,0.878,0.305,2.367c0.496,1.489,0.687,2.253,0.573,3.169c-0.115,0.305-0.191,0.573-0.305,0.802
				c-0.115,0.305-0.191,0.573-0.115,0.878c0.191,0.687,0.191,1.298-0.115,3.665c-0.115,0.382-0.115,0.802-0.191,1.184
				c-0.305,1.68-0.382,2.749-0.115,4.047c0.115,0.573,0.305,0.993,0.382,1.374c0.305,0.687,0.382,1.184,0.305,1.756
				c-0.115,0.305-0.191,0.573-0.305,0.878c-0.191,0.802-0.496,1.489-0.115,1.756c0.382,0.305,0.878,1.184,1.375,1.985
				c0.191,0.305,0.382,0.573,0.496,0.802c0.191,0.305-0.191,0.878-0.687,1.375c-0.382,0.496-0.878,0.993-0.802,1.298
				c0.115,0.382,0,0.878,0,1.489c0,0.496-0.115,0.993,0,1.298c0,0.191,0,0.573,0,0.993c-0.115,0.573-0.115,1.184,0,1.68
				c0,0.115,0.115,0.305,0.191,0.496c0.382,0.878,0.993,2.367,0.878,3.054c0.115-0.115,0.191-0.305,0.305-0.382
				c0.382-0.382,0.191-0.802-0.115-1.375c-0.305-0.573-0.573-1.298-0.573-2.367c0-2.176,0.496-4.925,0.878-5.422
				c0.115-0.115,0.115-0.191,0.191-0.191c0.305-0.382,0.687-0.878,0.802-1.565c0-0.305-0.305-0.687-0.802-1.069
				c-0.687-0.573-1.565-1.375-1.298-2.482c0.305-1.298,0.115-2.176-0.115-3.36c-0.115-0.573-0.191-1.298-0.305-2.062
				c-0.115-1.184,0.191-3.856,0.382-6.414c0.305-2.673,0.573-5.116,0.305-5.536c-0.382-0.687-0.993-1.565-1.298-2.558
				c-0.191-0.687-0.115-0.878,0.115-1.184c0.115-0.191,0.191-0.382,0.305-0.573c0.191-0.687-0.382-12.6-0.573-17.64
				c-0.115-1.565-0.115-2.558-0.115-2.673c0-0.496,0.382-4.429,0.993-5.727c0.496-0.878,0.305-2.558,0.191-3.665
				c0-0.382-0.115-0.687-0.115-0.878c0-0.496-0.191-0.878-0.496-1.184c-0.191-0.305-0.382-0.573-0.382-0.878
				c-0.115-0.878,0-1.756,0.496-2.558c0.496-0.802,0.305-1.565,0.191-2.176c0-0.115,0-0.115,0-0.191
				c-0.115-0.573-0.993-4.734-0.993-4.849c0-0.115-0.115-10.462-0.115-11.645c0-1.069-1.069-4.925-1.069-4.925l0,0l0,0l4.429-40.014
				l-14.394-29.361l0,0l20.121-88.122l0,0l45.741-4.62v-1.374l-47.077,4.734l-20.389,89.496l14.089,29.858l0,0L265.662,505.986z"/>
			<path fill="#5CB68D" d="M277.383,701.091v-0.115l-0.687-3.551l-11.034-24.054v-3.245l-8.858-48.299l0,0l4.124-12.523
				l-2.94-12.333c0-0.305,0.496-26.803,0.115-27.91c-0.191-0.802-0.115-1.489-0.115-2.176c0-0.305,0.115-0.573,0.115-0.802
				c0-0.382,0.382-1.069,0.687-1.68c0.382-0.687,0.802-1.489,0.573-1.756c-0.115-0.115-0.305-0.305-0.573-0.382
				c-0.382-0.191-0.687-0.382-0.802-0.687c0-0.191,0.115-0.496,0.496-0.802c0.573-0.496,0.573-1.069,0.687-1.565
				c0-0.573,0.115-1.184,0.878-1.871c0.802-0.687,0.573-1.375,0.191-2.176c-0.305-0.687-0.573-1.375-0.191-2.253
				c0.496-1.375,0.115-2.482-1.184-3.245c-0.496-0.305-0.382-0.993-0.191-1.756c0.115-0.496,0.191-1.184,0.191-1.871
				c0-1.756,0.305-5.231,0.802-6.72c0.115-0.382,0.191-0.993,0.305-1.565c0.191-1.375,0.305-2.94,1.68-3.742h0.115v0.115
				c-0.382,0.878-0.382,3.36-0.382,4.353c0,0.115,0,0.191,0,0.305c0,0.382,0.115,0.573,0.305,0.802
				c0.191,0.305,0.382,0.573,0.115,1.565c-0.191,0.573-0.382,1.069-0.573,1.375c-0.191,0.496-0.382,0.878-0.382,1.375
				c0,0.191,0,0.305,0,0.496c0,0.878-0.115,1.871,0.496,2.749c0.305,0.382,0.496,0.573,0.573,0.802
				c0.305,0.305,0.382,0.382,0.382,1.298c-0.115,0.802,0.191,1.489,0.382,2.176c0.115,0.305,0.191,0.573,0.305,0.878
				c0,0.115,0.115,0.305,0.115,0.382c0.191,0.573,0.191,0.687-0.382,1.489c-0.191,0.305-0.305,0.382-0.382,0.573
				c-0.305,0.382-0.305,0.382-0.496,1.375c-0.115,0.382-0.115,0.496,0,0.573c0,0,0,0,0.115,0l0,0l0,0l0,0c0,0,0,0.115-0.305,0.802
				c-0.802,1.68-0.993,2.367-0.573,2.94c0.115,0.115,0.191,0.191,0.382,0.191c0.115,0,0.191,0,0.191,0c0.115,0,0.191,0,0.191,0
				c0.115,0,0.305,0,0.382,0.115c0.115,0.115,0.191,0.382,0.115,0.802c-0.115,0.573-0.115,0.993,0,1.375
				c0,0.687,0.115,1.298-0.573,2.176c-0.382,0.573-0.687,0.878-0.878,1.184c-0.382,0.496-0.687,0.802-0.878,1.68
				c-0.305,1.069-0.115,14.012,0,20.885c0,1.985,0,3.665,0,4.238c0,2.673,0.305,5.613,0.993,8.782
				c0.115,0.305,0.115,0.687,0.191,0.993c0.573,2.94,1.489,6.987,0.496,8.973c-1.069,2.176-2.864,9.774-2.94,9.965
				c0.382,1.985,8.973,47.612,8.973,48.223c0,0.305,0,0.878-0.115,1.375c-0.115,0.496-0.115,1.069-0.115,1.375
				c0,0.573,10.652,23.939,10.729,24.169l0,0l0,0c0,0-0.305,1.68-0.802,4.124L277.383,701.091z M265.662,673.372l11.034,23.94
				l0.687,3.436c0.496-2.253,0.802-3.856,0.802-3.933c-0.496-1.069-10.729-23.558-10.729-24.169c0-0.305,0-0.878,0.115-1.375
				c0-0.496,0.115-1.069,0.115-1.375c0-0.573-8.858-47.726-8.973-48.223l0,0l0,0c0-0.115,1.871-7.789,2.94-9.965
				c0.993-1.985,0.115-6.033-0.496-8.973c-0.115-0.382-0.191-0.687-0.191-0.993c-0.687-3.055-0.993-6.109-0.993-8.782
				c0-0.573,0-2.176,0-4.238c-0.115-6.911-0.191-19.93,0-20.885c0.191-0.878,0.496-1.184,0.878-1.68
				c0.305-0.305,0.573-0.573,0.878-1.184c0.573-0.993,0.573-1.489,0.573-2.176c0-0.382,0-0.802,0-1.375
				c0.115-0.382,0-0.687-0.115-0.802c-0.115-0.115-0.191-0.115-0.382-0.115c-0.115,0-0.115,0-0.191,0s-0.191,0-0.191,0
				c-0.191,0-0.382,0-0.496-0.191c-0.382-0.687-0.115-1.489,0.573-2.94c0.191-0.382,0.305-0.687,0.305-0.687h-0.115
				c0,0-0.115-0.115,0-0.573c0.191-0.993,0.191-1.069,0.496-1.375c0.115-0.115,0.191-0.305,0.382-0.573
				c0.496-0.802,0.496-0.878,0.305-1.489c0-0.115-0.115-0.191-0.115-0.382c-0.115-0.305-0.191-0.573-0.305-0.878
				c-0.305-0.687-0.496-1.298-0.382-2.176c0.115-0.802,0-0.878-0.305-1.184c-0.191-0.191-0.382-0.382-0.573-0.802
				c-0.573-0.878-0.573-1.985-0.496-2.864c0-0.191,0-0.382,0-0.496c0-0.496,0.191-0.878,0.382-1.489
				c0.191-0.382,0.382-0.802,0.573-1.375c0.305-0.878,0.115-1.184-0.115-1.489c-0.115-0.191-0.305-0.382-0.305-0.802
				c0-0.115,0-0.191,0-0.305c0-0.993,0-3.36,0.382-4.353c-1.298,0.802-1.489,2.367-1.565,3.665
				c-0.115,0.573-0.115,1.069-0.305,1.565c-0.496,1.489-0.802,5.04-0.802,6.72c0,0.687-0.115,1.298-0.191,1.871
				c-0.191,0.878-0.305,1.489,0.191,1.756c1.375,0.802,1.756,1.985,1.184,3.36c-0.305,0.802,0,1.489,0.191,2.176
				c0.305,0.802,0.573,1.489-0.191,2.253c-0.802,0.687-0.878,1.298-0.878,1.871c0,0.496-0.115,1.069-0.687,1.565
				c-0.305,0.305-0.496,0.496-0.382,0.802c0,0.305,0.382,0.496,0.687,0.573c0.191,0.115,0.496,0.191,0.573,0.382
				c0.191,0.305-0.191,0.993-0.573,1.756c-0.305,0.573-0.687,1.298-0.687,1.68c0,0.305,0,0.496-0.115,0.802
				c-0.115,0.573-0.191,1.375,0.115,2.176c0.305,1.184-0.115,26.803-0.115,27.91l2.94,12.333l0,0l-4.124,12.523l8.858,48.299
				L265.662,673.372z"/>
			<path fill="#5CB68D" d="M166.887,407.403L166.887,407.403l-0.878-1.756l0,0l3.742-5.116l0,0h1.375l0,0l-0.496,1.985
				L166.887,407.403z M166.009,405.608l0.878,1.68l3.665-4.925l0.496-1.985h-1.375L166.009,405.608z"/>
			<path fill="#5CB68D" d="M177.044,399.995v-3.36l3.551-6.3l2.864-27.719c0.115-0.191,9.851-19.205,12.027-20.694h0.115v0.115
				l-3.665,9.163l-6.224,13.325l-3.245,26.727L177.044,399.995z M177.044,396.636v3.169l5.231-8.667l3.245-26.727l6.224-13.325
				l3.665-9.163c-2.253,1.756-11.722,20.198-11.912,20.618l-2.864,27.719L177.044,396.636z"/>
			<path fill="#5CB68D" d="M201.67,375.14L201.67,375.14c0-0.115-0.115-2.062,1.375-4.124c1.565-2.062,6.72-7.674,6.987-7.904
				v-9.354l-5.307-15.196l0,0l7.674-30.774l-0.573-8.782l0,0c0.115-0.305,12.905-34.401,13.516-36.387
				c0.611-1.985,3.169-3.933,3.245-3.933h0.115v0.115l-14.776,41.121l0.687,7.598l0,0l-7.178,30.545l4.62,15.081l0.305,10.538l0,0
				L201.67,375.14z M204.839,338.6l5.307,15.196v9.354l0,0c-0.115,0.115-5.422,5.804-6.987,7.903
				c-1.374,1.871-1.374,3.665-1.374,3.933l10.347-11.34l-0.305-10.538l-4.62-15.082l0,0l7.178-30.545l-0.687-7.598l0,0
				l14.776-41.006c-0.382,0.305-2.558,2.062-3.169,3.856c-0.573,1.985-13.211,35.776-13.516,36.387l0.573,8.782l0,0L204.839,338.6z"
				/>
			<g>
				<g>
					<path fill="#5DB78D" d="M407.313,267.698L429,303.894c0,0,5.727,42.114,5.422,49.101c-0.305,6.987-9.851,37.456-10.843,38.945
						s-10.042,10.347-10.843,11.034c-0.687,0.687-1.756,0.878-1.756,0.878l-1.184,1.375c0.993,0.305,1.985,0.191,2.864-0.115
						c2.482-0.802,11.34-10.156,12.829-13.096c1.489-2.94,11.645-28.101,10.843-40.93c-0.802-12.829-5.727-48.299-5.727-48.299
						l-21.992-35.967l-31.957-105.761c0,0-0.687,2.253,0.496,5.727C378.334,170.108,407.313,267.698,407.313,267.698z"/>
					<path fill="#5DB78D" d="M456.72,735.988l-25.123-69.986l-3.933-44.863l-1.756-2.482l0.802-8.362l-13.096-52.232l-0.802-17.067
						l-35.89-84.495l0.305-66.435c0,0-16.265-79.378-16.761-80.142c-0.496-0.802-6.491-119.583-6.491-119.583l4.124,119.468
						l17.067,81.822v66.053l36.463,85.487v14.776l12.829,52.957v8.858l1.68,2.749l2.749,44.061l26.116,69.986
						c0,0,4.238,44.175,5.422,54.408l1.985,0.802L456.72,735.988z"/>
					<path fill="#5DB78D" d="M255.124,436.458l14.089,29.858l-3.551,39.632c0,0,1.68,4.734,1.489,7.178
						c-0.191,2.482-0.802,8.476-0.115,9.545c0.687,1.069,1.298,4.124,1.184,5.422c-0.191,1.298-0.878,2.864-0.573,3.245
						c0.305,0.382,0.573,1.069,0.573,1.565c0,0.496,0.305,1.184,0.573,1.756c0.305,0.573,0.305,2.864-0.305,4.238
						c-0.573,1.375-0.802,3.436-0.802,4.353c0.115,0.878-0.496,0.496-0.115,1.68c0.382,1.184,0.878,13.096,1.069,15.272
						c0.191,2.176-0.191,4.238-0.305,4.849c-0.191,0.573-0.191,0.878,0.305,2.367c0.496,1.489,0.687,2.253,0.573,3.169
						c-0.115,0.802-0.573,1.069-0.382,1.756c0.191,0.687,0.305,1.298-0.115,3.665c-0.305,2.367-0.687,3.665-0.305,5.231
						c0.382,1.68,0.878,2.253,0.687,3.245c-0.191,0.993-0.878,2.253-0.382,2.749c0.496,0.382,1.489,2.176,1.871,2.749
						s-1.565,1.985-1.489,2.749c0.115,0.802-0.115,2.176,0,2.749c0.115,0.573-0.305,1.871,0,2.673
						c0.305,0.802,1.375,3.169,0.993,3.742l0,0c0.115-0.191,0.191-0.382,0.382-0.573c0.802-0.878-0.802-1.565-0.802-3.856
						c0-2.291,0.496-4.925,0.878-5.422c0.382-0.496,0.878-0.993,0.993-1.871c0.115-0.878-2.482-1.756-2.062-3.551
						c0.42-1.795-0.115-2.94-0.382-5.422c-0.305-2.482,1.298-11.225,0.802-11.912c-0.496-0.687-0.993-1.565-1.298-2.558
						c-0.305-0.993,0.115-0.993,0.382-1.871c0.305-0.878-0.802-19.816-0.802-20.312s0.382-4.429,0.993-5.727
						s0.115-3.742,0.115-4.544c0-0.802-0.802-1.375-0.878-2.062c-0.076-0.687,0-1.756,0.496-2.558
						c0.496-0.802,0.305-1.756,0.115-2.367c-0.191-0.573-0.993-4.849-0.993-4.849s-0.115-10.462-0.115-11.645
						s-1.069-4.925-1.069-4.925l4.429-40.014l-14.394-29.361l20.121-88.122l45.741-4.734v-1.375l-47.306,5.002L255.124,436.458z"/>
					<path fill="#5DB78D" d="M267.647,669.935c0-0.573-8.973-48.223-8.973-48.223s1.871-7.789,2.94-9.965
						c1.069-2.176-0.115-6.987-0.802-9.965c-0.687-2.94-0.993-6.033-0.993-8.782s-0.382-23.749,0-25.123
						c0.382-1.374,0.878-1.374,1.871-2.864s0.382-1.985,0.573-3.551c0.191-1.565-0.993-0.496-1.375-1.069
						c-0.382-0.573-0.115-1.375,0.573-2.94c0.687-1.565,0,0,0.305-1.375c0.305-1.375,0.305-0.993,0.878-1.985
						c0.573-0.993,0.496-0.878,0.305-1.871c-0.191-0.993-0.878-1.871-0.802-3.055s-0.305-0.878-0.993-1.985
						c-0.687-1.069-0.496-2.482-0.496-3.36s0.496-1.375,0.993-2.864c0.496-1.489-0.382-1.375-0.382-2.367
						c0-0.802-0.115-3.665,0.382-4.62c-1.985,1.184-1.489,3.856-1.985,5.307c-0.496,1.489-0.802,4.925-0.802,6.72
						c0,1.756-0.802,3.169,0,3.665c0.802,0.496,1.985,1.489,1.184,3.245c-0.687,1.756,1.565,3.169,0,4.429
						c-1.565,1.26-0.305,2.253-1.565,3.436s0.496,1.298,0.878,1.756c0.305,0.496-1.298,2.673-1.298,3.436
						c0,0.764-0.305,1.756,0,2.94c0.305,1.184-0.115,27.91-0.115,27.91l2.94,12.332l-4.124,12.523l8.858,48.299v3.245l11.034,23.939
						l0.687,3.551c0.496-2.482,0.802-4.124,0.802-4.124s-10.729-23.558-10.729-24.169
						C267.533,671.883,267.647,670.623,267.647,669.935z"/>
					<polygon fill="#5DB78D" points="166.009,405.608 166.887,407.403 170.629,402.477 171.126,400.492 169.751,400.492 					"/>
					<path fill="#5DB78D" d="M183.344,362.654l-2.864,27.719l-3.551,6.3v3.245l5.307-8.782l3.245-26.727l6.224-13.325l3.665-9.163
						C193.194,343.411,183.344,362.654,183.344,362.654z"/>
					<path fill="#5DB78D" d="M225.343,262.773c-0.573,1.985-13.516,36.387-13.516,36.387l0.573,8.782l-7.674,30.774l5.307,15.196
						v9.354c0,0-5.422,5.803-6.987,7.903c-1.565,2.062-1.375,4.047-1.375,4.047l10.347-11.454l-0.305-10.538l-4.62-15.081
						l7.178-30.545l-0.687-7.598l14.776-41.121C228.512,258.84,225.915,260.787,225.343,262.773z"/>
					<path fill="#5DB78D" d="M205.145,81.184c1.489,1.985,3.054,3.551,4.544,4.62c6.72,4.734,23.252,3.436,23.252,3.436
						l-1.756-1.985C216.065,88.362,210.147,85.308,205.145,81.184z"/>
				</g>
				<path fill="#5CB68D" d="M228.092,89.469c-3.551,0-6.796-0.191-9.66-0.687c-3.933-0.573-6.911-1.565-8.858-2.94
					c-1.489-1.069-3.054-2.558-4.544-4.62l-0.115-0.191l0.191,0.115c4.849,3.933,9.965,6.3,20.618,6.3
					c1.68,0,3.551-0.115,5.422-0.191l0,0l0,0l1.756,1.985h-0.115C232.941,89.355,230.955,89.469,228.092,89.469z M205.336,81.375
					c1.489,1.985,2.94,3.436,4.429,4.429c1.985,1.375,4.925,2.367,8.782,2.94c2.864,0.382,6.033,0.687,9.66,0.687
					c2.558,0,4.429-0.115,4.849-0.115l-1.68-1.871c-1.871,0.115-3.742,0.191-5.422,0.191c-5.231,0-9.354-0.573-12.829-1.871
					C209.574,84.544,207.207,82.864,205.336,81.375z"/>
			</g>
		</g>
	</g>
	<g class="heart">
		<defs>
			<clipPath id="heart-mask">
         <path d="M306.4,142.9l0.6-1.1c0,0-3.6,1.3-5.7,1.9c-2.1,0.6-3.4,0.2-5.8-1.1s-8.2-4.6-10.5-5.8
		c-1.5-0.8-2.1-6.9-2.1-6.9l-1.8,2.6c1-1.1,1.2-1.8,1.5,0.1c0.2,1.6,0.8,4.1,0.2,5.2c-0.6,1.2-14.7,20.3-14.7,20.3l-18.6-6.5
		l-10.9,17.8l-6.8,4.4c0,0,5.7-2.8,7.5-1.8c2.9,1.6,30.7,15.3,32.6,17.8s3.2,8.5,3.2,8.5l19.2-34.3L306.4,142.9
		C306.4,142.8,306.4,142.9,306.4,142.9z"/>
      </clipPath>
		</defs>
		<g>

		

			
				<path class="heart-outline" fill="#202F40" d="M220.952,175.949c0,0,5.231-2.291,7.14-4.849c2.291-3.169,14.776-23.634,16.112-26.421
				c1.451-2.787,1.222-6.529,1.222-6.529s1.68,3.284,3.894,4.467c2.176,1.222,17.22,6.529,17.22,6.529s12.371-17.831,13.936-20.236
				c1.565-2.444,2.062-6.529,2.062-6.529s1.451,3.398,3.016,5.078c1.68,1.565,17.449,8.743,21.458,10.652
				c2.176,0.955,8.362,1.451,8.362,1.451s-4.238,3.284-5.803,5.078c-1.565,1.833-29.705,52.117-30.545,53.606
				c-0.84,1.489-1.833,7.865-1.833,7.865s-2.444-4.009-5.689-6.414c-3.284-2.444-39.632-20.847-42.419-22.183
				C226.259,175.949,220.952,175.949,220.952,175.949z"/>


				<g class="heart-shape">
					<polygon fill="#C1326B" points="275.4,198.2 307,141.7 283,129.9 267.6,152.2 248.8,144.9 230.3,174.5 	"/>
					<path fill="#9A2C58" d="M275.4,198.2c0,0-1.2-6-3.2-8.5c-1.9-2.6-29.7-16.3-32.6-17.8c-1.8-1-7.5,1.8-7.5,1.8l6.8-4.4l10.9-17.8
						l18.6,6.5c0,0,14.1-19.2,14.7-20.4c0.6-1.1,0-3.6-0.2-5.2c-0.4-2.1-0.6-1.1-1.8,0.2c-1.1,1.3-13.2,19.1-13.2,19.1l-10.1-3.3
						l9.9,4.1l0.1,4.2c0,0-14.3-5.1-16.3-6c-1.8-0.7-1.8-0.6-3-4.5c-0.2-0.8,0.2-1,1.3-0.6c1.3,0.4,3.3,1,3.3,1l-5.2-2.4l-18.1,30.1
						L275.4,198.2z"/>
					<path fill="#9A2C58" d="M285.1,136.8c-1.5-0.8-2.1-6.9-2.1-6.9l24,11.9c0,0-3.6,1.3-5.7,1.9c-2.1,0.6-3.4,0.2-5.8-1.1
						C293.1,141.2,287.3,138,285.1,136.8z"/>
					<path fill="#E84183" d="M275.6,197.6c0,0-1.3-5.2-1.7-7.1s-0.6-3,1.1-6.1c1.7-3,20.6-34.8,22.1-36.7c1.2-1.6,1.9-2.6,4.2-3.4
						c2.7-0.8,5.1-1.5,5.1-1.5L275.6,197.6z"/>
				</g>

				<g class="heart-shape-2">
					<polygon fill="#F53280" points="275.4,198.2 307,141.7 283,129.9 267.6,152.2 248.8,144.9 230.3,174.5 	"/>
					<path fill="#CD3672" d="M275.4,198.2c0,0-1.2-6-3.2-8.5c-1.9-2.6-29.7-16.3-32.6-17.8c-1.8-1-7.5,1.8-7.5,1.8l6.8-4.4l10.9-17.8
						l18.6,6.5c0,0,14.1-19.2,14.7-20.4c0.6-1.1,0-3.6-0.2-5.2c-0.4-2.1-0.6-1.1-1.8,0.2c-1.1,1.3-13.2,19.1-13.2,19.1l-10.1-3.3
						l9.9,4.1l0.1,4.2c0,0-14.3-5.1-16.3-6c-1.8-0.7-1.8-0.6-3-4.5c-0.2-0.8,0.2-1,1.3-0.6c1.3,0.4,3.3,1,3.3,1l-5.2-2.4l-18.1,30.1
						L275.4,198.2z"/>
					<path fill="#CD3672" d="M285.1,136.8c-1.5-0.8-2.1-6.9-2.1-6.9l24,11.9c0,0-3.6,1.3-5.7,1.9c-2.1,0.6-3.4,0.2-5.8-1.1
						C293.1,141.2,287.3,138,285.1,136.8z"/>
					<path fill="#FF5598" d="M275.6,197.6c0,0-1.3-5.2-1.7-7.1s-0.6-3,1.1-6.1c1.7-3,20.6-34.8,22.1-36.7c1.2-1.6,1.9-2.6,4.2-3.4
						c2.7-0.8,5.1-1.5,5.1-1.5L275.6,197.6z"/>
				</g>

				<g class="heart-particles">


				</g>

				<!-- <g class="heart-sparkles">
					
					<rect width="1" height="1" x="0" y="0" fill="#FFF">
						<animateTransform
							attributeName="transform"
		    			type="scale"
							from="0"
							to="0"
							values="0; 1; 0; 1; 0"
							keyTimes="0; 0.45; 0.55; 0.65; 1"
							dur="4s"
							repeatCount="indefinite"
						/>
					</rect>
					

						

				</g> -->







			<g class="gleam" clip-path="url(#heart-mask)">
				<path fill="#FFF" fill-opacity="0.2" d="M0,73.3 15.5,82.8 61.1,3.4 49.3,0 0,73.3">
				<animateTransform
					attributeName="transform"
    			type="translate"
					from="0 -200"
					to="500 500"
					dur="4s"
					repeatCount="indefinite"
				/>
				</path>
			</g>

			<!-- <g class="twinkle" transform="translate(298,145)">

				<g>

					<animateTransform
							attributeName="transform"
		    			type="scale"
							from="0"
							to="0"
							values="0; 0; 0.04; 0.0; 0"
							keyTimes="0; 0.45; 0.55; 0.65; 1"
							dur="4s"
							repeatCount="indefinite"
						/>

					<path fill="#FFF" fill-opacity="0.8" d="M0-266.4C-8.5-50.7-122.1-8.4-292.7,0C-122,8.4-8.5,50.7,0,266.4C8.5,50.7,122.1,8.4,292.7,0C122-8.4,8.5-50.7,0-266.4z">
						<animateTransform
							attributeName="transform"
		    			type="rotate"
							from="0"
							to="360"
							dur="1s"
							repeatCount="indefinite"
						/>
					</path>

				</g> -->

			</g>

		</g>
	</g>
</g>
</svg>
