<?xml version="1.0" encoding="utf-8"?>
<!-- Generator: Adobe Illustrator 17.1.0, SVG Export Plug-In . SVG Version: 6.00 Build 0)  -->
<!DOCTYPE svg PUBLIC "-//W3C//DTD SVG 1.1//EN" "http://www.w3.org/Graphics/SVG/1.1/DTD/svg11.dtd">
<svg version="1.1" id="Layer_1" xmlns="http://www.w3.org/2000/svg" xmlns:xlink="http://www.w3.org/1999/xlink" x="0px" y="0px"
	 width="460.3px" height="436.9px" viewBox="0 0 460.3 436.9" enable-background="new 0 0 460.3 436.9" xml:space="preserve">
<path fill="#FFFFFF" d="M453.2,175.6L256.4,9.8c-15.4-13-37.1-13-52.6,0L7.1,175.6c-14.5,15.5-5.2,44,14.4,44h32.4V393
	c0,24.3,16.7,44,37.3,44h84c7.3,0,13.2-5.9,13.2-13.2v-108c0-7.3,5.9-13.2,13.2-13.2h57.3c7.3,0,13.2,5.9,13.2,13.2v108
	c0,7.3,5.9,13.2,13.2,13.2h84c20.6,0,37.3-19.7,37.3-44V219.6h32.4C458.4,219.6,467.7,191.1,453.2,175.6z"/>
</svg>
