<?xml version="1.0" encoding="utf-8"?>
<!-- Generator: Adobe Illustrator 17.0.0, SVG Export Plug-In . SVG Version: 6.00 Build 0)  -->
<!DOCTYPE svg PUBLIC "-//W3C//DTD SVG 1.1//EN" "http://www.w3.org/Graphics/SVG/1.1/DTD/svg11.dtd">
<svg version="1.1" id="Layer_1" xmlns="http://www.w3.org/2000/svg" xmlns:xlink="http://www.w3.org/1999/xlink" x="0px" y="0px"
	 width="1000px" height="1000px" viewBox="0 0 1000 1000" enable-background="new 0 0 1000 1000" xml:space="preserve">
<g>
	<path fill="none" stroke="#3D4D60" stroke-width="3" stroke-miterlimit="10" d="M48.746,3.182v51.641L-3.752,178.052
		l34.999,139.749l50.05,50.907l42.953,5.629l61.186,40.505l85.049-3.182l28.635,53.232l23.006,14.318l15.908-16.765l26.188,8.811
		l32.551,65.959l38.914,14.685l-3.916-43.32l66.693-42.953l67.55,14.318l20.681-19.824v-13.583l85.049,7.22l11.87-5.629
		l27.044,23.128v19.09l46.134,54.823l15.908-7.22V498.3l-41.362-68.406l3.182-37.324l33.408-28.635l44.421-63.511l-11.87-22.884
		l17.499-84.437l50.05-34.142l-15.908-15.174l1.591-32.551l45.523-34.999L880.756,57.27l-15.174-32.673l-22.149,4.773
		l-11.136,52.498l-53.232,19.09l-19.947,24.597l6.363,13.461l-44.421,13.583l3.182,11.136l-38.18,34.876l-30.96-2.325l4.773-20.681
		h13.461l-11.136-34.142l-17.499,15.908l-5.507-7.22l12.727-11.87l-4.773-19.824l-23.863-7.22l-16.643,24.597l-4.773,31.817
		l9.545,14.318l-9.545,23.006l-11.136,0.857l-5.629-21.415l6.363-67.55l31.817-10.402l25.453,0.857l-15.174-12.727l-26.188-4.038
		l-17.499,9.545l-20.681-19.09l-27.779,20.681l-30.96,4.038l1.591-9.545l42.83-24.719l-6.241-6.241l-30.226,3.916l-49.316-21.415
		l-179.52-5.629L80.562,0l-1.591,23.006L48.746,3.182"/>
</g>
</svg>
