<?xml version="1.0" encoding="utf-8"?>
<!-- Generator: Adobe Illustrator 17.0.0, SVG Export Plug-In . SVG Version: 6.00 Build 0)  -->
<!DOCTYPE svg PUBLIC "-//W3C//DTD SVG 1.1//EN" "http://www.w3.org/Graphics/SVG/1.1/DTD/svg11.dtd">
<svg version="1.1" id="Layer_1" xmlns="http://www.w3.org/2000/svg" xmlns:xlink="http://www.w3.org/1999/xlink" x="0px" y="0px"
	 width="959px" height="593px" viewBox="0 0 959 593" enable-background="new 0 0 959 593" xml:space="preserve">
	<g>
		<g class="map-outline">
			<path stroke-width="3" stroke-miterlimit="10" d="M55.77,3.38 55.77,58.24 0,189.15 37.18,337.61 90.35,391.69 135.98,397.67 200.98,440.7 291.33,437.32 321.75,493.87 346.19,509.08 363.09,491.27 390.91,500.63 425.49,570.7 466.83,586.3 462.67,540.28 533.52,494.65 605.28,509.86 627.25,488.8 627.25,474.37 717.6,482.04 730.21,476.06 758.94,500.63 758.94,520.91 807.95,579.15 824.85,571.48 824.85,529.36 780.91,456.69 784.29,417.04 819.78,386.62 866.97,319.15 854.36,294.84 872.95,205.14 926.12,168.87 909.22,152.75 910.91,118.17 959.27,80.99 939.64,60.84 923.52,26.13 899.99,31.2 888.16,86.97 831.61,107.25 810.42,133.38 817.18,147.68 769.99,162.11 773.37,173.94 732.81,210.99 699.92,208.52 704.99,186.55 719.29,186.55 707.46,150.28 688.87,167.18 683.02,159.51 696.54,146.9 691.47,125.84 666.12,118.17 648.44,144.3 643.37,178.1 653.51,193.31 643.37,217.75 631.54,218.66 625.56,195.91 632.32,124.15 666.12,113.1 693.16,114.01 677.04,100.49 649.22,96.2 630.63,106.34 608.66,86.06 579.15,108.03 546.26,112.32 547.95,102.18 593.45,75.92 586.82,69.29 554.71,73.45 502.32,50.7 311.61,44.72 89.57,0 87.88,24.44 55.77,3.38"/>
		</g>
		<g class="map-outline-points">
			<circle cx="55.77" cy="3.38" r="1"></circle>
			<circle cx="55.77" cy="58.24" r="1"></circle>
			<circle cx="0" cy="189.15" r="1"></circle>
			<circle cx="37.18" cy="337.61" r="1"></circle>
			<circle cx="90.35" cy="391.69" r="1"></circle>
			<circle cx="135.98" cy="397.67" r="1"></circle>
			<circle cx="200.98" cy="440.7" r="1"></circle>
			<circle cx="291.33" cy="437.32" r="1"></circle>
			<circle cx="321.75" cy="493.87" r="1"></circle>
			<circle cx="346.19" cy="509.08" r="1"></circle>
			<circle cx="363.09" cy="491.27" r="1"></circle>
			<circle cx="390.91" cy="500.63" r="1"></circle>
			<circle cx="425.49" cy="570.7" r="1"></circle>
			<circle cx="466.83" cy="586.3" r="1"></circle>
			<circle cx="462.67" cy="540.28" r="1"></circle>
			<circle cx="533.52" cy="494.65" r="1"></circle>
			<circle cx="605.28" cy="509.86" r="1"></circle>
			<circle cx="627.25" cy="488.8" r="1"></circle>
			<circle cx="627.25" cy="474.37" r="1"></circle>
			<circle cx="717.6" cy="482.04" r="1"></circle>
			<circle cx="730.21" cy="476.06" r="1"></circle>
			<circle cx="758.94" cy="500.63" r="1"></circle>
			<circle cx="758.94" cy="520.91" r="1"></circle>
			<circle cx="807.95" cy="579.15" r="1"></circle>
			<circle cx="824.85" cy="571.48" r="1"></circle>
			<circle cx="824.85" cy="529.36" r="1"></circle>
			<circle cx="780.91" cy="456.69" r="1"></circle>
			<circle cx="784.29" cy="417.04" r="1"></circle>
			<circle cx="819.78" cy="386.62" r="1"></circle>
			<circle cx="866.97" cy="319.15" r="1"></circle>
			<circle cx="854.36" cy="294.84" r="1"></circle>
			<circle cx="872.95" cy="205.14" r="1"></circle>
			<circle cx="926.12" cy="168.87" r="1"></circle>
			<circle cx="909.22" cy="152.75" r="1"></circle>
			<circle cx="910.91" cy="118.17" r="1"></circle>
			<circle cx="959.27" cy="80.99" r="1"></circle>
			<circle cx="939.64" cy="60.84" r="1"></circle>
			<circle cx="923.52" cy="26.13" r="1"></circle>
			<circle cx="899.99" cy="31.2" r="1"></circle>
			<circle cx="888.16" cy="86.97" r="1"></circle>
			<circle cx="831.61" cy="107.25" r="1"></circle>
			<circle cx="810.42" cy="133.38" r="1"></circle>
			<circle cx="817.18" cy="147.68" r="1"></circle>
			<circle cx="769.99" cy="162.11" r="1"></circle>
			<circle cx="773.37" cy="173.94" r="1"></circle>
			<circle cx="732.81" cy="210.99" r="1"></circle>
			<circle cx="699.92" cy="208.52" r="1"></circle>
			<circle cx="704.99" cy="186.55" r="1"></circle>
			<circle cx="719.29" cy="186.55" r="1"></circle>
			<circle cx="707.46" cy="150.28" r="1"></circle>
			<circle cx="688.87" cy="167.18" r="1"></circle>
			<circle cx="683.02" cy="159.51" r="1"></circle>
			<circle cx="696.54" cy="146.9" r="1"></circle>
			<circle cx="691.47" cy="125.84" r="1"></circle>
			<circle cx="666.12" cy="118.17" r="1"></circle>
			<circle cx="648.44" cy="144.3" r="1"></circle>
			<circle cx="643.37" cy="178.1" r="1"></circle>
			<circle cx="653.51" cy="193.31" r="1"></circle>
			<circle cx="643.37" cy="217.75" r="1"></circle>
			<circle cx="631.54" cy="218.66" r="1"></circle>
			<circle cx="625.56" cy="195.91" r="1"></circle>
			<circle cx="632.32" cy="124.15" r="1"></circle>
			<circle cx="666.12" cy="113.1" r="1"></circle>
			<circle cx="693.16" cy="114.01" r="1"></circle>
			<circle cx="677.04" cy="100.49" r="1"></circle>
			<circle cx="649.22" cy="96.2" r="1"></circle>
			<circle cx="630.63" cy="106.34" r="1"></circle>
			<circle cx="608.66" cy="86.06" r="1"></circle>
			<circle cx="579.15" cy="108.03" r="1"></circle>
			<circle cx="546.26" cy="112.32" r="1"></circle>
			<circle cx="547.95" cy="102.18" r="1"></circle>
			<circle cx="593.45" cy="75.92" r="1"></circle>
			<circle cx="586.82" cy="69.29" r="1"></circle>
			<circle cx="554.71" cy="73.45" r="1"></circle>
			<circle cx="502.32" cy="50.7" r="1"></circle>
			<circle cx="311.61" cy="44.72" r="1"></circle>
			<circle cx="89.57" cy="0" r="1"></circle>
			<circle cx="87.88" cy="24.44" r="1"></circle>
		</g>
		<g class="map-locations">
			<!-- template we use for locations -->
			<g class="map-location map-location-template">


				<g class="map-location-marker">
					<circle class="location-dot" cx="0" cy="0" r="0"/>
					<rect x="-10" y="-10" width="20" height="20" fill-opacity="0"/>
				</g>

				<g class="map-location-hover">

					<g class="map-location-hover-content" transform="translate(12,-12)">

						<rect class="map-location-box map-location-bg" x="0" y="-44" width="163" height="44"/>
						<path class="map-location-bg" d="M-5,5 15,-5, 1,-10"/>

						<g class="map-location-text-container" transform="translate(10,-15)">

							<defs>
			          <clipPath id="map-location-mask">
			            <rect class="map-location-mask-rect" x="0" y="-27" width="300" height="44"/>
			          </clipPath>
			        </defs>

							<g class="map-location-text" clip-path="url(#map-location-mask)">

								<text x="0" y="2" class="map-text-location" font-family="CubanoRegular">NEW YORK, NY</text>



								<g class="map-location-event map-location-event-template">
									<text x="0" y="0">
										<tspan x="0" dy="1.2em" class="map-location-venue" font-family="blanchcaps"><!-- venue --></tspan>
										<tspan x="0" dy="1.6em" class="map-location-date" font-family="Verdana"><!-- date and time --></tspan>
									</text>
									<a class="map-location-info" xlink:href="http://www.google.com" target="_blank">
										<rect x="0" y="60" width="80" height="30"/>
						     		<text x="10" y="81" font-family="blanchcaps">MORE INFO</text>
						    	</a>
								</g>





							</g>

						</g>

					</g>


<!-- 
					<rect class="map-location-box map-location-bg" x="6" y="-54" width="163" height="44"/>
					<path class="map-location-bg" d="M0,0 20,-10, 6,-15"/>

					<g class="map-location-text">
						<text x="16" y="-23" class="map-text-location" font-family="CubanoRegular">NEW YORK, NY</text>

						<g class="map-location-event">
							<text x="16" class="map-text-venue" font-family="blanchcaps">venue name here</text>
							<text x="16" y="20" class="map-text-date" font-family="Verdana">DATE</text>
							<a class="map-text-info" xlink:href="http://www.google.com" target="_blank">
								<rect x="16" y="20" width="80" height="30"/>
					      <text x="26" y="40" font-family="blanchcaps">MORE INFO</text>
					    </a>
						</g>
 -->
						<!-- <a class="map-text-info" xlink:href="http://www.google.com" target="_blank">
							<rect x="0" y="0" width="80" height="30"/>
				      <text x="10" y="20" font-family="blanchcaps">MORE INFO</text>
				    </a> -->

					</g>

				</g>
			</g>
		</g>
	</g>
</svg>
