<?xml version="1.0" encoding="utf-8"?>
<!-- Generator: Adobe Illustrator 17.0.0, SVG Export Plug-In . SVG Version: 6.00 Build 0)  -->
<!DOCTYPE svg PUBLIC "-//W3C//DTD SVG 1.1//EN" "http://www.w3.org/Graphics/SVG/1.1/DTD/svg11.dtd">
<svg version="1.1" id="Layer_1" xmlns="http://www.w3.org/2000/svg" xmlns:xlink="http://www.w3.org/1999/xlink" x="0px" y="0px"
	 width="114.75px" height="108.85px" viewBox="0 0 114.75 108.85" enable-background="new 0 0 114.75 108.85" xml:space="preserve">
<g>
	<polygon fill="#431525" points="1.769,46.791 2.984,49.788 12.056,53.838 15.053,57.645 37.733,67.203 43.322,63.882 
		22.505,36.747 	"/>
	<polygon fill="#D01D69" points="1.769,46.791 0.23,36.747 4.523,13.986 19.346,5.319 20.156,0.945 49.073,0.945 53.933,10.746 
		62.438,16.092 58.145,44.037 51.665,49.302 51.341,53.595 43.322,63.882 	"/>
	<polygon fill="#431525" points="19.103,16.335 23.882,23.382 23.882,24.759 27.527,29.052 28.256,29.619 27.689,30.591 
		21.776,36.018 21.857,36.99 17.159,40.878 18.941,42.66 21.695,40.392 22.019,39.339 23.396,39.42 26.879,37.476 27.284,36.018 
		28.256,36.099 29.633,35.127 31.091,34.641 32.549,35.613 37.814,39.501 39.11,39.825 39.515,40.797 40.811,42.174 42.431,43.227 
		42.917,43.794 44.942,42.579 44.699,41.931 36.356,31.563 35.789,30.591 36.761,28.971 40.001,25.407 40.487,23.868 41.621,23.463 
		42.836,22.41 43.322,21.033 46.643,17.388 45.914,16.335 39.677,20.952 37.976,21.519 32.954,25.893 31.901,25.893 25.988,20.223 
		25.016,20.061 20.885,15.687 	"/>
</g>
<g>
	<path fill="#431525" d="M1.365,34.074l4.131-10.692l21.627-7.614l1.782-3.483l52.731-4.86l6.156,8.262
		c0,0-57.591,18.306-58.563,18.387C28.257,34.074,1.365,34.074,1.365,34.074z"/>
	<polygon fill="#D01D69" points="1.365,65.907 1.365,34.074 26.232,24.354 28.095,20.061 87.792,15.687 89.412,25.407 
		93.705,30.186 85.038,89.721 20.562,77.004 19.428,70.767 	"/>
	<polygon fill="#431525" points="44.943,60.399 46.563,60.399 49.317,58.779 49.803,57.564 51.018,57.564 54.905,56.187 
		62.52,52.542 65.598,51.084 65.598,50.355 59.685,46.629 58.145,45.981 57.255,46.872 55.878,46.467 56.04,44.199 54.5,44.199 
		46.887,39.096 45.753,39.582 44.943,50.841 44.052,51.732 44.7,52.461 44.943,53.919 44.052,54.729 44.052,55.539 44.7,55.944 
		44.78,59.346 	"/>
</g>
<g>
	<path fill="#431525" d="M1.891,16.983l8.748-9.396h1.863l3.888-4.212l34.668,4.212l2.025,5.022l30.375,3.645l3.078,3.888
		l2.592,1.053l4.05,3.645c0,0-11.34,5.832-11.745,5.832S8.29,24.759,7.885,24.759S1.891,16.983,1.891,16.983z"/>
	<polygon fill="#D01D69" points="1.891,16.983 93.178,24.921 93.178,46.953 88.237,49.788 87.67,68.985 15.094,89.802 
		10.153,45.576 5.455,42.255 	"/>
	<polygon fill="#431525" points="36.235,49.788 42.391,45.576 44.74,45.576 44.74,43.632 49.114,41.607 50.815,41.607 51.625,40.23 
		51.625,39.339 55.189,38.286 56.485,39.096 56.485,44.037 57.295,44.604 57.295,50.274 58.105,52.137 58.105,53.433 57.214,54.324 
		57.052,58.86 55.432,58.86 53.002,57.726 51.949,56.187 50.815,56.997 47.17,55.377 46.522,54.081 44.092,53.433 	"/>
</g>
</svg>
