<?xml version="1.0" encoding="utf-8"?>
<!-- Generator: Adobe Illustrator 17.0.0, SVG Export Plug-In . SVG Version: 6.00 Build 0)  -->
<!DOCTYPE svg PUBLIC "-//W3C//DTD SVG 1.1//EN" "http://www.w3.org/Graphics/SVG/1.1/DTD/svg11.dtd">
<svg version="1.1" id="Layer_1" xmlns="http://www.w3.org/2000/svg" xmlns:xlink="http://www.w3.org/1999/xlink" x="0px" y="0px"
	 width="114.75px" height="108.85px" viewBox="0 0 114.75 108.85" enable-background="new 0 0 114.75 108.85" xml:space="preserve">
<g>
	<path fill="#431525" d="M2.05,18.95l10.8-11.6h2.3l4.8-5.2l42.8,5.2l2.5,6.2l37.5,4.5l3.8,4.8l3.2,1.3l5,4.5c0,0-14,7.2-14.5,7.2
		s-90.3-7.3-90.8-7.3S2.05,18.95,2.05,18.95z"/>
	<polygon fill="#D01D69" points="2.05,18.95 114.75,28.75 114.75,55.95 108.65,59.45 107.95,83.15 18.35,108.85 12.25,54.25 
		6.45,50.15 	"/>
	<polygon fill="#431525" points="44.45,59.45 52.05,54.25 54.95,54.25 54.95,51.85 60.35,49.35 62.45,49.35 63.45,47.65 
		63.45,46.55 67.85,45.25 69.45,46.25 69.45,52.35 70.45,53.05 70.45,60.05 71.45,62.35 71.45,63.95 70.35,65.05 70.15,70.65 
		68.15,70.65 65.15,69.25 63.85,67.35 62.45,68.35 57.95,66.35 57.15,64.75 54.15,63.95 	"/>
</g>
</svg>
