<?xml version="1.0" encoding="utf-8"?>
<!-- Generator: Adobe Illustrator 17.1.0, SVG Export Plug-In . SVG Version: 6.00 Build 0)  -->
<!DOCTYPE svg PUBLIC "-//W3C//DTD SVG 1.1//EN" "http://www.w3.org/Graphics/SVG/1.1/DTD/svg11.dtd">
<svg version="1.1" id="Layer_1" xmlns="http://www.w3.org/2000/svg" xmlns:xlink="http://www.w3.org/1999/xlink" x="0px" y="0px"
	 width="214px" height="214px" viewBox="0 0 214 214" enable-background="new 0 0 214 214" xml:space="preserve">

<g>


	<g transform="scale(2.7)">
		<g>
			<g class="moon-default">
				<circle fill="#296760" cx="106" cy="106" r="106"/>
		    <path fill="#1F2F42" d="M214,108c0-38-20.3-71.5-50.3-90.2c-16.2-10.1-33.7-4.2-54.2-4.2c-58.5,0-78.2,42.9-78.2,101.4 c0,9.6-28.1,11.4-25.7,20.3C17.8,180.4,59.1,214,108,214C166.5,214,214,166.5,214,108z"/>
		    <path fill="#234f4f" d="M181.6,44.6c-0.9-2.1-1.8-4.1-2.8-6.1c-4-7.8-9.2-14.7-15.2-20.7c-16-9.5-34.7-15-54.7-15 C49.9,2.8,2,50.7,2,109.8c0,8.4,1.5,21.6,4.7,29.4c6.3,15.6,20.6,26.3,38.3,32c-1-1.4-1.5-2.8-1.4-3.9c0.3-4.3,6.2-9.9,17.8-7.9 c12.4,2.1,17.8,8.9,17.8,13.2c0,1.3-0.5,2.5-1.3,3.5c18.5,0,37.7-4.2,54.1-12.7c39.2-20.2,60.3-60.5,55.1-98.5c0-0.1,0-0.2,0-0.3 C185.6,56.7,172.8,45.3,181.6,44.6z"/>
		    <path fill="#255b57" d="M99.1,109.9c-12.2-8.9-13.1-27.7-0.9-40.6c12.3-13,26.7-17.5,38.9-11.6c6.3,3,9.6,9.1,10.5,16.2 c9.2-21.2,8.7-43.7-3.6-60.5c-1.7-2.3-3.5-4.5-5.6-6.5C128.8,4,118.5,2.5,108,2.5c-54.4,0-99.3,41-105.3,93.8 c1.6,5.3,4.1,10.3,7.4,14.8c4.7,6.5,10.8,11.5,17.9,15.2c-0.2-0.3-0.4-0.6-0.5-0.9c-3.9-7-3.9-16.9,1.4-19.9 c5.4-3,13.6,1.2,18,9c4.1,7.1,3.7,14.2-0.1,17.9c21,3.3,45.7-2.6,67.2-18C108.7,114.5,103.5,113.1,99.1,109.9z M69.5,46.1 c-5.4,4.9-13,5.4-15.6,2c-2.9-3.7-0.7-9.6,5.2-13.4c6.2-3.9,13.2-4.1,15.4-1.6C76.7,35.6,74.8,41.2,69.5,46.1z"/>
		  </g>
		  <g class="moon-hover">
		  	<circle fill="#309D7D" cx="106" cy="106" r="106"/>
		    <path fill="#1F2F42" d="M214,108c0-38-20.3-71.5-50.3-90.2c-16.2-10.1-33.7-4.2-54.2-4.2c-58.5,0-78.2,42.9-78.2,101.4 c0,9.6-28.1,11.4-25.7,20.3C17.8,180.4,59.1,214,108,214C166.5,214,214,166.5,214,108z"/>
		    <path fill="#296F5C" d="M181.6,44.6c-0.9-2.1-1.8-4.1-2.8-6.1c-4-7.8-9.2-14.7-15.2-20.7c-16-9.5-34.7-15-54.7-15 C49.9,2.8,2,50.7,2,109.8c0,8.4,1.5,21.6,4.7,29.4c6.3,15.6,20.6,26.3,38.3,32c-1-1.4-1.5-2.8-1.4-3.9c0.3-4.3,6.2-9.9,17.8-7.9 c12.4,2.1,17.8,8.9,17.8,13.2c0,1.3-0.5,2.5-1.3,3.5c18.5,0,37.7-4.2,54.1-12.7c39.2-20.2,60.3-60.5,55.1-98.5c0-0.1,0-0.2,0-0.3 C185.6,56.7,172.8,45.3,181.6,44.6z"/>
		    <path fill="#29876B" d="M99.1,109.9c-12.2-8.9-13.1-27.7-0.9-40.6c12.3-13,26.7-17.5,38.9-11.6c6.3,3,9.6,9.1,10.5,16.2 c9.2-21.2,8.7-43.7-3.6-60.5c-1.7-2.3-3.5-4.5-5.6-6.5C128.8,4,118.5,2.5,108,2.5c-54.4,0-99.3,41-105.3,93.8 c1.6,5.3,4.1,10.3,7.4,14.8c4.7,6.5,10.8,11.5,17.9,15.2c-0.2-0.3-0.4-0.6-0.5-0.9c-3.9-7-3.9-16.9,1.4-19.9 c5.4-3,13.6,1.2,18,9c4.1,7.1,3.7,14.2-0.1,17.9c21,3.3,45.7-2.6,67.2-18C108.7,114.5,103.5,113.1,99.1,109.9z M69.5,46.1 c-5.4,4.9-13,5.4-15.6,2c-2.9-3.7-0.7-9.6,5.2-13.4c6.2-3.9,13.2-4.1,15.4-1.6C76.7,35.6,74.8,41.2,69.5,46.1z"/>

		  </g>

			<animateTransform 
				attributeName="transform"
	      attributeType="XML"
	      type="translate"
	      dur="4s"
	      begin="0.3s"
	      keySplines="0.455 0.030 0.515 1; 0.455 0.030 0.515 1;"
	      values="0 -2;0 2;0 -2"
	      calcMode="spline"
	      repeatCount="indefinite"
	    />



	  </g>
	</g>

	<g class="notification" transform="translate(60, 60)">

      <circle r="9" fill="#c0326b"/>
      <text x="-3" y="4">1</text>

    </g>



	<g class="cursor" transform="translate(150 150)">

      <path id="motionPath" fill="none" stroke="none" stroke-miterlimit="10" d="M0,0 10,10 0,0"/>
   
      <g class="cursor-content">
        <path fill="#1F2F42" d="M28.3,17.6h-0.7v-3.1c0-1.1-0.1-2.3-0.9-3c-0.2-0.2-0.4-0.4-0.8-0.7c-0.5-0.4-1.3-1.2-2.8-2.7
          c-0.7-0.6-1.5-0.9-2.3-0.9c-1.6,0-2.9,1.1-3.2,1.4l-0.2,0.2L8.7,1.3C7.9,0.6,6.9,0.2,5.8,0.2c-1.3,0-2.5,0.6-3.3,1.5L2.2,2.1
          C1.2,3.4,0.7,4.7,0.8,6C1,7.3,1.8,8.5,3.1,9.5l3.7,3.2c-0.5,0.1-1,0.3-1.4,0.7c-1.1,1.1-1.4,1.9-1.4,3.7c0,0.1-0.1,0.2-0.2,0.3
          c-0.4,0.3-0.9,0.9-0.9,2.1v2C2.4,21.9,2,22.5,2,23.6v1.6c0,0.7,0.3,1.4,0.9,1.8l5.3,4.1c0.6,0.4,1.3,0.7,2,0.7l5.3-0.2
          c0.1,0,0.3,0.1,0.3,0.2l0.1,0.3c0.2,1,0.9,1.7,1.9,1.9l0.3,0c0.1,0,0.2,0,0.4,0c0.7,0,1.3-0.3,1.8-0.8l9.5-11.6
          c0.3-0.3,0.4-0.7,0.4-1.1v-1.3C30,18.4,29.3,17.6,28.3,17.6z"/>
        <path fill="#C5C290" d="M22.4,19.5c0.8-1.4,0.5-3.2-0.7-4.2l-0.5-0.4c0.6,0,1,0,1.1-0.1c0.1-0.1,1.3-1.5,1.2-1.8s0.3-1-0.6-1.7
          c-0.9-0.7-4.5-2.2-4.5-2.2L17,10.4c0,0,0.3,0.6,0.7,1.4L7.4,3C6,1.8,4.5,1,3.3,2.4L3,2.7c-2.2,2.6-1.1,4.7,0.7,6l6.9,5.9
          C9.8,14.5,6.2,14,6.2,14c-0.9,1-1.2,1.5-1.2,3.1c0,0.5-0.3,0.9-0.6,1.1c-0.3,0.2-0.5,0.5-0.5,1.3v2.2c0,0.2-0.1,0.5-0.3,0.6
          C3.3,22.4,3,22.7,3,23.6v1.6c0,0.4,0.2,0.8,0.5,1l5.3,4.1c0.4,0.3,0.9,0.5,1.5,0.5l5.1-0.2c0.7,0,1.2,0.4,1.3,1.1l0,0.3
          c0.1,0.6,0.5,1,1.1,1.1l0.3,0c0.5,0.1,0.9-0.1,1.2-0.5l8.8-10.7C28.2,21.9,25.6,20.9,22.4,19.5z"/>
        <path fill="#FFFFFF" d="M28.3,18.6h-1c-0.4,0-0.8-0.3-0.8-0.8v-3.4c0-1-0.1-1.8-0.6-2.3c-0.5-0.5-1-0.9-3.5-3.3
          c-2-1.7-4.2,0.5-4.2,0.5l2.8,2.3c0.7,0.7,0.9,1.1,0.3,1.7l0,0l0,0L8,2C6.6,0.8,4.5,1,3.3,2.4S2.2,6,3.6,7.2l7.4,6.3
          c-0.9,0-2.7,0.1-3.6,0.1C6.3,13.7,6,14,6,14.7c0,0.7,0,6.6,0,7.9c0,1.3,0.3,1.7,0.5,1.9s2.1,1.7,3.3,2.5c1.2,0.9,1.8,0.9,3,0.9
          c0.9,0,3.2-0.1,4.3-0.2c0.4,0,0.8,0.2,0.9,0.6l0.4,1.3c0.1,0.4,0.4,0.6,0.8,0.6l2-0.1c0.2,0,0.4-0.1,0.5-0.3l7.1-8.7
          c0.1-0.1,0.2-0.3,0.2-0.5v-1.3C29,18.9,28.7,18.6,28.3,18.6z"/>
        <text x="32" y="39">MEDIA</text>

        <animateMotion 
          dur="1.3s"
          begin="0s"
          fill="freeze"
          repeatCount="indefinite">
          <mpath xlink:href="#motionPath" />
        </animateMotion>
        
      </g>

    </g>


</g>
</svg>
