<?xml version="1.0" encoding="utf-8"?>
<!-- Generator: Adobe Illustrator 17.0.0, SVG Export Plug-In . SVG Version: 6.00 Build 0)  -->
<!DOCTYPE svg PUBLIC "-//W3C//DTD SVG 1.1//EN" "http://www.w3.org/Graphics/SVG/1.1/DTD/svg11.dtd">
<svg version="1.1" id="Layer_1" xmlns="http://www.w3.org/2000/svg" xmlns:xlink="http://www.w3.org/1999/xlink" x="0px" y="0px"
	 width="3000px" height="1000px" viewBox="0 0 3000 1000" enable-background="new 0 0 3000 1000" xml:space="preserve">
<g>
	<rect y="997" width="3000" height="700"/>
	<g>
		<path fill="#EADD9C" d="M234,997c0-85.989,0-16.979,0-102.968c1.604-0.334,3.352-0.365,4.788-1.049
			c10.775-5.134,21.284-0.759,30.139,3.539c10.664,5.176,21.121,8.103,32.741,8.924c7.126,0.504,14.7-0.388,21.178,4.332
			c23.027,16.776,46.18,33.425,71.649,46.376c10.266,5.22,21.415,8.712,33.08,5.514c16.527-4.53,32.9-9.631,49.278-14.688
			c15.399-4.755,31.179-8.483,45.339-16.704c1.505-0.874,4.247-0.566,6.027,0.154c6.268,2.532,12.296,3.195,18.902,0.841
			c2.793-0.995,6.551-0.529,9.511,0.409c12.819,4.062,25.4,8.905,38.296,12.685c4.715,1.382,10.069,0.529,15.122,0.843
			c1.916,0.119,3.91,0.375,5.69,1.042c6.517,2.444,12.8,5.657,19.466,7.528c11.04,3.099,22.417,4.999,33.455,8.103
			c15.286,4.298,30.296,6.487,45.96,1.266c13.271-4.423,28.221-3.977,39.666-13.605c3.526-2.966,7.046-2.425,10.682-0.995
			c8.526,3.352,17.24,1.64,25.235-0.69c8.511-2.481,16.2-7.68,24.415-11.315c6.831-3.023,13.827-1.434,20.615,0.554
			c3.286,0.962,6.293,3.019,9.608,3.717c8.133,1.712,16.415,2.711,24.553,4.402c6.719,1.396,14.232,0.742,19.592,6.197
			c4.036,4.108,9.036,5.28,14.429,5.868c2.971,0.324,5.97,0.766,8.839,1.572c9.45,2.657,18.336,1.372,26.991-3.064
			c1.817-0.931,4.11-0.977,6.202-1.318c2.704-0.441,5.61-0.293,8.1-1.253c4.175-1.609,8.037-4.01,12.126-5.869
			c7.482-3.401,14.205-8.575,23.72-5.563c3.725,1.179,8.772-2.059,13.271-3.035c8.041-1.745,15.779-0.964,22.453,4.212
			c5.564,4.316,10.82,8.966,18.56,8.438c0.928-0.063,1.905,0.527,2.852,0.835c8.298,2.7,16.591,5.419,24.9,8.085
			c0.763,0.245,1.642,0.298,2.446,0.219c10.923-1.067,21.844-2.169,32.764-3.27c4.89-0.493,10.507-2.793,14.528-1.159
			c11.536,4.689,22.147,2.216,33.043-1.296c6.454-2.08,13.01-3.843,19.467-5.913c1.985-0.636,3.804-1.799,5.684-2.751
			c5.485-2.779,10.941-5.617,16.469-8.308c0.745-0.362,1.962-0.296,2.748,0.052c7.754,3.427,14.983,0.083,22.153-1.969
			c4.525-1.295,8.172-4.535,13.718-2.805c6.989,2.181,14.736,0.544,21.765,4.083c2.429,1.223,6.285,0.1,9.352-0.575
			c3.079-0.678,5.972-2.176,8.974-3.238c3.044-1.077,6.352-1.639,9.139-3.165c7.551-4.136,15.082-6.353,23.742-3.416
			c3.339,1.133,7.222,0.606,10.841,0.989c1.968,0.208,4.297,0.178,5.784,1.222c7.171,5.033,14.413,9.552,22.537,13.268
			c11.397,5.211,21.664,12.931,32.275,19.793c2.172,1.405,3.548,3.993,5.624,5.607c1.915,1.488,4.18,3.151,6.458,3.448
			c25.898,3.38,51.788,6.909,77.766,9.567c16.503,1.689,33.164,2.874,49.726,2.604c11.873-0.194,23.892-2.357,35.504-5.091
			c19.412-4.571,38.573-10.224,57.8-15.562c20.206-5.61,40.254-11.831,60.582-16.944c15.232-3.832,30.263-7.857,44.16-15.395
			c1.837-0.997,4.02-1.655,6.102-1.854c11.956-1.147,23.791-2.622,34.703-8.224c5.625-2.888,11.68-1.249,16.675,0.834
			c4.195,1.75,7.984,2.581,12.34,2.455c3.624-0.105,7.26,0.355,10.892,0.368c2.798,0.01,5.595-0.35,8.396-0.427
			c2.295-0.063,4.859-0.602,6.843,0.204c5.913,2.404,11.543,5.495,17.385,8.087c25.303,11.228,51.622,19.395,78.421,26.196
			c12.326,3.128,23.676,2.201,33.979-5.791c0.617-0.478,1.418-0.853,2.184-0.984c9.06-1.553,18.122-3.108,27.206-4.513
			c1.744-0.27,3.69-0.246,5.364,0.248c4.407,1.299,8.758,4.257,13.053,4.12c6.408-0.204,11.646,1.737,17.01,4.542
			c14.046,7.345,28.319,13.815,44.556,15.045c6.772,0.513,13.532,1.588,19.791,5.711c6.67,4.394,14.222,6.882,22.986,4.87
			c12.284-2.819,24.848-4.427,37.305-6.476c1.573-0.259,3.918-0.756,4.723,0.045c5.292,5.267,11.301,3.359,17.339,2.368
			c26.432-4.342,51.52-12.294,74.225-26.95c2.832-1.828,6.212-3.464,9.491-3.837c19.491-2.218,37.288-9.513,54.562-18.119
			c12.208-6.082,23.907-13.181,35.92-19.665c1.359-0.733,3.328-0.775,4.93-0.545c8.625,1.239,16.836,5.272,25.944,3.382
			c2.702-0.561,6.02-0.909,8.391,0.143c12.727,5.651,25.251,11.76,37.821,17.762c1.17,0.559,2.194,1.441,3.242,2.232
			c8.73,6.59,17.36,13.32,26.257,19.675c1.603,1.144,4.505,1.502,6.457,0.96c16.66-4.62,33.307-9.31,49.823-14.419
			c15.865-4.907,31.784-9.631,44.253-21.839l17.291-17.139c0,0,9.354-3.741,11.224-4.276c1.871-0.534,8.552-0.534,8.552-0.534
			l14.381,10.793c8.472,4.448,17.01,8.825,25.787,12.612c4.172,1.8,9.254,1.49,13.428,3.288
			c18.464,7.954,36.716,16.401,55.147,24.434c1.892,0.825,4.763,0.772,6.681-0.045c17.118-7.288,34.131-14.821,51.155-22.328
			c3.162-1.394,6.187-3.104,9.361-4.469c4.151-1.785,8.909-2.644,12.47-5.204c6.142-4.416,11.683-9.355,19.157-11.922
			c3.736-1.283,6.497-5.407,9.696-8.249c1.438-1.277,2.869-2.563,4.303-3.844c0,87.656,0,20.311,0,107.967H234V997z"/>
	</g>
</g>
</svg>
