<?xml version="1.0" encoding="utf-8"?>
<!-- Generator: Adobe Illustrator 17.1.0, SVG Export Plug-In . SVG Version: 6.00 Build 0)  -->
<!DOCTYPE svg PUBLIC "-//W3C//DTD SVG 1.1//EN" "http://www.w3.org/Graphics/SVG/1.1/DTD/svg11.dtd">
<svg version="1.1" xmlns="http://www.w3.org/2000/svg" xmlns:xlink="http://www.w3.org/1999/xlink" x="0px" y="0px"
	 width="3456px" height="656.8px" viewBox="0 559.7 3456 656.8" enable-background="new 0 559.7 3456 656.8" xml:space="preserve">
<g id="mountains" >
	<polygon fill="#34495E" points="0,608.9 16.9,599.8 44,624.7 77.9,633.7 117.5,660.8 291.4,723.5 307.2,717.3 369.3,738.2 
		397,729.7 414.5,731.4 430.3,721.8 460.2,721.8 473.2,729.7 532,717.3 554.5,708.8 563,711.1 574.9,723.5 584.5,720.7 599.2,728.6 
		644.3,734.2 657.3,741 705.3,724.1 719.4,715.6 760.7,716.2 809.2,687.4 846.5,674.9 861.2,661.4 878.1,660.3 913.1,639.9 
		917.6,636 927.2,634.8 951.5,623.5 966.2,623 971.3,620.2 978.6,621.9 995,639.4 1001.8,639.4 1016.5,644.4 1036.8,639.9 
		1046.4,640.5 1071.2,651.2 1078,650.1 1101.2,617.9 1122.1,611.1 1142.4,620.2 1172.9,584.6 1186.4,591.4 1213,575 1222,575 
		1233.9,580.6 1248,572.7 1257.6,579.5 1279.1,594.2 1289.8,594.2 1302.8,605.5 1316.9,599.3 1357.6,630.9 1367.2,629.2 
		1394.3,659.7 1403.3,660.3 1438.3,685.7 1480.7,636.5 1493.6,634.8 1560.8,585.7 1579.5,582.3 1586.8,578.4 1593,577.2 
		1615.6,559.7 1626.9,559.7 1638.2,576.7 1673.2,606.6 1685.6,608.3 1789,681.1 1816.1,677.8 1861.3,704.9 1882.2,711.6 
		1896.8,709.4 1901.9,703.2 1921.7,709.9 1930.2,713.3 1937.5,706 1952.8,707.1 1966.3,697.5 2083.2,665.3 2092.8,650.7 
		2117.1,642.7 2134,637.1 2145.3,646.7 2157.2,664.8 2279.7,665.9 2289.3,678.3 2310.2,684.5 2357.6,659.1 2379.1,660.3 
		2417.5,634.8 2433.3,635.4 2490.4,593.6 2514.1,593.1 2555.3,579.5 2601.6,585.1 2616.3,575 2632.1,580.1 2670.5,604.9 
		2716.8,626.4 2728.1,620.2 2742.8,617.3 2762,607.7 2801.5,623.5 2855.2,631.5 2894.7,669.3 2938.7,700.3 2964.7,689.6 
		2991.8,690.2 2998.6,694.7 3011,716.7 3133.6,782.2 3157.8,768.1 3169.1,768.1 3178.2,764.2 3190,763 3257.2,738.7 3269.1,721.2 
		3311.4,706 3327.8,711.6 3337.4,719 3353.8,722.9 3408.6,709.9 3419.3,704.9 3427.2,697.5 3456,684 3456,1216.5 0,1216.5 	"/>
	<polygon fill="#2C3E50" points="0,614.6 12,608.6 50,648.6 59,643.6 68.5,648.6 83.5,688.1 130.5,678.1 183,702.6 191.5,726.6 
		126,755.6 173.5,765.6 273.5,755.1 314,740.6 389,757.1 438,728.6 455.5,729.1 468,736.6 558,718.6 588,754.6 517,786.6 580,777.1 
		601.5,782.1 637,772.6 652.5,772.6 686.5,746.1 698.5,745.6 721.5,723.1 764.5,722.6 815.5,697.6 820,697.6 820,709.1 830,712.1 
		851.5,680.1 857,704.1 878,690.6 881.5,668.1 924,644.1 962,632.6 970.5,651.1 951.5,672.6 954,682.1 999,654.1 1006,658.1 
		977,686.1 978.5,697.6 837.5,781.1 985,713.6 1029.5,721.6 1089.5,670.1 1104.5,670.6 1175.5,596.1 1186.5,600.1 1215.5,584.1 
		1223.5,584.1 1234,595.6 1246,584.1 1324.5,650.6 1311,664.1 1354,699.6 1347,721.6 1307.5,734.1 1276,768.1 1286.5,767.1 
		1303.5,756.6 1374,748.6 1419.5,699.6 1433.5,705.1 1481,648.1 1503,660.6 1503,688.6 1488.5,716.6 1486.5,726.1 1457,768.6 
		1458.5,775.1 1535.5,671.1 1583,626.1 1596,623.1 1615.5,584.1 1621.5,581.6 1621.5,606.1 1640.5,619.1 1646,643.1 1659,622.1 
		1666.5,624.1 1684,660.6 1698.5,665.6 1705,696.6 1723.5,701.6 1730.5,686.6 1717.5,660.6 1723.5,652.6 1751.5,684.1 1765,684.1 
		1772.5,695.6 1769,727.1 1798.5,735.6 1811.5,763.1 1820,763.6 1814,739.1 1820,726.6 1885.5,772.1 1904,777.6 1875,748.6 
		1931.5,769.1 1939.5,753.1 2012.5,743.1 2026,743.6 2052.5,750.1 2073,771.6 2113,772.1 2126.5,783.6 2169,802.1 2184,799.6 
		2100,721.1 2129.5,656.1 2136.5,656.6 2144.5,677.1 2206.5,682.6 2230,707.1 2274,678.1 2282.5,688.1 2272,716.1 2289,739.1 
		2297,696.1 2308,699.1 2308,745.1 2316.5,747.1 2335,713.6 2431.5,725.6 2484,755.1 2547,738.1 2562.5,724.1 2667,740.6 
		2672.5,737.1 2570.5,706.1 2536.5,714.1 2435.5,656.6 2443,651.6 2454,653.1 2468,646.6 2569,653.6 2531,618.1 2546,602.1 
		2557,606.6 2568.5,592.1 2619.5,596.1 2628,588.6 2644.5,596.6 2652.5,619.1 2662,621.1 2668.5,610.1 2716.5,634.6 2720,660.6 
		2735.5,649.1 2809,695.6 2792,660.6 2823.5,636.1 2846.5,639.1 2877.5,672.6 2886.5,672.1 2940.5,711.6 2976,724.6 2991,701.1 
		3001.5,732.1 3019.5,735.6 3065.5,771.6 3077.5,767.1 3139.5,797.6 3168.5,781.6 3261,796.6 3265.5,780.1 3366.5,778.1 
		3288.5,746.1 3309.5,730.1 3312.5,718.6 3323.5,718.6 3369.5,730.6 3401.5,719.1 3418.5,719.6 3431,701.6 3456,691.9 3456,1216.5 
		0,1216.5 	"/>
	<polygon fill="#202F40" points="0,941 304.2,820.5 296.1,847.1 373.3,808.8 394.9,816.8 357.9,867.5 553.7,805.1 590.1,823.6 
		719.8,777.9 727.2,781 555.5,868.7 550,874.9 530.8,888.1 580.8,892.2 695.1,848.3 727.2,851.4 959.4,742.7 968.7,742.7 
		887.8,802.6 882.8,811.3 816.1,865.6 805,895.3 896.4,841.8 919.9,836 1013.1,758.1 1039.1,752 1124.3,680.3 1129.9,680.3 
		1049,781.6 1036.6,810.6 1003.3,863.1 1054.5,861.9 1120,806.9 1144.1,794.6 1206.5,742.1 1233.6,737.2 1295.4,693.9 1302.2,693.9 
		1243.5,753.8 1250.9,764.3 1309,709.4 1315.2,709.4 1210.2,828.6 1223.7,835.3 1211.4,861.3 1228.7,860.1 1283.7,819.9 
		1315.2,810.6 1355.9,769.9 1332.4,813.1 1337.4,829.8 1420.1,744.6 1435.6,740.2 1468.9,705.7 1475.7,705 1349.1,883.5 
		1365.2,882.9 1421.4,827.9 1446.1,826.7 1516.5,740.2 1538.1,731 1582.6,668 1591.8,660.6 1560.3,749.5 1572.1,763.1 1565.9,797.1 
		1605.4,810.6 1644.9,895.3 1625.2,736.5 1649.9,779.8 1701.8,783.5 1687.6,750.7 1688.8,740.2 1659.8,698.2 1669,698.2 1728,774.2 
		1735.1,739 1775.3,795.8 1782.7,796.4 1851.8,853.9 1870.4,853.3 1935.8,900.2 1877.2,823.6 1889.5,809.4 1832.7,750.7 
		1832.1,742.1 1998.2,869.3 2017.3,857 2048.2,879.8 2077.9,881 1943.2,782.9 2095.2,861.3 2112.5,856.3 2170.5,868.7 2187.8,869.9 
		2126,837.8 2120.5,823.6 2003.1,769.9 2012.4,769.9 2256.4,861.3 2202,806.9 2210.7,805.7 2243.4,819.9 2256.4,818.1 2353.3,869.3 
		2395.3,838.4 2335.4,781 2405.2,820.5 2431.1,814.4 2457.1,831 2488,816.2 2383.6,751.4 2392.8,752 2437.3,776.7 2446,777.3 
		2470.7,789.6 2488,787.8 2546.6,818.1 2580.6,808.2 2608.4,824.2 2639.9,819.9 2703.5,847.1 2716.5,844 2572.6,771.7 2583.1,771.7 
		2705.3,827.3 2716.5,824.8 2748.6,840.3 2803.5,826.1 2715.2,756.3 2727.6,756.9 2836.3,823 2843.1,818.7 2726.3,725.4 
		2734.4,719.2 3026.5,877.3 3043.2,878 3075.9,890.9 3086.4,888.1 2979.6,824.8 2983.9,816.8 2883.8,743.9 2897.4,742.7 
		3074.7,829.8 3089.5,829.2 3165.4,867.5 3175.3,861.9 3065.4,793.4 3073.4,790.9 3179.7,850.2 3192.6,845.8 3456,950.2 
		3456,1216.5 0,1216.5 	"/>
</g>
</svg>
