<?xml version="1.0" encoding="utf-8"?>
<!-- Generator: Adobe Illustrator 17.0.0, SVG Export Plug-In . SVG Version: 6.00 Build 0)  -->
<!DOCTYPE svg PUBLIC "-//W3C//DTD SVG 1.1//EN" "http://www.w3.org/Graphics/SVG/1.1/DTD/svg11.dtd">
<svg version="1.1" id="Layer_1" xmlns="http://www.w3.org/2000/svg" xmlns:xlink="http://www.w3.org/1999/xlink" x="0px" y="0px"
	 width="3456px" height="2073.6px" viewBox="0 0 3456 2073.6" enable-background="new 0 0 3456 2073.6" xml:space="preserve">
<path fill="#FFFFFF" d="M2.796-2.293C0.51-4.578,0.5-12.141,0.5-12.141S0.49-4.578-1.796-2.293S-12.141,0-12.141,0
	s8.06,0.007,10.345,2.293S0.5,12.141,0.5,12.141s0.01-7.563,2.296-9.848S12.141,0,12.141,0S5.081-0.007,2.796-2.293z"/>
<path fill="#FFFFFF" d="M2.796-2.293C0.51-4.578,0.5-22.141,0.5-22.141S0.49-4.578-1.796-2.293S-18.141,0-18.141,0
	s14.06,0.007,16.345,2.293S0.5,22.141,0.5,22.141S0.51,4.578,2.796,2.293S18.141,0,18.141,0S5.081-0.007,2.796-2.293z"/>
<path fill="#FFFFFF" d="M3.598,0.356c0-3.232,5.34-8.587,5.34-8.587s-5.355,5.34-8.587,5.34c-3.232,0-8.936-5.694-8.936-5.694
	s5.694,5.704,5.694,8.936c0,3.232-5.34,8.587-5.34,8.587s5.355-5.34,8.587-5.34c3.232,0,8.229,4.987,8.229,4.987
	S3.598,3.588,3.598,0.356z"/>
<path fill="#FFFFFF" d="M3.598,0.356c0-3.232,9.583-12.83,9.583-12.83S3.583-2.891,0.351-2.891c-3.232,0-13.179-9.936-13.179-9.936
	S-2.891-2.88-2.891,0.351c0,3.232-9.583,12.83-9.583,12.83s9.598-9.583,12.83-9.583c3.232,0,12.472,9.229,12.472,9.229
	S3.598,3.588,3.598,0.356z"/>
</svg>
