<?xml version="1.0" encoding="utf-8"?>
<!-- Generator: Adobe Illustrator 17.0.0, SVG Export Plug-In . SVG Version: 6.00 Build 0)  -->
<!DOCTYPE svg PUBLIC "-//W3C//DTD SVG 1.1//EN" "http://www.w3.org/Graphics/SVG/1.1/DTD/svg11.dtd">
<svg version="1.1" xmlns="http://www.w3.org/2000/svg" xmlns:xlink="http://www.w3.org/1999/xlink" x="0px" y="0px"
	 width="157.254px" height="63.074px" viewBox="0 0 157.254 63.074" enable-background="new 0 0 157.254 63.074"
	 xml:space="preserve">
<g id="Layer_1">
	<path fill="#811517" d="M0,6.875"/>
	<path fill="#811517" d="M48.465,0"/>
	<path fill="#811517" d="M30.763,61.355"/>
	<path fill="#811517" d="M42.106,28.357"/>
	<path fill="#811517" d="M67.026,12.03"/>
	<path fill="#811517" d="M74.932,30.076"/>
	<path fill="#811517" d="M47.606,48.981"/>
	<path fill="#811517" d="M64.105,52.418"/>
	<path fill="#811517" d="M86.791,15.468"/>
	<path fill="#811517" d="M88.853,53.793"/>
	<path fill="#811517" d="M116.351,48.293"/>
	<path fill="#811517" d="M108.617,14.265"/>
	<path fill="#811517" d="M130.959,6.187"/>
	<path fill="#811517" d="M128.725,39.357"/>
	<path fill="#811517" d="M155.708,31.795"/>
	<path fill="#811517" d="M127.178,63.074"/>
	<path fill="#811517" d="M157.254,61.355"/>
</g>
<g id="Layer_2" display="none">
	<g display="inline">
		<g>
			<path fill="#811517" d="M-0.943,9.708c16.051-1.457,31.455-7.226,47.639-7.457c3.221-0.046,3.226-5.046,0-5
				C30.479-2.518,15.117,3.25-0.943,4.708C-4.127,4.997-4.155,9.999-0.943,9.708L-0.943,9.708z"/>
		</g>
	</g>
	<g display="inline">
		<g>
			<path fill="#811517" d="M20.583,3.065c-0.016,5.8,1.135,11.566,1.407,17.366c0.306,6.528,1.338,12.674,2.831,19.02
				c1.252,5.322,2.012,10.641,2.732,16.043c0.458,3.431,1.366,6.438,4.21,8.553c2.591,1.927,5.079-2.417,2.524-4.317
				c-2.427-1.805-2.044-7.128-2.356-9.805c-0.528-4.532-1.646-9.068-2.689-13.504c-1.4-5.952-2.055-11.784-2.341-17.885
				c-0.242-5.177-1.332-10.287-1.318-15.471C25.592-0.159,20.592-0.159,20.583,3.065L20.583,3.065z"/>
		</g>
	</g>
	<g display="inline">
		<g>
			<path fill="#811517" d="M41.31,30.42c2.998-0.114,5.444-2.083,7.756-3.811c3.62-2.705,7.237-5.446,10.56-8.511
				c0.947-0.873,1.717-2.006,2.551-2.984c1.66-1.948,1.705-0.381,2.559,1.692c1.366,3.317,2.432,6.337,4.318,9.42
				c3.619,5.914,1.152,10.583-1.854,16.172c-1.122,2.086-2.301,4.155-3.546,6.17c-1.28,2.071-2.701,1.4-4.697,0.748
				c-5.133-1.678-8.343-2.708-10.747-7.811c-2.375-5.043-3.744-10.071-4.904-15.493c-0.674-3.152-5.494-1.815-4.821,1.329
				c1.391,6.5,3.334,12.283,6.165,18.295c2.384,5.063,6.753,6.228,11.634,8.007c3.96,1.444,7.72,2.377,10.725-1.225
				c3.87-4.638,6.827-11.185,8.661-16.896c1.922-5.988-1.744-10.183-4.299-15.212c-1.678-3.303-2.157-9.066-5.748-11.081
				c-4.003-2.247-6.792,2.124-9.078,4.842c-2.129,2.532-5.114,4.415-7.699,6.427c-1.829,1.424-5.026,4.825-7.536,4.921
				C38.096,25.542,38.085,30.543,41.31,30.42L41.31,30.42z"/>
		</g>
	</g>
	<g display="inline">
		<g>
			<path fill="#811517" d="M81.892,14.25c0.003,13.254,0.176,26.474,2.628,39.541c0.208,1.111,1.366,1.794,2.411,1.835
				c9.91,0.391,19.346-3.641,28.716-6.291c1.013-0.287,1.914-1.307,1.835-2.411c-0.464-6.5-2.637-12.582-4.209-18.861
				c-1.511-6.036,0.518-12.177-2.282-17.975c-1.402-2.903-5.713-0.366-4.317,2.524c2.181,4.515,0.692,10.274,1.417,15.144
				c0.971,6.524,3.917,12.518,4.392,19.169c0.612-0.804,1.224-1.607,1.835-2.411c-8.921,2.523-17.958,6.484-27.387,6.113
				c0.804,0.612,1.607,1.224,2.411,1.835c-2.368-12.619-2.446-25.417-2.449-38.212C86.892,11.026,81.892,11.026,81.892,14.25
				L81.892,14.25z"/>
		</g>
	</g>
	<g display="inline">
		<g>
			<path fill="#811517" d="M127.135,5.387c1.214,4.062,0.653,8.409,0.761,12.593c0.137,5.308,0.062,10.624-0.063,15.932
				c-0.118,5.031-1.24,9.958-1.249,15.012c-0.005,2.708,0.088,5.403-0.028,8.111c-0.082,1.923-0.951,3.814-0.495,5.71
				c0.473,1.965,2.812,2.249,4.178,1.103c0.235-0.185,0.454-0.387,0.659-0.606c2.31-2.256-1.228-5.789-3.536-3.536
				c-0.204,0.219-0.424,0.421-0.659,0.606c1.393,0.368,2.786,0.735,4.178,1.103c-0.183-0.76,0.593-3.462,0.673-4.38
				c0.233-2.684,0.063-5.422,0.028-8.111c-0.073-5.633,1.158-11.15,1.29-16.771c0.12-5.12,0.123-10.24-0.009-15.359
				c-0.111-4.286,0.338-8.568-0.909-12.737C131.035,0.976,126.209,2.29,127.135,5.387L127.135,5.387z"/>
		</g>
	</g>
	<g display="inline">
		<g>
			<path fill="#811517" d="M127.801,6.813c3.049,5.443,8.121,9.622,12.788,13.644c3.883,3.347,11.67,5.957,13.439,11.068
				c0.383-0.941,0.766-1.882,1.149-2.823c-5.644,2.472-11.633,3.962-17.517,5.735c-3.397,1.023-10.21,2.425-12.588,5.314
				c-1.717,2.086,0.455,5.498,3.03,3.926c0.2-0.136,0.411-0.25,0.634-0.342c2.911-1.384,0.372-5.694-2.524-4.317
				c-0.223,0.092-0.435,0.206-0.634,0.342c1.01,1.309,2.02,2.618,3.03,3.926c1.269-1.541,5.145-2.273,7.059-2.954
				c2.742-0.975,5.561-1.748,8.355-2.556c4.659-1.348,9.232-2.809,13.678-4.757c0.965-0.423,1.481-1.863,1.149-2.823
				c-1.778-5.137-7.194-8.126-11.471-10.987c-5.618-3.757-11.934-8.984-15.26-14.92C130.543,1.477,126.223,3.997,127.801,6.813
				L127.801,6.813z"/>
		</g>
	</g>
	<g display="inline">
		<g>
			<path fill="#811517" d="M124.487,41.195c2.14,4.469,7.963,5.855,12.27,7.251c3.083,0.999,5.988,2.432,8.91,3.823
				c4.35,2.07,7.402,5.54,11.108,8.487c2.496,1.985,6.059-1.529,3.536-3.536c-2.728-2.169-5.068-4.915-7.967-6.859
				c-3.142-2.107-6.615-3.541-10.03-5.142c-3.904-1.83-11.49-2.332-13.51-6.549C127.412,35.765,123.102,38.303,124.487,41.195
				L124.487,41.195z"/>
		</g>
	</g>
</g>
</svg>
