<?xml version="1.0" encoding="utf-8"?>
<!-- Generator: Adobe Illustrator 17.0.0, SVG Export Plug-In . SVG Version: 6.00 Build 0)  -->
<!DOCTYPE svg PUBLIC "-//W3C//DTD SVG 1.1//EN" "http://www.w3.org/Graphics/SVG/1.1/DTD/svg11.dtd">
<svg version="1.1" id="Layer_1" xmlns="http://www.w3.org/2000/svg" xmlns:xlink="http://www.w3.org/1999/xlink" x="0px" y="0px"
	 width="3000px" height="1000px" viewBox="0 0 3000 1000" enable-background="new 0 0 3000 1000" xml:space="preserve">
<g>
	<path d="M1475.5,989.56c-60.66,0-67.86,0.9-88.38,2.34c-16.02,1.26-32.4,2.88-87.12,2.88v5.22h175.5V989.56z"/>
	<path d="M1650,979.12c-60.66,0-67.86,1.8-88.38,4.68c-16.02,2.52-32.4,5.76-87.12,5.76V1000H1650V979.12z"/>
	<path d="M1824.5,958.24c-60.66,0-67.86,3.6-88.38,9.36c-16.02,5.04-32.4,11.52-87.12,11.52V1000h175.5V958.24z"/>
	<path d="M1999,916.48c-60.66,0-67.86,7.2-88.38,18.72c-16.02,10.08-32.4,23.04-87.12,23.04V1000H1999V916.48z"/>
	<path d="M2173.5,832.96c-60.66,0-67.86,14.4-88.38,37.44c-16.02,20.16-32.4,46.08-87.12,46.08V1000h175.5V832.96z"/>
	<path d="M2348,665.92c-60.66,0-67.86,28.8-88.38,74.88c-16.02,40.32-32.4,92.16-87.12,92.16V1000H2348V665.92z"/>
	<path d="M2522.5,331.84c-60.66,0-67.86,57.6-88.38,149.76c-16.02,80.64-32.4,184.32-87.12,184.32V1000h175.5V331.84z"/>
	<path d="M2696-336.32c-60.66,0-67.86,115.2-88.38,299.52c-16.02,161.28-32.4,368.64-87.12,368.64V1000H2696V-336.32z"/>
	<path d="M2869.5-1672.64c-60.66,0-67.86,230.4-88.38,599.04c-16.02,322.56-32.4,737.28-87.12,737.28V1000h175.5V-1672.64z"/>
	<path d="M3043.5-4345.28c-60.66,0-67.86,460.8-88.38,1198.08c-16.02,645.12-32.4,1474.56-87.12,1474.56V1000h175.5V-4345.28z"/>
</g>
<g>
	<path d="M1524.5,1000H1700v-5.22c-54.72,0-71.1-1.62-87.12-2.88c-20.52-1.44-27.72-2.34-88.38-2.34V1000z"/>
	<path d="M1350,1000h175.5v-10.44c-54.72,0-71.1-3.24-87.12-5.76c-20.52-2.88-27.72-4.68-88.38-4.68V1000z"/>
	<path d="M1175.5,1000H1351v-20.88c-54.72,0-71.1-6.48-87.12-11.52c-20.52-5.76-27.72-9.36-88.38-9.36V1000z"/>
	<path d="M1001,1000h175.5v-41.76c-54.72,0-71.1-12.96-87.12-23.04c-20.52-11.52-27.72-18.72-88.38-18.72V1000z"/>
	<path d="M826.5,1000H1002v-83.52c-54.72,0-71.1-25.92-87.12-46.08c-20.52-23.04-27.72-37.44-88.38-37.44V1000z"/>
	<path d="M652,1000h175.5V832.96c-54.72,0-71.1-51.84-87.12-92.16c-20.52-46.08-27.72-74.88-88.38-74.88V1000z"/>
	<path d="M477.5,1000H653V665.92c-54.72,0-71.1-103.68-87.12-184.32c-20.52-92.16-27.72-149.76-88.38-149.76V1000z"/>
	<path d="M304,1000h175.5V331.84c-54.72,0-71.1-207.36-87.12-368.64C371.86-221.12,364.66-336.32,304-336.32V1000z"/>
	<path d="M130.5,1000H306V-336.32c-54.72,0-71.1-414.72-87.12-737.28c-20.52-368.64-27.72-599.04-88.38-599.04V1000z"/>
	<path d="M-43.5,1000H132v-2672.64c-54.72,0-71.1-829.44-87.12-1474.56C24.36-3884.48,17.16-4345.28-43.5-4345.28V1000z"/>
</g>
</svg>
